{
.appVersion = "3260";
.formatVersion = 3;
DisplayStrings = (
"9",
"!#$%&()*0123456789@ABCDEFGHIJKLMNOPQRSTUVWXYZ^abcdefghijklmnopqrstuvwxyz"
);
customParameters = (
{
name = "meta Table";
value = (
{
data = <7b2265787456657273696f6e223a22332e352e39222c227363616c696e67466163746f72223a332e303037363533323738383937323137372c2273706163696e67223a7b22757070657263617365223a7b226d6f6465223a2264656661756c74222c2262656172696e67223a35307d2c226c6f77657263617365223a7b226d6f6465223a2264656661756c74222c2262656172696e67223a35307d2c22646967697473223a7b226d6f6465223a2264656661756c74222c2262656172696e67223a35307d2c2270756e6374756174696f6e223a7b226d6f6465223a2264656661756c74222c2262656172696e67223a35307d2c226f7468657273223a7b226d6f6465223a2264656661756c74222c2262656172696e67223a35307d2c22657863657074696f6e73223a7b7d7d2c226170706c69636174696f6e223a22494c4c5553545241544f52222c226275696c6452616e646f6d223a226536323432222c226b65726e696e6747726f757073223a7b226c656674223a7b7d2c227269676874223a7b7d7d2c226d697373696e6743617365537562737469747574696f6e223a307d>;
tag = fslf;
}
);
},
{
name = vendorID;
value = XXXX;
},
{
name = panose;
value = (
0,
0,
0,
0,
0,
0,
0,
0,
0,
0
);
},
{
name = unicodeRanges;
value = (
0,
1,
2
);
},
{
name = fsType;
value = (
);
},
{
name = glyphOrder;
value = (
.notdef,
.null,
LF,
controlCR,
space,
exclam,
numbersign,
dollar,
percent,
ampersand,
parenleft,
parenright,
asterisk,
zero,
one,
two,
three,
four,
five,
six,
seven,
eight,
nine,
at,
A,
B,
C,
D,
E,
F,
G,
H,
I,
J,
K,
L,
M,
N,
O,
P,
Q,
R,
S,
T,
U,
V,
W,
X,
Y,
Z,
asciicircum,
a,
b,
c,
d,
e,
f,
g,
h,
i,
j,
k,
l,
m,
n,
o,
p,
q,
r,
s,
t,
u,
v,
w,
x,
y,
z,
nonbreakingspace,
softhyphen
);
},
{
name = "Disable Subroutines";
value = 1;
}
);
date = "2024-09-21 16:35:03 +0000";
familyName = Weenies;
fontMaster = (
{
customParameters = (
{
name = typoAscender;
value = 700;
},
{
name = typoDescender;
value = -200;
},
{
name = typoLineGap;
value = 0;
},
{
name = winAscent;
value = 527;
},
{
name = winDescent;
value = 34;
},
{

glyphs = (
{
glyphname = exclam;
lastChange = "2024-09-21 16:40:38 +0000";
layers = (
{
layerId = m01;
shapes = (
{
closed = 1;
nodes = (
(211,-26,o),
(229,-20,o),
(238,-1,c),
(239,0,o),
(238,2,o),
(241,2,c),
(248,-3,ls),
(266,-13,o),
(287,-9,o),
(299,8,cs),
(304,15,o),
(307,22,o),
(308,30,c),
(309,33,o),
(308,36,o),
(311,39,c),
(325,29,o),
(333,26,o),
(346,28,cs),
(357,30,o),
(367,34,o),
(376,42,cs),
(385,50,o),
(392,59,o),
(397,69,cs),
(398,72,o),
(399,75,o),
(402,77,c),
(405,73,ls),
(413,65,o),
(422,63,o),
(432,69,cs),
(437,72,o),
(440,76,o),
(443,80,cs),
(445,82,o),
(445,85,o),
(448,86,c),
(461,71,o),
(473,72,o),
(485,87,cs),
(492,96,o),
(496,106,o),
(499,117,c),
(499,120,o),
(499,124,o),
(501,128,c),
(515,131,o),
(526,137,o),
(536,147,cs),
(554,165,o),
(562,188,o),
(561,213,cs),
(560,225,o),
(559,237,o),
(557,249,c),
(557,258,o),
(559,266,o),
(567,271,c),
(576,280,ls),
(601,303,o),
(601,344,o),
(576,368,cs),
(571,373,o),
(565,375,o),
(558,373,cs),
(552,372,o),
(547,369,o),
(541,367,c),
(540,369,o),
(541,372,o),
(541,374,cs),
(543,390,o),
(538,399,o),
(523,405,cs),
(505,412,o),
(489,409,o),
(474,397,cs),
(460,385,l),
(457,395,o),
(457,405,o),
(449,412,cs),
(441,420,o),
(431,422,o),
(421,424,c),
(420,432,o),
(415,438,o),
(411,444,c),
(414,449,ls),
(419,459,o),
(423,471,o),
(425,483,cs),
(427,502,o),
(414,514,o),
(396,510,cs),
(388,509,o),
(382,505,o),
(376,500,cs),
(374,498,o),
(373,496,o),
(370,495,c),
(359,507,o),
(349,510,o),
(336,505,cs),
(327,502,o),
(321,495,o),
(316,487,cs),
(311,477,o),
(308,467,o),
(308,456,cs),
(308,432,l),
(301,436,o),
(295,435,o),
(288,432,cs),
(282,429,o),
(278,424,o),
(272,420,c),
(266,427,ls),
(251,446,o),
(228,445,o),
(213,427,cs),
(210,423,o),
(208,419,o),
(206,414,cs),
(205,412,o),
(205,410,o),
(202,408,c),
(186,418,o),
(175,408,o),
(164,397,c),
(151,406,o),
(142,404,o),
(132,393,cs),
(130,390,ls),
(124,378,o),
(112,370,o),
(100,363,cs),
(88,357,o),
(76,350,o),
(66,341,cs),
(60,336,o),
(56,331,o),
(53,324,cs),
(43,303,o),
(61,279,o),
(81,281,c),
(83,282,o),
(86,282,o),
(88,281,c),
(87,274,o),
(84,266,o),
(84,259,cs),
(83,251,o),
(85,243,o),
(89,237,cs),
(93,230,o),
(99,225,o),
(106,221,cs),
(128,210,o),
(144,221,o),
(159,237,c),
(172,225,o),
(176,225,o),
(203,241,c),
(204,232,o),
(203,224,o),
(206,215,cs),
(209,207,o),
(215,200,o),
(223,194,c),
(214,192,o),
(206,192,o),
(199,189,cs),
(186,185,o),
(176,177,o),
(172,164,cs),
(170,157,o),
(165,154,o),
(159,151,cs),
(140,144,o),
(122,134,o),
(108,119,cs),
(99,109,o),
(93,98,o),
(92,85,cs),
(90,71,o),
(94,58,o),
(106,49,cs),
(118,41,o),
(130,44,o),
(142,50,cs),
(145,51,o),
(147,53,o),
(150,53,c),
(152,49,o),
(152,45,o),
(152,41,c),
(155,26,o),
(160,11,o),
(169,-1,cs),
(175,-9,o),
(183,-15,o),
(192,-19,cs)
);
}
);
width = 645;
}
);
note = exclam;
unicode = 33;
},
{
glyphname = numbersign;
lastChange = "2024-09-21 16:40:38 +0000";
layers = (
{
layerId = m01;
shapes = (
{
closed = 1;
nodes = (
(166,-10,o),
(178,3,o),
(173,19,cs),
(171,26,o),
(168,32,o),
(161,36,cs),
(151,43,o),
(144,51,o),
(138,61,cs),
(135,65,o),
(134,70,o),
(140,72,c),
(143,67,o),
(143,62,o),
(145,57,cs),
(146,53,o),
(148,50,o),
(152,51,cs),
(156,51,o),
(158,54,o),
(160,57,c),
(160,60,l),
(167,82,o),
(177,102,o),
(193,118,cs),
(207,134,ls),
(213,141,o),
(219,149,o),
(224,157,c),
(227,165,o),
(229,172,o),
(227,181,cs),
(226,188,o),
(223,195,o),
(221,202,c),
(243,207,o),
(291,206,o),
(303,200,c),
(300,195,o),
(295,192,o),
(291,189,cs),
(278,179,o),
(265,170,o),
(253,159,cs),
(247,154,o),
(247,153,o),
(251,146,c),
(251,145,o),
(252,144,o),
(252,143,c),
(251,141,o),
(249,141,o),
(247,140,cs),
(238,135,o),
(229,130,o),
(221,124,cs),
(212,117,o),
(213,109,o),
(223,104,cs),
(230,100,o),
(236,99,o),
(243,97,cs),
(248,96,o),
(253,95,o),
(256,92,cs),
(268,83,o),
(281,75,o),
(293,66,cs),
(306,57,o),
(321,55,o),
(337,58,cs),
(340,59,o),
(343,60,o),
(344,63,c),
(340,70,o),
(331,66,o),
(325,71,c),
(336,76,o),
(347,78,o),
(356,85,c),
(353,88,ls),
(343,98,o),
(339,99,o),
(326,95,c),
(321,92,o),
(316,89,o),
(310,88,c),
(291,117,l),
(294,120,o),
(296,123,o),
(296,128,cs),
(296,134,o),
(299,139,o),
(303,143,cs),
(307,148,o),
(312,151,o),
(317,155,cs),
(321,158,o),
(326,162,o),
(326,168,cs),
(326,171,o),
(328,173,o),
(330,175,cs),
(339,183,o),
(348,189,o),
(358,195,cs),
(362,198,o),
(366,200,o),
(370,204,c),
(377,214,o),
(377,218,o),
(368,225,c),
(373,233,o),
(373,235,o),
(364,238,cs),
(360,239,ls),
(341,244,o),
(322,245,o),
(302,245,cs),
(286,244,o),
(270,245,o),
(254,247,c),
(255,263,o),
(252,268,o),
(237,273,cs),
(227,276,o),
(217,280,o),
(208,286,cs),
(205,288,o),
(202,289,o),
(200,293,c),
(205,294,o),
(211,295,o),
(209,302,c),
(234,308,o),
(257,315,o),
(281,318,c),
(282,316,o),
(281,315,o),
(280,315,c),
(276,308,o),
(277,304,o),
(285,302,c),
(288,300,o),
(292,300,o),
(296,300,cs),
(298,300,o),
(301,301,o),
(303,299,cs),
(319,285,l),
(317,282,o),
(315,279,o),
(312,278,c),
(310,279,o),
(308,280,o),
(305,281,cs),
(303,282,o),
(301,281,o),
(300,278,cs),
(298,272,o),
(303,263,o),
(309,260,cs),
(316,256,o),
(320,257,o),
(325,263,c),
(332,269,o),
(337,277,o),
(341,285,c),
(340,291,o),
(335,294,o),
(333,299,c),
(349,303,ls),
(350,303,o),
(352,303,o),
(353,301,cs),
(354,300,o),
(353,298,o),
(352,297,cs),
(350,294,o),
(348,291,o),
(346,287,cs),
(344,282,o),
(346,279,o),
(351,277,cs),
(359,275,o),
(365,276,o),
(371,282,c),
(372,284,o),
(373,286,o),
(376,287,cs),
(385,289,o),
(385,290,o),
(384,299,cs),
(384,306,o),
(382,313,o),
(382,320,cs),
(382,331,o),
(381,333,o),
(370,331,cs),
(360,330,o),
(349,328,o),
(338,329,cs),
(329,329,o),
(319,330,o),
(311,337,cs),
(307,340,o),
(303,341,o),
(299,343,c),
(297,343,o),
(294,343,o),
(293,346,c),
(296,353,o),
(301,347,o),
(305,349,c),
(308,355,o),
(306,360,o),
(305,366,c),
(304,368,o),
(303,371,o),
(305,373,cs),
(317,385,l),
(320,380,o),
(321,374,o),
(321,367,cs),
(321,362,o),
(320,357,o),
(323,352,cs),
(327,347,o),
(332,347,o),
(335,352,cs),
(339,359,o),
(341,366,o),
(341,373,c),
(342,376,o),
(340,380,o),
(336,381,cs),
(332,382,o),
(332,384,o),
(331,387,cs),
(330,394,o),
(333,399,o),
(342,403,c),
(363,385,l),
(357,380,o),
(354,387,o),
(350,388,c),
(347,386,o),
(345,383,o),
(345,379,cs),
(344,371,o),
(351,369,o),
(354,364,c),
(352,357,o),
(346,350,o),
(350,342,c),
(355,340,o),
(358,341,o),
(362,344,cs),
(367,349,o),
(372,353,o),
(379,356,cs),
(382,357,o),
(384,360,o),
(387,361,c),
(392,364,o),
(393,368,o),
(392,374,cs),
(384,408,ls),
(383,412,o),
(382,417,o),
(379,421,c),
(371,421,o),
(363,422,o),
(356,426,c),
(355,426,o),
(353,426,o),
(351,426,cs),
(323,424,ls),
(319,424,o),
(317,422,o),
(315,418,cs),
(305,399,o),
(292,383,o),
(276,369,cs),
(259,353,o),
(240,341,o),
(215,339,cs),
(210,338,o),
(205,337,o),
(199,336,cs),
(172,330,l),
(168,339,o),
(156,344,o),
(150,349,c),
(155,360,l),
(165,360,o),
(173,357,o),
(177,348,cs),
(178,346,o),
(180,345,o),
(182,343,cs),
(186,338,o),
(189,337,o),
(195,340,cs),
(202,343,o),
(208,348,o),
(214,353,cs),
(224,362,l),
(225,360,o),
(224,358,o),
(225,355,cs),
(226,352,o),
(228,350,o),
(232,350,cs),
(236,350,o),
(238,353,o),
(238,357,cs),
(239,362,o),
(236,365,o),
(233,369,c),
(228,373,o),
(222,376,o),
(218,382,cs),
(216,384,o),
(213,385,o),
(210,383,c),
(207,382,o),
(207,380,o),
(207,377,c),
(208,374,o),
(206,373,o),
(203,372,c),
(202,379,o),
(203,386,o),
(207,393,c),
(213,388,o),
(215,393,o),
(217,399,c),
(219,395,ls),
(220,392,o),
(223,390,o),
(226,392,c),
(229,393,o),
(229,396,o),
(228,399,cs),
(225,411,o),
(227,414,o),
(239,417,cs),
(245,419,o),
(248,425,o),
(247,431,cs),
(247,435,o),
(244,437,o),
(237,437,cs),
(233,437,o),
(228,436,o),
(223,438,c),
(222,450,o),
(221,462,o),
(228,474,c),
(217,476,o),
(206,473,o),
(196,476,c),
(199,481,o),
(204,481,o),
(208,480,c),
(210,483,l),
(211,486,o),
(212,489,o),
(209,491,cs),
(207,493,o),
(204,492,o),
(202,490,c),
(198,488,o),
(196,485,o),
(193,483,c),
(179,487,o),
(170,476,o),
(158,468,c),
(162,475,o),
(167,479,o),
(171,483,cs),
(174,487,o),
(180,489,o),
(183,497,c),
(169,491,o),
(158,485,o),
(151,474,cs),
(145,466,o),
(137,462,o),
(129,454,c),
(130,460,o),
(132,464,o),
(130,470,c),
(121,464,o),
(119,455,o),
(115,447,cs),
(113,443,o),
(113,439,o),
(116,435,cs),
(118,432,o),
(120,429,o),
(119,425,c),
(114,421,o),
(107,423,o),
(102,417,c),
(108,414,o),
(114,419,o),
(120,417,c),
(121,408,o),
(122,398,o),
(117,390,cs),
(111,377,o),
(105,364,o),
(100,350,cs),
(99,348,o),
(99,344,o),
(96,343,cs),
(92,342,o),
(91,338,o),
(90,335,cs),
(83,314,l),
(74,313,o),
(66,315,o),
(58,316,cs),
(52,317,o),
(52,317,o),
(51,310,cs),
(49,298,o),
(50,286,o),
(53,273,cs),
(55,264,o),
(59,259,o),
(69,256,cs),
(92,249,o),
(114,238,o),
(135,226,cs),
(140,223,o),
(143,219,o),
(144,212,cs),
(150,185,ls),
(151,182,o),
(151,179,o),
(154,177,c),
(163,177,o),
(165,187,o),
(172,189,c),
(176,180,o),
(174,172,o),
(169,165,cs),
(165,159,o),
(159,154,o),
(154,150,cs),
(144,143,o),
(134,138,o),
(124,132,cs),
(118,128,o),
(111,125,o),
(103,125,cs),
(99,125,o),
(95,125,o),
(93,122,cs),
(91,119,o),
(95,118,o),
(94,115,c),
(75,106,ls),
(65,100,o),
(64,94,o),
(71,85,cs),
(80,74,ls),
(83,70,o),
(86,66,o),
(89,59,c),
(74,67,ls),
(71,69,o),
(67,71,o),
(63,72,c),
(56,72,o),
(53,69,o),
(54,62,cs),
(55,56,o),
(59,51,o),
(65,49,cs),
(76,44,ls),
(87,40,o),
(96,33,o),
(101,22,cs),
(106,11,ls),
(108,7,o),
(111,4,o),
(115,3,cs),
(127,-1,o),
(138,-4,o),
(150,-7,cs)
);
}
);
width = 442;
}
);
note = numbersign;
unicode = 35;
},
{
glyphname = dollar;
lastChange = "2024-09-21 16:40:38 +0000";
layers = (
{
layerId = m01;
shapes = (
{
closed = 1;
nodes = (
(107,31,o),
(122,31,o),
(136,40,cs),
(149,49,o),
(161,59,o),
(174,69,cs),
(247,128,ls),
(251,132,o),
(255,134,o),
(260,134,cs),
(277,136,o),
(292,142,o),
(306,152,cs),
(350,184,ls),
(356,189,o),
(363,194,o),
(369,200,cs),
(379,211,o),
(384,223,o),
(380,238,cs),
(379,244,o),
(381,247,o),
(385,250,c),
(397,256,o),
(408,264,o),
(418,273,cs),
(419,274,o),
(420,274,o),
(419,276,c),
(417,277,o),
(416,280,o),
(413,281,c),
(401,272,o),
(390,263,o),
(377,256,c),
(373,269,l),
(379,274,l),
(444,328,l),
(464,346,l),
(465,348,o),
(467,349,o),
(466,351,c),
(465,351,o),
(464,351,o),
(464,351,c),
(455,346,ls),
(424,326,o),
(395,303,o),
(366,279,c),
(363,284,l),
(362,290,o),
(364,292,o),
(368,295,c),
(383,303,o),
(395,314,o),
(407,326,c),
(409,327,o),
(412,329,o),
(410,333,c),
(405,332,o),
(405,332,o),
(403,330,c),
(390,321,o),
(377,310,o),
(366,299,cs),
(364,297,o),
(363,295,o),
(360,295,c),
(357,299,o),
(352,303,o),
(348,307,c),
(350,311,o),
(352,313,o),
(355,315,c),
(380,340,l),
(382,343,o),
(385,345,o),
(382,349,cs),
(379,352,o),
(376,350,o),
(373,348,cs),
(368,345,o),
(363,341,o),
(358,336,cs),
(333,311,l),
(310,325,l),
(320,336,o),
(328,346,o),
(329,350,c),
(319,346,o),
(313,337,o),
(305,331,c),
(286,336,l),
(309,366,l),
(308,370,o),
(307,373,o),
(304,376,c),
(274,339,l),
(250,347,o),
(235,343,o),
(219,324,cs),
(213,316,l),
(175,261,ls),
(172,257,o),
(169,252,o),
(171,248,c),
(172,241,o),
(169,237,o),
(165,233,cs),
(157,227,l),
(156,227,o),
(155,227,o),
(154,228,cs),
(142,238,o),
(130,235,o),
(119,227,c),
(115,225,o),
(112,221,o),
(109,218,cs),
(100,207,o),
(92,196,o),
(85,184,cs),
(75,169,o),
(75,167,o),
(90,155,c),
(64,124,ls),
(63,123,o),
(62,123,o),
(62,122,c),
(54,118,o),
(51,111,o),
(50,103,cs),
(48,81,o),
(55,63,o),
(73,50,cs),
(79,46,o),
(85,41,o),
(91,38,cs)
);
},
{
closed = 1;
nodes = (
(346,414,l),
(344,417,o),
(343,419,o),
(340,420,c),
(323,401,ls),
(318,395,o),
(317,390,o),
(322,383,c)
);
},
{
closed = 1;
nodes = (
(461,307,l),
(453,311,o),
(453,311,o),
(448,308,cs),
(429,293,l),
(431,290,o),
(432,287,o),
(436,287,c)
);
},
{
closed = 1;
nodes = (
(363,435,o),
(367,444,o),
(371,452,c),
(364,448,o),
(358,442,o),
(353,436,cs),
(351,433,o),
(354,431,o),
(356,428,c)
);
},
{
closed = 1;
nodes = (
(364,381,o),
(367,383,o),
(370,386,cs),
(422,438,l),
(426,444,o),
(431,450,o),
(434,456,c),
(427,455,o),
(423,451,o),
(419,447,cs),
(398,428,o),
(378,409,o),
(358,390,cs),
(357,389,o),
(356,387,o),
(355,386,cs),
(354,384,o),
(353,383,o),
(355,381,c),
(356,379,o),
(358,378,o),
(361,379,c)
);
},
{
closed = 1;
nodes = (
(507,344,ls),
(509,346,o),
(511,347,o),
(513,352,c),
(499,345,o),
(488,337,o),
(477,328,c),
(480,324,o),
(482,323,o),
(486,326,cs)
);
},
{
closed = 1;
nodes = (
(441,398,o),
(452,410,o),
(464,422,c),
(458,422,o),
(458,423,o),
(456,421,cs),
(445,411,o),
(434,401,o),
(427,389,c)
);
},
{
closed = 1;
nodes = (
(478,380,o),
(493,392,o),
(508,406,c),
(496,405,o),
(470,384,o),
(462,370,c)
);
}
);
width = 563;
}
);
note = dollar;
unicode = 36;
},
{
glyphname = percent;
lastChange = "2024-09-21 16:40:38 +0000";
layers = (
{
layerId = m01;
shapes = (
{
closed = 1;
nodes = (
(483,41,o),
(490,51,o),
(494,61,cs),
(499,73,o),
(507,75,o),
(517,74,cs),
(525,74,ls),
(533,73,o),
(540,70,o),
(548,68,c),
(548,74,o),
(546,79,o),
(542,82,cs),
(532,90,o),
(521,89,o),
(508,87,c),
(510,100,o),
(512,113,o),
(513,125,cs),
(515,170,o),
(495,204,o),
(453,221,cs),
(405,242,o),
(359,235,o),
(317,204,cs),
(314,202,o),
(311,199,o),
(308,198,c),
(304,199,o),
(302,202,o),
(299,204,c),
(289,215,o),
(281,227,o),
(276,240,cs),
(270,255,o),
(268,270,o),
(271,285,cs),
(276,313,o),
(288,336,o),
(309,354,cs),
(317,361,o),
(329,365,o),
(333,377,c),
(334,378,o),
(336,377,o),
(336,379,c),
(330,383,o),
(330,383,o),
(324,383,cs),
(303,381,o),
(283,378,o),
(263,371,cs),
(230,358,o),
(207,335,o),
(196,300,cs),
(192,288,o),
(189,275,o),
(188,262,cs),
(185,232,o),
(188,204,o),
(208,180,c),
(209,178,o),
(211,176,o),
(211,173,c),
(190,166,l),
(185,180,ls),
(181,192,o),
(175,202,o),
(166,211,cs),
(154,221,o),
(140,226,o),
(124,224,cs),
(109,222,o),
(95,216,o),
(82,206,cs),
(79,204,o),
(76,201,o),
(73,199,c),
(72,197,o),
(70,195,o),
(72,193,cs),
(74,190,o),
(76,191,o),
(78,192,cs),
(87,196,o),
(96,197,o),
(104,197,cs),
(125,199,o),
(136,192,o),
(143,173,cs),
(150,151,l),
(125,130,o),
(118,120,o),
(119,105,c),
(147,128,o),
(178,141,o),
(215,138,cs),
(253,134,o),
(280,114,o),
(300,82,c),
(305,92,o),
(305,101,o),
(305,110,cs),
(305,120,o),
(301,128,o),
(298,137,c),
(302,141,o),
(306,146,o),
(310,149,cs),
(340,175,o),
(374,190,o),
(415,182,cs),
(426,180,o),
(436,176,o),
(444,169,cs),
(456,160,o),
(464,148,o),
(470,134,cs),
(479,110,o),
(482,86,o),
(479,62,cs),
(474,31,l)
);
},
{
closed = 1;
nodes = (
(57,327,o),
(60,331,o),
(60,334,cs),
(60,337,o),
(58,338,o),
(55,338,cs),
(52,338,o),
(50,336,o),
(50,332,cs),
(50,330,o),
(51,328,o),
(54,328,c)
);
},
{
closed = 1;
nodes = (
(144,270,o),
(146,272,o),
(146,275,c),
(145,278,o),
(144,281,o),
(141,281,c),
(138,280,o),
(136,278,o),
(136,276,cs),
(136,272,o),
(138,270,o),
(141,270,cs)
);
},
{
closed = 1;
nodes = (
(138,308,o),
(139,310,o),
(139,313,cs),
(138,323,l),
(135,346,ls),
(134,356,o),
(138,363,o),
(147,368,cs),
(152,370,o),
(158,372,o),
(163,374,cs),
(166,375,o),
(170,376,o),
(169,380,cs),
(168,385,o),
(164,383,o),
(161,383,cs),
(157,382,l),
(134,377,ls),
(127,376,o),
(123,378,o),
(120,384,cs),
(118,390,o),
(115,395,o),
(116,401,cs),
(116,404,o),
(116,409,o),
(113,409,cs),
(108,410,o),
(108,415,o),
(103,418,c),
(102,410,o),
(104,405,o),
(106,399,c),
(106,396,o),
(109,392,o),
(108,388,cs),
(105,374,o),
(104,359,o),
(89,350,c),
(87,348,o),
(86,346,o),
(87,343,c),
(89,340,o),
(92,341,o),
(94,342,cs),
(98,343,o),
(100,346,o),
(103,348,cs),
(113,355,o),
(120,352,o),
(124,341,c),
(125,335,o),
(126,330,o),
(127,325,cs),
(130,312,ls),
(131,309,o),
(132,308,o),
(135,308,cs)
);
},
{
closed = 1;
nodes = (
(95,446,o),
(93,455,o),
(91,456,c),
(89,458,o),
(88,458,o),
(86,458,c),
(84,457,o),
(83,455,o),
(83,453,c),
(81,447,o),
(85,443,o),
(95,441,c)
);
},
{
closed = 1;
nodes = (
(195,378,o),
(198,381,o),
(198,384,cs),
(199,389,o),
(195,389,o),
(190,390,c),
(189,386,o),
(187,382,o),
(192,380,cs)
);
},
{
closed = 1;
nodes = (
(422,304,o),
(425,306,o),
(425,310,c),
(424,312,o),
(422,314,o),
(420,314,cs),
(415,314,o),
(410,309,o),
(411,306,cs),
(412,303,o),
(414,303,o),
(417,303,cs)
);
},
{
closed = 1;
nodes = (
(450,229,o),
(451,234,o),
(453,238,cs),
(455,241,ls),
(465,258,o),
(477,273,o),
(499,273,cs),
(501,273,o),
(504,274,o),
(504,276,c),
(505,279,o),
(504,281,o),
(502,282,c),
(492,291,o),
(491,302,o),
(492,314,cs),
(493,323,o),
(495,333,o),
(499,342,cs),
(500,345,o),
(502,348,o),
(497,353,c),
(489,344,o),
(484,333,o),
(476,325,cs),
(468,315,o),
(459,309,o),
(448,303,c),
(446,303,o),
(445,307,o),
(442,305,c),
(444,299,o),
(448,294,o),
(449,288,cs),
(452,272,o),
(451,257,o),
(444,242,cs),
(442,238,o),
(441,234,o),
(445,232,cs)
);
},
{
closed = 1;
nodes = (
(535,263,o),
(538,267,o),
(537,271,cs),
(537,273,o),
(536,275,o),
(533,275,cs),
(529,275,o),
(529,272,o),
(528,269,c),
(528,266,o),
(530,264,o),
(533,264,c)
);
},
{
closed = 1;
nodes = (
(512,364,o),
(517,365,o),
(518,372,cs),
(518,375,o),
(517,377,o),
(515,378,cs),
(512,379,o),
(510,379,o),
(509,377,cs),
(507,374,o),
(504,372,o),
(505,368,c)
);
}
);
width = 598;
}
);
note = percent;
unicode = 37;
},
{
glyphname = ampersand;
lastChange = "2024-09-21 16:40:38 +0000";
layers = (
{
layerId = m01;
shapes = (
{
closed = 1;
nodes = (
(402,30,o),
(404,35,o),
(405,41,cs),
(407,50,o),
(407,59,o),
(404,68,cs),
(400,86,o),
(396,103,o),
(393,121,cs),
(387,154,o),
(383,187,o),
(384,221,cs),
(386,246,o),
(393,269,o),
(412,287,cs),
(417,292,ls),
(436,313,o),
(457,333,o),
(480,350,cs),
(482,351,o),
(483,353,o),
(487,354,c),
(480,335,o),
(480,317,o),
(488,300,cs),
(497,281,o),
(494,262,o),
(485,244,cs),
(480,236,o),
(475,229,o),
(470,221,cs),
(466,213,o),
(470,206,o),
(478,206,cs),
(483,206,o),
(487,207,o),
(491,209,cs),
(558,235,o),
(589,291,o),
(586,357,cs),
(585,371,o),
(566,390,o),
(551,393,cs),
(537,396,o),
(523,395,o),
(511,384,cs),
(510,383,o),
(508,382,o),
(506,383,c),
(507,387,o),
(502,391,o),
(503,396,cs),
(505,407,o),
(501,412,o),
(489,415,cs),
(477,417,o),
(466,414,o),
(455,409,cs),
(442,402,o),
(431,393,o),
(420,383,cs),
(413,376,l),
(412,377,l),
(422,394,ls),
(434,412,o),
(447,431,o),
(455,452,cs),
(462,468,o),
(464,483,o),
(450,497,cs),
(442,505,o),
(434,506,o),
(425,504,cs),
(418,503,o),
(412,499,o),
(406,495,cs),
(389,483,o),
(374,470,o),
(359,455,cs),
(357,453,o),
(355,450,o),
(351,449,c),
(338,461,o),
(322,462,o),
(305,460,cs),
(294,458,o),
(283,455,o),
(274,450,cs),
(249,438,o),
(228,420,o),
(211,398,c),
(210,396,o),
(209,393,o),
(206,392,c),
(205,394,o),
(206,396,o),
(207,397,c),
(211,409,o),
(215,420,o),
(218,432,cs),
(221,443,o),
(222,454,o),
(221,465,cs),
(219,481,o),
(201,502,o),
(182,502,cs),
(171,501,o),
(160,501,o),
(149,498,cs),
(113,487,o),
(86,464,o),
(69,430,cs),
(58,410,o),
(52,387,o),
(51,364,cs),
(47,321,o),
(58,282,o),
(85,247,cs),
(94,235,o),
(105,226,o),
(119,220,cs),
(122,219,o),
(124,217,o),
(126,215,cs),
(137,207,o),
(148,201,o),
(161,199,cs),
(170,197,o),
(177,200,o),
(183,206,cs),
(185,208,o),
(186,211,o),
(189,211,c),
(190,209,o),
(190,206,o),
(190,204,cs),
(193,184,o),
(199,165,o),
(210,149,cs),
(214,143,o),
(219,139,o),
(225,137,cs),
(232,134,o),
(236,135,o),
(241,141,cs),
(245,146,o),
(247,152,o),
(249,159,cs),
(250,161,o),
(251,164,o),
(253,166,c),
(253,153,ls),
(254,141,o),
(256,129,o),
(259,117,cs),
(263,102,o),
(272,91,o),
(283,82,cs),
(295,73,o),
(307,77,o),
(312,90,cs),
(314,95,o),
(315,100,o),
(315,105,cs),
(317,125,l),
(320,121,o),
(320,118,o),
(321,115,cs),
(332,83,o),
(347,54,o),
(371,30,cs),
(379,22,o),
(388,20,o),
(396,26,cs)
);
},
{
closed = 1;
nodes = (
(453,-17,o),
(459,-15,o),
(463,-9,cs),
(465,-5,o),
(467,-1,o),
(467,4,c),
(469,15,l),
(480,11,o),
(490,6,o),
(501,4,c),
(501,3,o),
(501,3,o),
(501,2,c),
(498,-1,o),
(496,-5,o),
(500,-9,cs),
(504,-13,o),
(508,-12,o),
(513,-11,c),
(520,-8,o),
(524,-2,o),
(525,5,cs),
(525,14,o),
(529,21,o),
(534,27,cs),
(546,43,ls),
(551,49,o),
(554,56,o),
(557,64,cs),
(558,69,o),
(559,74,o),
(558,80,cs),
(556,88,o),
(550,94,o),
(543,94,c),
(544,91,o),
(547,88,o),
(548,85,c),
(551,80,o),
(552,76,o),
(550,70,cs),
(547,58,o),
(539,47,o),
(530,37,c),
(518,59,o),
(501,73,o),
(478,79,c),
(478,84,o),
(481,88,o),
(484,93,cs),
(496,109,ls),
(499,114,o),
(498,120,o),
(495,123,cs),
(491,126,o),
(487,125,o),
(484,121,c),
(477,115,o),
(469,116,o),
(462,116,c),
(459,118,o),
(460,121,o),
(459,123,cs),
(456,130,o),
(452,133,o),
(447,132,cs),
(442,132,o),
(439,127,o),
(439,120,cs),
(439,118,o),
(441,115,o),
(439,113,cs),
(436,111,o),
(432,109,o),
(428,109,c),
(425,113,o),
(425,120,o),
(420,124,c),
(419,118,o),
(424,113,o),
(422,107,c),
(417,112,o),
(416,118,o),
(409,123,c),
(411,113,o),
(419,107,o),
(421,98,c),
(416,99,o),
(414,104,o),
(410,105,c),
(413,99,o),
(418,97,o),
(420,92,c),
(418,89,o),
(429,83,o),
(433,71,cs),
(437,58,o),
(433,39,o),
(431,27,c),
(426,26,l),
(423,24,o),
(421,23,o),
(421,19,cs),
(421,14,o),
(424,13,o),
(427,12,cs),
(435,9,o),
(440,12,o),
(444,19,c),
(445,23,o),
(445,28,o),
(449,33,c),
(451,19,l),
(451,12,o),
(451,5,o),
(444,1,cs),
(440,-1,o),
(439,-4,o),
(440,-8,cs),
(441,-12,o),
(444,-14,o),
(448,-15,cs)
);
}
);
width = 636;
}
);
note = ampersand;
unicode = 38;
},
{
glyphname = parenleft;
lastChange = "2024-09-21 16:40:38 +0000";
layers = (
{
layerId = m01;
shapes = (
{
closed = 1;
nodes = (
(154,-34,o),
(161,-27,o),
(162,-17,cs),
(164,-1,o),
(169,14,o),
(173,29,cs),
(177,41,o),
(183,52,o),
(192,61,c),
(196,60,o),
(200,59,o),
(204,62,cs),
(210,66,o),
(214,71,o),
(215,78,cs),
(216,88,o),
(217,98,o),
(216,108,cs),
(216,125,o),
(223,138,o),
(234,149,cs),
(243,157,o),
(254,154,o),
(261,144,cs),
(267,135,o),
(272,126,o),
(275,115,cs),
(275,114,o),
(275,113,o),
(275,112,c),
(272,110,ls),
(270,109,o),
(269,108,o),
(269,106,c),
(265,105,l),
(267,99,l),
(268,88,o),
(271,76,o),
(275,65,c),
(277,62,o),
(279,59,o),
(282,58,cs),
(288,57,o),
(288,52,o),
(289,48,c),
(289,42,o),
(287,38,o),
(284,33,cs),
(276,21,ls),
(271,14,o),
(272,7,o),
(277,0,cs),
(283,-7,o),
(290,-13,o),
(298,-18,cs),
(302,-21,o),
(307,-22,o),
(311,-19,c),
(330,-10,ls),
(334,-8,o),
(336,-6,o),
(335,-2,cs),
(330,18,o),
(325,38,o),
(318,58,c),
(331,68,o),
(331,82,o),
(330,96,cs),
(329,105,o),
(327,112,o),
(318,115,c),
(316,130,o),
(313,145,o),
(309,160,cs),
(308,164,o),
(309,166,o),
(312,168,c),
(324,180,ls),
(329,186,o),
(329,188,o),
(324,195,cs),
(304,223,ls),
(299,230,o),
(295,238,o),
(294,247,cs),
(293,266,o),
(293,285,o),
(291,304,cs),
(291,305,o),
(292,305,o),
(292,306,c),
(307,313,o),
(323,319,o),
(341,321,c),
(341,314,o),
(347,314,o),
(352,313,c),
(350,293,l),
(338,290,o),
(339,290,o),
(337,279,cs),
(336,272,o),
(336,266,o),
(335,259,c),
(328,255,ls),
(319,249,o),
(318,245,o),
(324,237,cs),
(331,229,o),
(335,220,o),
(339,211,cs),
(341,204,l),
(345,198,o),
(347,197,o),
(354,199,cs),
(359,200,o),
(364,202,o),
(369,202,c),
(373,203,o),
(377,205,o),
(379,210,c),
(382,201,o),
(387,193,o),
(388,184,cs),
(391,155,o),
(389,126,o),
(382,98,cs),
(379,83,o),
(374,69,o),
(369,55,c),
(390,36,o),
(405,14,o),
(411,-14,c),
(414,-13,o),
(415,-10,o),
(416,-8,cs),
(425,9,o),
(431,28,o),
(434,47,cs),
(436,70,o),
(434,92,o),
(432,115,cs),
(428,146,o),
(422,177,o),
(410,206,c),
(409,210,o),
(407,213,o),
(408,217,c),
(411,218,o),
(413,219,o),
(415,215,cs),
(416,213,ls),
(420,205,o),
(425,205,o),
(430,212,cs),
(433,216,o),
(434,221,o),
(434,226,cs),
(435,232,o),
(432,237,o),
(425,238,c),
(420,240,o),
(415,241,o),
(409,240,cs),
(406,239,o),
(403,238,o),
(400,239,c),
(397,244,o),
(399,247,o),
(402,251,cs),
(404,254,o),
(407,257,o),
(407,261,cs),
(407,269,o),
(404,277,o),
(400,285,cs),
(398,290,o),
(393,291,o),
(388,292,c),
(388,305,ls),
(388,320,o),
(384,333,o),
(378,347,cs),
(376,351,o),
(373,353,o),
(368,355,cs),
(348,360,o),
(328,358,o),
(307,356,cs),
(306,356,o),
(304,355,o),
(303,354,c),
(300,358,l),
(303,364,o),
(300,369,o),
(297,375,c),
(303,382,o),
(311,388,o),
(309,398,c),
(314,399,o),
(318,399,o),
(322,399,cs),
(334,398,o),
(341,403,o),
(346,412,cs),
(353,424,o),
(356,437,o),
(358,450,cs),
(358,454,o),
(358,457,o),
(355,461,c),
(347,454,o),
(340,446,o),
(329,443,c),
(324,448,o),
(318,451,o),
(312,454,c),
(310,464,l),
(321,472,o),
(323,480,o),
(315,489,cs),
(303,503,o),
(287,513,o),
(271,523,cs),
(270,524,o),
(268,524,o),
(266,523,c),
(264,521,o),
(264,519,o),
(265,517,cs),
(266,513,o),
(267,509,o),
(268,505,cs),
(269,496,o),
(264,491,o),
(256,491,cs),
(242,490,o),
(235,498,o),
(237,511,cs),
(238,515,o),
(240,518,o),
(238,523,c),
(218,514,o),
(201,503,o),
(185,488,cs),
(178,480,ls),
(176,478,o),
(175,476,o),
(175,473,c),
(169,465,l),
(168,467,o),
(168,468,o),
(167,471,c),
(167,477,o),
(168,483,o),
(168,489,cs),
(168,491,o),
(169,494,o),
(166,496,c),
(165,496,o),
(164,496,o),
(164,495,c),
(152,479,o),
(141,462,o),
(132,444,c),
(124,450,o),
(116,451,o),
(107,448,c),
(101,456,ls),
(97,461,o),
(93,465,o),
(87,467,cs),
(79,470,o),
(70,466,o),
(67,458,cs),
(66,454,o),
(67,451,o),
(70,448,cs),
(72,446,o),
(74,446,o),
(77,446,c),
(79,447,o),
(79,450,o),
(80,452,c),
(80,455,o),
(78,458,o),
(80,461,c),
(88,461,o),
(93,457,o),
(98,449,cs),
(102,444,o),
(100,440,o),
(98,435,cs),
(96,431,o),
(95,427,o),
(95,422,cs),
(94,415,o),
(95,408,o),
(95,401,c),
(92,398,o),
(87,396,o),
(84,393,c),
(82,392,o),
(80,390,o),
(80,388,c),
(82,382,o),
(83,374,o),
(90,370,c),
(94,376,o),
(94,383,o),
(99,387,c),
(105,390,o),
(110,389,o),
(116,386,c),
(111,378,o),
(106,370,o),
(102,361,cs),
(99,355,o),
(97,349,o),
(97,342,cs),
(97,335,o),
(100,331,o),
(107,329,cs),
(111,328,o),
(115,328,o),
(119,328,cs),
(124,328,o),
(129,329,o),
(134,328,c),
(132,324,o),
(129,321,o),
(129,316,cs),
(130,311,o),
(134,309,o),
(137,306,c),
(134,302,o),
(129,300,o),
(127,295,c),
(130,288,o),
(137,284,o),
(141,278,c),
(134,272,o),
(126,267,o),
(118,262,cs),
(112,258,o),
(106,254,o),
(101,250,cs),
(93,242,o),
(93,239,o),
(101,232,cs),
(109,226,o),
(117,222,o),
(126,218,cs),
(147,208,l),
(143,200,o),
(144,194,o),
(151,190,c),
(150,187,o),
(150,183,o),
(148,181,c),
(139,181,o),
(137,179,o),
(136,174,cs),
(134,169,o),
(136,165,o),
(141,162,cs),
(145,160,ls),
(151,157,o),
(157,155,o),
(163,151,cs),
(168,148,o),
(171,149,o),
(175,154,cs),
(177,157,o),
(179,161,o),
(183,163,c),
(185,154,o),
(180,148,o),
(179,141,c),
(171,142,o),
(164,142,o),
(157,141,cs),
(151,140,o),
(147,138,o),
(145,132,cs),
(140,117,ls),
(139,113,o),
(136,109,o),
(137,105,cs),
(138,97,ls),
(139,92,o),
(141,89,o),
(143,86,cs),
(145,84,o),
(146,82,o),
(145,80,cs),
(141,68,o),
(135,58,o),
(127,48,c),
(123,58,ls),
(121,65,o),
(119,71,o),
(115,76,cs),
(106,86,o),
(93,89,o),
(81,80,c),
(76,80,l),
(68,74,ls),
(66,73,o),
(64,72,o),
(63,71,cs),
(49,58,o),
(46,35,o),
(56,17,cs),
(62,6,o),
(70,-2,o),
(81,-7,cs),
(92,-12,o),
(102,-19,o),
(113,-26,cs),
(122,-32,o),
(132,-35,o),
(143,-34,cs)
);
}
);
width = 485;
}
);
note = parenleft;
unicode = 40;
},
{
glyphname = parenright;
lastChange = "2024-09-21 16:41:16 +0000";
layers = (
{
layerId = m01;
shapes = (
{
closed = 1;
nodes = (
(219,-22,o),
(265,-21,o),
(310,-9,cs),
(346,1,o),
(371,24,o),
(387,58,cs),
(395,77,o),
(399,97,o),
(400,118,cs),
(400,137,o),
(398,156,o),
(393,175,cs),
(391,180,o),
(392,183,o),
(396,187,cs),
(401,193,o),
(406,200,o),
(411,207,cs),
(415,211,o),
(418,216,o),
(420,221,cs),
(427,240,o),
(419,258,o),
(400,265,cs),
(393,268,o),
(385,269,o),
(378,269,cs),
(375,269,o),
(372,268,o),
(369,270,c),
(375,278,o),
(378,287,o),
(377,297,cs),
(377,300,o),
(376,303,o),
(375,306,c),
(376,309,o),
(378,311,o),
(382,314,c),
(382,313,o),
(382,312,o),
(383,312,c),
(385,308,o),
(390,307,o),
(395,308,cs),
(410,313,o),
(419,332,o),
(412,347,c),
(409,351,o),
(406,354,o),
(401,355,c),
(407,364,o),
(396,379,o),
(386,382,c),
(390,384,o),
(391,387,o),
(391,391,c),
(393,398,o),
(394,408,o),
(391,413,cs),
(390,415,l),
(389,425,o),
(384,428,o),
(375,426,c),
(382,458,o),
(364,464,o),
(352,466,c),
(351,467,ls),
(349,468,o),
(348,471,o),
(345,470,c),
(343,476,o),
(343,484,o),
(341,492,c),
(340,494,o),
(339,496,o),
(337,497,c),
(337,499,o),
(337,500,o),
(336,502,cs),
(333,509,o),
(324,510,o),
(320,505,cs),
(318,503,o),
(317,500,o),
(317,498,c),
(316,497,l),
(310,494,o),
(313,481,o),
(322,476,c),
(311,471,l),
(307,478,o),
(303,486,o),
(302,495,cs),
(302,497,o),
(300,498,o),
(298,498,cs),
(296,498,o),
(295,496,o),
(295,494,cs),
(294,486,o),
(291,480,o),
(287,474,c),
(279,474,o),
(267,483,o),
(256,469,c),
(255,482,o),
(251,494,o),
(247,499,cs),
(244,503,o),
(241,505,o),
(236,505,cs),
(215,507,o),
(204,490,o),
(201,472,c),
(201,472,o),
(194,483,o),
(181,482,cs),
(170,481,o),
(168,464,o),
(168,458,c),
(162,463,o),
(158,469,o),
(153,475,c),
(152,468,o),
(151,462,o),
(147,457,c),
(145,456,o),
(145,454,o),
(145,453,c),
(142,452,o),
(137,451,o),
(133,451,cs),
(129,451,o),
(125,454,o),
(121,460,c),
(121,466,o),
(121,472,o),
(121,478,cs),
(121,482,o),
(122,487,o),
(125,491,cs),
(129,496,o),
(135,497,o),
(138,492,c),
(142,488,o),
(141,481,o),
(137,476,c),
(136,479,o),
(140,483,o),
(137,487,c),
(134,483,o),
(133,479,o),
(133,475,cs),
(133,472,o),
(133,470,o),
(136,469,cs),
(138,468,o),
(141,470,o),
(142,472,cs),
(145,477,o),
(146,482,o),
(145,488,cs),
(143,494,o),
(140,499,o),
(134,500,cs),
(129,501,o),
(123,497,o),
(120,491,cs),
(117,486,o),
(116,480,o),
(116,474,c),
(108,463,o),
(113,435,o),
(116,423,c),
(111,429,o),
(107,435,o),
(103,442,cs),
(102,444,o),
(100,447,o),
(96,445,c),
(97,433,o),
(98,421,o),
(90,409,c),
(93,406,o),
(96,403,o),
(99,401,c),
(97,398,o),
(96,390,o),
(95,384,c),
(92,384,o),
(88,384,o),
(84,383,cs),
(68,380,o),
(57,368,o),
(55,352,cs),
(53,340,o),
(59,326,o),
(69,321,cs),
(75,318,o),
(79,318,o),
(82,321,c),
(84,325,o),
(84,332,o),
(82,338,c),
(84,341,o),
(87,346,o),
(92,345,c),
(92,342,o),
(94,339,o),
(96,336,cs),
(99,332,o),
(103,328,o),
(106,324,cs),
(111,319,o),
(114,312,o),
(114,305,c),
(103,297,o),
(98,286,o),
(100,271,c),
(79,271,ls),
(70,271,o),
(62,267,o),
(57,259,cs),
(46,243,o),
(48,224,o),
(62,210,cs),
(84,189,ls),
(89,184,o),
(89,180,o),
(87,174,cs),
(79,148,o),
(75,122,o),
(79,95,cs),
(86,41,o),
(121,1,o),
(174,-12,cs)
);
},
{
closed = 1;
nodes = (
(92,220,o),
(89,225,o),
(89,234,c),
(97,238,o),
(105,234,o),
(113,234,c),
(114,229,o),
(110,226,o),
(108,222,cs),
(101,210,l)
);
},
{
closed = 1;
nodes = (
(74,383,o),
(77,385,o),
(77,389,cs),
(77,393,o),
(74,394,o),
(71,394,cs),
(67,395,o),
(66,392,o),
(66,389,cs),
(65,385,o),
(68,382,o),
(71,383,c)
);
},
{
closed = 1;
nodes = (
(89,463,o),
(90,465,o),
(90,467,cs),
(90,469,o),
(89,471,o),
(87,471,cs),
(85,471,o),
(84,469,o),
(83,467,c),
(83,465,o),
(84,464,o),
(87,463,c)
);
},
{
closed = 1;
nodes = (
(371,232,l),
(381,233,o),
(390,232,o),
(398,230,c),
(398,221,o),
(395,217,o),
(382,208,c)
);
}
);
width = 472;
}
);
note = parenright;
unicode = 41;
},
{
glyphname = asterisk;
lastChange = "2024-09-21 16:40:38 +0000";
layers = (
{
layerId = m01;
shapes = (
{
closed = 1;
nodes = (
(233,68,o),
(260,88,o),
(276,124,cs),
(284,144,o),
(287,165,o),
(285,187,cs),
(285,191,o),
(285,194,o),
(286,198,cs),
(291,215,o),
(299,231,o),
(311,244,cs),
(328,262,o),
(348,271,o),
(372,270,cs),
(387,269,ls),
(398,268,o),
(408,268,o),
(418,270,cs),
(439,274,o),
(455,285,o),
(463,307,cs),
(467,320,o),
(463,330,o),
(452,338,c),
(448,342,o),
(443,344,o),
(438,347,cs),
(422,356,o),
(420,366,o),
(431,381,c),
(436,386,o),
(441,391,o),
(447,395,cs),
(454,400,o),
(462,405,o),
(471,408,cs),
(496,418,ls),
(501,420,o),
(505,421,o),
(509,426,c),
(499,427,o),
(490,424,o),
(481,423,cs),
(460,421,o),
(439,417,o),
(419,409,cs),
(411,405,o),
(404,401,o),
(398,394,cs),
(388,385,o),
(386,372,o),
(392,360,cs),
(395,352,o),
(400,346,o),
(406,341,cs),
(421,328,ls),
(427,323,o),
(431,316,o),
(433,309,cs),
(436,298,o),
(432,292,o),
(420,289,cs),
(411,286,o),
(401,289,o),
(392,292,cs),
(361,302,ls),
(343,307,o),
(325,306,o),
(308,298,cs),
(291,290,o),
(278,278,o),
(267,263,cs),
(266,262,o),
(265,259,o),
(263,258,c),
(262,259,o),
(261,259,o),
(261,260,c),
(241,288,o),
(213,298,o),
(180,299,cs),
(161,299,o),
(139,295,o),
(125,291,cs),
(90,282,o),
(59,255,o),
(53,224,cs),
(49,203,o),
(49,181,o),
(52,159,cs),
(59,118,o),
(82,89,o),
(121,74,cs),
(145,65,o),
(169,61,o),
(194,64,cs)
);
}
);
width = 559;
}
);
note = asterisk;
unicode = 42;
},
{
glyphname = zero;
lastChange = "2024-09-21 16:40:38 +0000";
layers = (
{
layerId = m01;
shapes = (
{
closed = 1;
nodes = (
(219,-19,o),
(265,-17,o),
(310,-5,cs),
(346,5,o),
(371,28,o),
(387,62,cs),
(395,81,o),
(399,101,o),
(400,122,cs),
(400,141,o),
(398,160,o),
(393,179,cs),
(391,184,o),
(392,187,o),
(396,191,cs),
(401,197,o),
(406,204,o),
(411,210,cs),
(415,215,o),
(418,220,o),
(420,225,cs),
(427,244,o),
(419,262,o),
(400,269,cs),
(393,272,o),
(385,273,o),
(378,273,cs),
(375,273,o),
(372,272,o),
(369,274,c),
(375,282,o),
(378,291,o),
(377,301,cs),
(376,312,o),
(370,318,o),
(360,322,c),
(366,338,o),
(367,354,o),
(366,370,cs),
(363,391,ls),
(362,401,o),
(364,410,o),
(370,418,c),
(372,422,o),
(375,425,o),
(376,430,c),
(375,430,o),
(375,430,o),
(375,430,c),
(364,420,o),
(356,408,o),
(359,392,cs),
(361,377,ls),
(364,355,o),
(358,336,o),
(348,318,c),
(339,316,o),
(342,323,o),
(340,325,c),
(335,328,o),
(330,326,o),
(325,328,c),
(327,336,o),
(327,337,o),
(336,342,cs),
(349,351,o),
(351,364,o),
(353,377,cs),
(353,378,o),
(352,378,o),
(351,379,c),
(347,375,o),
(345,369,o),
(343,364,cs),
(342,359,o),
(340,355,o),
(336,352,cs),
(329,347,o),
(323,342,o),
(320,334,c),
(314,338,o),
(309,341,o),
(303,342,cs),
(297,343,o),
(291,339,o),
(285,339,c),
(288,351,ls),
(289,357,o),
(289,363,o),
(286,369,cs),
(283,375,o),
(283,380,o),
(285,386,cs),
(286,389,o),
(288,392,o),
(286,396,c),
(278,387,o),
(275,378,o),
(278,368,cs),
(279,363,o),
(279,359,o),
(279,354,cs),
(278,348,o),
(277,341,o),
(278,334,c),
(271,334,o),
(268,337,o),
(265,341,cs),
(263,345,o),
(263,350,o),
(263,354,cs),
(263,371,l),
(259,364,o),
(259,358,o),
(259,351,cs),
(258,345,o),
(262,340,o),
(262,333,c),
(259,340,o),
(254,344,o),
(249,347,c),
(247,356,o),
(251,363,o),
(255,369,cs),
(262,378,o),
(262,389,o),
(256,397,c),
(253,393,o),
(254,389,o),
(254,385,cs),
(254,382,o),
(254,378,o),
(251,375,cs),
(244,367,o),
(241,359,o),
(241,348,c),
(233,348,o),
(226,347,o),
(219,345,c),
(216,355,o),
(214,365,o),
(217,374,cs),
(223,389,o),
(226,406,o),
(236,419,c),
(232,426,o),
(226,430,o),
(221,436,cs),
(216,441,o),
(215,449,o),
(211,456,c),
(206,455,o),
(206,452,o),
(206,449,cs),
(205,435,o),
(198,425,o),
(187,416,cs),
(185,414,o),
(182,412,o),
(181,408,c),
(184,401,o),
(194,402,o),
(198,396,cs),
(203,390,o),
(206,383,o),
(211,377,c),
(209,365,o),
(208,353,o),
(213,341,c),
(210,336,o),
(202,332,o),
(207,325,c),
(211,325,o),
(211,327,o),
(213,329,cs),
(220,339,o),
(231,341,o),
(243,340,cs),
(248,340,o),
(253,338,o),
(254,331,c),
(238,329,o),
(226,326,o),
(219,320,c),
(214,323,o),
(208,325,o),
(201,320,cs),
(195,317,o),
(193,311,o),
(191,304,c),
(185,304,o),
(180,301,o),
(175,298,c),
(171,300,o),
(167,304,o),
(163,301,c),
(165,297,o),
(170,298,o),
(171,293,c),
(170,290,o),
(169,286,o),
(166,282,c),
(160,284,o),
(154,287,o),
(148,291,cs),
(145,293,o),
(143,295,o),
(145,299,cs),
(148,306,o),
(157,311,o),
(165,309,cs),
(168,308,o),
(172,307,o),
(176,308,c),
(174,320,o),
(181,325,o),
(192,330,c),
(186,331,ls),
(178,331,o),
(176,333,o),
(177,341,cs),
(178,345,o),
(179,348,o),
(180,351,cs),
(186,364,o),
(183,376,o),
(182,388,cs),
(182,389,o),
(181,390,o),
(180,391,c),
(175,385,o),
(176,378,o),
(176,372,c),
(177,368,o),
(177,363,o),
(174,359,c),
(170,363,o),
(169,367,o),
(166,371,cs),
(163,375,o),
(164,382,o),
(156,383,c),
(157,373,o),
(156,364,o),
(150,356,c),
(157,350,o),
(159,341,o),
(165,333,c),
(167,345,o),
(161,352,o),
(156,358,c),
(157,361,o),
(157,363,o),
(160,365,c),
(163,360,o),
(167,355,o),
(171,351,c),
(168,341,o),
(167,332,o),
(175,325,c),
(170,313,l),
(164,317,o),
(157,316,o),
(151,315,c),
(148,329,l),
(148,334,o),
(145,339,o),
(141,342,cs),
(135,346,o),
(133,352,o),
(133,358,cs),
(133,364,o),
(131,369,o),
(128,373,cs),
(125,377,o),
(122,381,o),
(122,386,cs),
(121,396,o),
(119,406,o),
(121,417,cs),
(121,419,o),
(122,422,o),
(119,424,cs),
(112,430,o),
(107,438,o),
(103,446,cs),
(102,448,o),
(100,451,o),
(96,449,c),
(97,437,o),
(97,424,o),
(90,412,c),
(99,406,o),
(105,397,o),
(116,392,c),
(113,379,o),
(120,370,o),
(129,363,c),
(125,352,o),
(125,342,o),
(135,334,cs),
(139,330,o),
(140,324,o),
(141,318,c),
(138,316,ls),
(124,305,o),
(122,296,o),
(132,282,c),
(135,279,o),
(137,277,o),
(141,275,c),
(146,271,o),
(151,269,o),
(157,266,cs),
(160,265,o),
(163,264,o),
(165,260,c),
(164,260,o),
(164,259,o),
(163,259,cs),
(137,259,o),
(117,281,o),
(121,307,cs),
(124,321,o),
(120,331,o),
(110,339,cs),
(105,343,o),
(100,348,o),
(97,354,c),
(96,355,o),
(96,358,o),
(93,357,c),
(90,351,o),
(92,345,o),
(96,340,cs),
(99,336,o),
(103,332,o),
(106,328,cs),
(111,322,o),
(114,316,o),
(114,309,c),
(103,301,o),
(98,290,o),
(100,275,c),
(79,275,ls),
(70,274,o),
(62,271,o),
(57,263,cs),
(46,247,o),
(48,228,o),
(62,214,cs),
(84,193,ls),
(89,188,o),
(89,184,o),
(87,178,cs),
(79,152,o),
(75,126,o),
(79,98,cs),
(86,45,o),
(121,4,o),
(174,-8,cs)
);
},
{
closed = 1;
nodes = (
(194,109,o),
(199,109,o),
(204,113,cs),
(212,118,o),
(214,131,o),
(210,139,c),
(207,138,o),
(207,136,o),
(206,133,cs),
(205,130,o),
(204,127,o),
(203,124,cs),
(199,116,o),
(191,115,o),
(185,122,cs),
(183,124,o),
(183,128,o),
(180,129,c),
(180,122,o),
(183,116,o),
(188,112,c)
);
},
{
closed = 1;
nodes = (
(67,225,o),
(62,230,o),
(59,237,cs),
(54,248,o),
(64,265,o),
(76,267,cs),
(86,269,o),
(95,268,o),
(104,267,cs),
(109,266,o),
(111,262,o),
(113,258,c),
(106,258,o),
(99,260,o),
(92,260,cs),
(75,259,o),
(69,251,o),
(72,235,cs),
(73,230,o),
(73,226,o),
(73,219,c)
);
},
{
closed = 1;
nodes = (
(92,224,o),
(89,229,o),
(89,238,c),
(97,242,o),
(105,238,o),
(113,238,c),
(114,233,o),
(110,230,o),
(108,226,cs),
(101,213,l)
);
},
{
closed = 1;
nodes = (
(236,1,o),
(204,3,o),
(174,16,cs),
(132,34,o),
(106,67,o),
(100,113,cs),
(97,140,o),
(99,167,o),
(106,193,c),
(107,195,o),
(107,197,o),
(109,198,c),
(110,196,o),
(110,193,o),
(109,191,c),
(102,164,o),
(103,136,o),
(109,108,cs),
(120,59,o),
(151,28,o),
(201,17,cs),
(238,9,o),
(274,16,o),
(308,32,cs),
(323,40,o),
(336,51,o),
(346,64,cs),
(359,79,o),
(365,97,o),
(365,117,cs),
(365,126,o),
(365,134,o),
(366,143,cs),
(366,145,o),
(365,147,o),
(368,150,c),
(380,106,o),
(371,70,o),
(337,41,cs),
(317,23,o),
(294,14,o),
(268,8,cs)
);
},
{
closed = 1;
nodes = (
(133,250,o),
(110,271,o),
(113,288,c),
(121,266,o),
(138,256,o),
(159,246,c)
);
},
{
closed = 1;
nodes = (
(195,103,o),
(188,106,o),
(183,110,cs),
(178,114,o),
(175,120,o),
(173,125,cs),
(166,143,o),
(169,172,o),
(189,186,c),
(185,190,o),
(181,195,o),
(180,200,c),
(178,202,o),
(177,200,o),
(175,200,c),
(172,199,o),
(169,201,o),
(168,204,cs),
(166,208,o),
(166,211,o),
(169,214,cs),
(170,215,o),
(171,216,o),
(172,216,cs),
(183,217,o),
(187,226,o),
(194,233,c),
(188,237,o),
(185,243,o),
(185,251,cs),
(185,254,o),
(183,255,o),
(181,257,cs),
(171,265,o),
(169,274,o),
(174,285,cs),
(177,291,o),
(180,296,o),
(187,296,cs),
(195,297,o),
(201,294,o),
(205,288,cs),
(207,284,o),
(209,280,o),
(214,279,c),
(217,281,o),
(219,284,o),
(222,286,cs),
(228,290,o),
(234,287,o),
(235,281,cs),
(235,277,o),
(237,275,o),
(240,273,c),
(238,272,o),
(237,272,o),
(236,272,cs),
(235,272,o),
(234,272,o),
(233,272,c),
(231,274,o),
(231,275,o),
(231,276,cs),
(231,279,o),
(232,282,o),
(229,283,cs),
(225,285,o),
(223,282,o),
(221,280,cs),
(219,278,o),
(217,277,o),
(216,275,cs),
(214,270,o),
(210,268,o),
(205,266,c),
(205,257,o),
(213,248,o),
(208,239,c),
(209,238,o),
(209,237,o),
(209,237,c),
(222,234,o),
(227,226,o),
(228,214,cs),
(229,202,o),
(225,191,o),
(213,184,cs),
(211,183,o),
(208,183,o),
(206,180,cs),
(201,175,o),
(200,167,o),
(204,161,cs),
(211,150,ls),
(215,145,o),
(218,138,o),
(219,131,cs),
(220,120,o),
(213,107,o),
(202,105,cs)
);
},
{
closed = 1;
nodes = (
(200,186,o),
(211,187,o),
(218,193,cs),
(224,198,o),
(225,207,o),
(221,213,c),
(217,211,o),
(218,207,o),
(216,205,c),
(213,197,o),
(208,194,o),
(202,196,cs),
(196,197,o),
(192,203,o),
(193,211,cs),
(193,213,o),
(195,215,o),
(193,219,c),
(186,209,o),
(186,199,o),
(194,192,cs)
);
},
{
closed = 1;
nodes = (
(75,321,o),
(79,322,o),
(82,325,c),
(86,331,o),
(82,349,o),
(75,353,cs),
(73,354,o),
(71,354,o),
(69,353,c),
(67,351,o),
(67,349,o),
(68,347,c),
(68,346,o),
(69,344,o),
(70,344,cs),
(73,344,o),
(70,348,o),
(74,348,c),
(81,343,o),
(80,335,o),
(78,327,c),
(74,327,o),
(71,329,o),
(69,331,cs),
(62,339,o),
(58,348,o),
(61,358,cs),
(64,371,o),
(73,379,o),
(85,382,cs),
(96,386,o),
(103,382,o),
(108,371,cs),
(109,368,o),
(109,364,o),
(112,361,c),
(114,380,o),
(101,391,o),
(84,387,cs),
(68,383,o),
(57,372,o),
(55,356,cs),
(53,344,o),
(59,330,o),
(69,324,cs)
);
},
{
closed = 1;
nodes = (
(302,151,o),
(306,154,o),
(306,161,c),
(305,162,o),
(303,161,o),
(302,160,cs),
(300,159,o),
(299,158,o),
(297,158,c),
(291,156,o),
(288,158,o),
(287,164,cs),
(287,166,o),
(289,169,o),
(287,170,c),
(282,167,o),
(280,161,o),
(282,156,cs),
(284,151,o),
(289,149,o),
(295,150,cs)
);
},
{
closed = 1;
nodes = (
(74,387,o),
(77,389,o),
(77,393,cs),
(77,397,o),
(74,398,o),
(71,398,cs),
(67,398,o),
(66,396,o),
(66,393,cs),
(65,389,o),
(68,386,o),
(71,387,c)
);
},
{
closed = 1;
nodes = (
(280,126,o),
(274,132,o),
(273,136,cs),
(272,142,o),
(276,144,o),
(281,145,c),
(281,148,o),
(279,149,o),
(278,150,c),
(272,160,o),
(272,168,o),
(279,178,cs),
(283,183,o),
(289,188,o),
(294,192,c),
(297,193,o),
(300,195,o),
(298,199,c),
(296,200,o),
(294,199,o),
(292,198,c),
(277,197,o),
(265,211,o),
(270,226,cs),
(271,230,o),
(273,234,o),
(276,237,cs),
(281,242,o),
(286,248,o),
(294,246,cs),
(302,243,o),
(309,237,o),
(310,227,cs),
(311,222,o),
(310,218,o),
(310,213,cs),
(310,211,o),
(312,211,o),
(313,210,cs),
(317,206,o),
(318,203,o),
(315,198,c),
(314,195,o),
(311,193,o),
(309,191,cs),
(304,185,o),
(303,183,o),
(309,178,cs),
(316,171,o),
(318,162,o),
(315,153,cs),
(312,144,o),
(306,139,o),
(296,140,c),
(293,133,o),
(292,125,o),
(283,126,cs)
);
},
{
closed = 1;
nodes = (
(227,241,o),
(228,242,o),
(231,242,cs),
(259,242,l),
(260,239,o),
(260,237,o),
(257,237,cs),
(248,236,o),
(238,235,o),
(228,236,c)
);
},
{
closed = 1;
nodes = (
(222,255,o),
(220,257,o),
(216,262,c),
(221,264,o),
(238,265,o),
(254,262,c),
(258,262,o),
(264,262,o),
(269,257,c),
(257,251,o),
(246,253,o),
(235,254,cs)
);
},
{
closed = 1;
nodes = (
(305,213,o),
(306,223,o),
(301,230,c),
(298,227,o),
(298,223,o),
(297,221,cs),
(295,215,o),
(291,213,o),
(286,214,cs),
(281,216,o),
(280,219,o),
(281,225,c),
(282,227,o),
(284,229,o),
(283,232,c),
(274,225,o),
(272,217,o),
(277,211,cs),
(282,205,o),
(293,203,o),
(299,208,cs)
);
},
{
closed = 1;
nodes = (
(101,417,l),
(102,420,o),
(102,423,o),
(103,426,c),
(114,419,o),
(114,421,o),
(113,403,c)
);
},
{
closed = 1;
nodes = (
(260,286,o),
(265,284,o),
(269,286,c),
(264,289,o),
(260,288,o),
(257,284,c)
);
},
{
closed = 1;
nodes = (
(292,248,o),
(287,252,o),
(286,258,cs),
(285,261,o),
(287,264,o),
(287,267,c),
(284,268,o),
(281,266,o),
(278,266,c),
(278,275,o),
(285,282,o),
(293,282,c),
(297,281,o),
(302,279,o),
(302,275,cs),
(301,270,o),
(304,266,o),
(305,261,c),
(306,259,l),
(306,254,o),
(301,248,o),
(296,248,cs)
);
},
{
closed = 1;
nodes = (
(89,467,o),
(90,468,o),
(90,471,cs),
(90,473,o),
(89,474,o),
(87,474,c),
(85,475,o),
(84,473,o),
(83,471,c),
(83,469,o),
(84,468,o),
(87,467,c)
);
},
{
closed = 1;
nodes = (
(262,301,o),
(260,305,o),
(258,305,c),
(250,308,l),
(246,321,o),
(242,322,o),
(226,313,c),
(236,325,o),
(245,325,o),
(252,314,cs),
(253,312,o),
(254,311,o),
(256,310,cs),
(262,307,o),
(261,307,o),
(265,303,c)
);
},
{
closed = 1;
nodes = (
(164,398,o),
(166,400,o),
(166,402,cs),
(166,405,o),
(165,406,o),
(163,406,c),
(160,407,o),
(158,406,o),
(158,402,cs),
(158,400,o),
(159,398,o),
(161,398,cs)
);
},
{
closed = 1;
nodes = (
(306,280,l),
(298,290,o),
(290,291,o),
(280,284,cs),
(274,280,o),
(268,278,o),
(262,278,cs),
(257,277,o),
(251,278,o),
(245,279,c),
(243,285,o),
(240,292,o),
(232,294,cs),
(225,295,o),
(220,290,o),
(214,286,c),
(209,292,o),
(206,300,o),
(198,303,c),
(199,309,o),
(203,314,o),
(209,315,cs),
(214,316,o),
(218,314,o),
(219,309,c),
(216,304,o),
(209,300,o),
(214,292,c),
(220,298,o),
(224,307,o),
(234,305,cs),
(243,303,o),
(246,295,o),
(247,286,c),
(254,288,o),
(258,293,o),
(264,294,cs),
(270,296,o),
(276,295,o),
(281,289,c),
(282,296,o),
(276,297,o),
(273,301,c),
(277,308,o),
(281,316,o),
(291,317,cs),
(298,317,o),
(304,312,o),
(308,302,c),
(317,304,ls),
(320,305,o),
(322,305,o),
(325,305,cs),
(329,305,o),
(334,304,o),
(335,299,cs),
(337,294,o),
(334,290,o),
(330,288,cs),
(323,283,o),
(316,279,o),
(307,277,c)
);
},
{
closed = 1;
nodes = (
(141,391,o),
(141,392,o),
(141,393,cs),
(139,406,o),
(136,419,o),
(130,432,cs),
(123,448,o),
(120,464,o),
(121,481,cs),
(121,486,o),
(122,491,o),
(125,495,cs),
(129,500,o),
(135,500,o),
(138,496,cs),
(142,492,o),
(141,484,o),
(137,479,c),
(136,483,o),
(140,487,o),
(137,491,c),
(134,487,o),
(133,483,o),
(133,479,cs),
(133,476,o),
(133,474,o),
(136,473,cs),
(138,472,o),
(141,473,o),
(142,476,c),
(145,481,o),
(146,486,o),
(145,491,cs),
(143,498,o),
(140,502,o),
(134,503,cs),
(129,504,o),
(123,501,o),
(120,495,cs),
(117,490,o),
(116,484,o),
(116,478,cs),
(115,463,o),
(118,448,o),
(124,435,cs),
(129,422,o),
(134,410,o),
(136,396,c),
(137,394,o),
(137,391,o),
(140,389,c)
);
},
{
closed = 1;
nodes = (
(268,311,o),
(266,313,o),
(263,314,c),
(261,318,o),
(262,321,o),
(263,325,c),
(270,328,o),
(277,327,o),
(283,321,c),
(279,317,o),
(274,315,o),
(272,311,c)
);
},
{
closed = 1;
nodes = (
(286,308,o),
(293,310,o),
(300,305,c),
(298,310,o),
(294,312,o),
(289,311,cs),
(284,310,o),
(280,308,o),
(280,301,c)
);
},
{
closed = 1;
nodes = (
(371,236,l),
(381,237,o),
(390,236,o),
(398,233,c),
(398,225,o),
(395,221,o),
(382,211,c)
);
},
{
closed = 1;
nodes = (
(309,292,o),
(313,294,o),
(317,295,cs),
(321,295,o),
(325,293,o),
(330,295,c),
(322,305,o),
(310,303,o),
(304,290,c)
);
},
{
closed = 1;
nodes = (
(167,443,o),
(164,452,o),
(171,459,c),
(164,465,o),
(159,471,o),
(153,479,c),
(152,472,o),
(151,466,o),
(147,461,cs),
(144,458,o),
(145,455,o),
(148,453,cs),
(153,450,o),
(155,445,o),
(158,441,cs),
(160,439,o),
(161,436,o),
(165,435,c)
);
},
{
closed = 1;
nodes = (
(328,255,o),
(328,257,o),
(330,258,cs),
(335,260,o),
(339,263,o),
(343,267,cs),
(352,275,o),
(359,284,o),
(363,296,c),
(364,279,o),
(350,260,o),
(329,253,c)
);
},
{
closed = 1;
nodes = (
(209,397,o),
(204,405,o),
(194,409,c),
(202,417,o),
(207,424,o),
(210,434,c),
(216,428,o),
(222,423,o),
(229,419,c),
(225,414,o),
(222,410,o),
(219,405,c),
(217,399,o),
(216,394,o),
(214,386,c)
);
},
{
closed = 1;
nodes = (
(304,316,o),
(298,321,o),
(288,321,c),
(284,330,l),
(294,339,o),
(304,340,o),
(312,332,c),
(316,332,o),
(319,330,o),
(319,325,c),
(326,323,o),
(326,317,o),
(327,312,c),
(321,311,o),
(315,312,o),
(310,309,c)
);
},
{
closed = 1;
nodes = (
(328,275,o),
(332,277,o),
(335,279,cs),
(339,281,o),
(342,284,o),
(344,288,cs),
(349,295,o),
(348,301,o),
(340,305,cs),
(332,308,ls),
(330,309,o),
(329,311,o),
(331,313,c),
(331,315,o),
(333,315,o),
(335,314,c),
(352,312,o),
(357,297,o),
(347,283,cs),
(342,277,o),
(335,273,o),
(326,270,c)
);
},
{
closed = 1;
nodes = (
(314,317,o),
(314,323,o),
(311,326,cs),
(307,329,o),
(303,331,o),
(297,330,c),
(302,337,o),
(307,333,o),
(312,333,c),
(320,325,l),
(318,322,o),
(321,318,o),
(318,315,c)
);
},
{
closed = 1;
nodes = (
(399,252,o),
(382,251,o),
(365,248,c),
(362,251,o),
(359,254,o),
(357,259,c),
(371,260,o),
(385,262,o),
(398,258,cs),
(407,255,o),
(412,249,o),
(414,238,c)
);
},
{
closed = 1;
nodes = (
(256,408,o),
(258,410,o),
(259,412,c),
(259,413,o),
(261,414,o),
(260,416,c),
(258,418,o),
(256,418,o),
(254,416,c),
(253,414,o),
(251,412,o),
(254,410,cs)
);
},
{
closed = 1;
nodes = (
(208,473,o),
(210,476,o),
(206,478,c),
(204,480,o),
(201,479,o),
(201,476,c),
(199,472,o),
(202,470,o),
(206,469,c)
);
},
{
closed = 1;
nodes = (
(280,399,o),
(287,411,o),
(288,420,c),
(289,423,o),
(288,427,o),
(286,430,cs),
(283,435,o),
(277,438,o),
(273,437,cs),
(268,435,o),
(266,429,o),
(268,422,cs),
(269,419,o),
(271,416,o),
(275,415,c),
(280,415,o),
(281,418,o),
(282,422,cs),
(283,425,l),
(280,424,o),
(278,422,o),
(276,420,c),
(275,420,o),
(274,421,o),
(273,422,c),
(271,427,o),
(271,432,o),
(274,433,cs),
(277,434,o),
(281,431,o),
(283,425,c),
(285,423,o),
(284,421,o),
(284,419,c),
(282,412,o),
(279,407,o),
(276,402,cs),
(274,399,o),
(272,397,o),
(271,393,c)
);
},
{
closed = 1;
nodes = (
(251,435,o),
(252,436,o),
(253,436,c),
(261,450,o),
(256,493,o),
(247,503,cs),
(244,507,o),
(241,509,o),
(236,508,cs),
(228,507,o),
(223,502,o),
(220,495,cs),
(217,487,o),
(217,480,o),
(222,474,cs),
(227,468,o),
(235,470,o),
(238,476,cs),
(239,479,o),
(239,481,o),
(239,484,cs),
(239,486,o),
(239,489,o),
(236,490,cs),
(233,491,o),
(230,490,o),
(229,487,c),
(228,487,o),
(227,486,o),
(228,486,c),
(230,483,o),
(232,487,o),
(235,484,c),
(235,484,o),
(235,482,o),
(235,481,cs),
(234,478,o),
(233,475,o),
(229,475,cs),
(225,474,o),
(224,477,o),
(222,480,c),
(221,485,o),
(222,489,o),
(224,493,cs),
(226,499,o),
(230,504,o),
(237,503,cs),
(243,503,o),
(245,497,o),
(246,492,cs),
(250,478,o),
(252,464,o),
(252,449,cs),
(252,444,o),
(249,440,o),
(250,435,c)
);
},
{
closed = 1;
nodes = (
(328,373,o),
(335,385,o),
(344,395,c),
(340,400,o),
(339,406,o),
(339,412,cs),
(339,430,ls),
(339,432,o),
(339,434,o),
(335,436,c),
(326,426,o),
(320,413,o),
(305,405,c),
(310,390,o),
(316,375,o),
(320,358,c)
);
},
{
closed = 1;
nodes = (
(319,382,o),
(318,392,o),
(311,401,c),
(318,405,o),
(324,411,o),
(330,418,c),
(333,410,o),
(332,402,o),
(336,395,c),
(331,388,o),
(326,381,o),
(322,372,c)
);
},
{
closed = 1;
nodes = (
(410,317,o),
(419,336,o),
(412,350,cs),
(408,357,o),
(402,360,o),
(395,358,cs),
(386,355,o),
(380,350,o),
(377,339,c),
(381,341,o),
(382,344,o),
(384,346,cs),
(387,348,o),
(389,350,o),
(392,351,cs),
(400,355,o),
(405,352,o),
(407,344,cs),
(409,335,o),
(406,327,o),
(399,321,c),
(395,319,o),
(391,315,o),
(388,319,cs),
(384,323,o),
(388,326,o),
(392,329,c),
(393,329,ls),
(395,329,o),
(394,325,o),
(397,326,c),
(398,329,o),
(398,332,o),
(395,334,c),
(392,335,o),
(389,334,o),
(387,332,c),
(386,330,o),
(384,329,o),
(384,327,c),
(381,323,o),
(380,319,o),
(383,315,cs),
(385,312,o),
(390,311,o),
(395,312,cs)
);
},
{
closed = 1;
nodes = (
(304,449,l),
(306,456,o),
(310,462,o),
(315,467,c),
(309,477,o),
(303,487,o),
(302,499,cs),
(302,501,o),
(300,502,o),
(298,501,c),
(296,501,o),
(295,499,o),
(295,497,cs),
(294,490,o),
(291,483,o),
(287,477,cs),
(284,473,o),
(280,470,o),
(277,466,c),
(279,459,o),
(283,453,o),
(286,447,cs),
(289,441,o),
(288,432,o),
(295,428,c)
);
},
{
closed = 1;
nodes = (
(291,449,o),
(289,458,o),
(282,465,c),
(288,472,o),
(293,478,o),
(297,487,c),
(300,479,o),
(303,473,o),
(307,467,c),
(301,459,o),
(299,450,o),
(295,438,c)
);
},
{
closed = 1;
nodes = (
(299,392,o),
(300,395,o),
(300,397,cs),
(301,409,o),
(304,419,o),
(310,428,c),
(328,462,ls),
(333,472,o),
(337,483,o),
(337,494,c),
(338,498,o),
(338,502,o),
(336,506,cs),
(333,513,o),
(324,514,o),
(320,508,cs),
(316,503,o),
(315,492,o),
(318,487,cs),
(321,482,o),
(324,483,o),
(329,488,c),
(327,492,o),
(324,487,o),
(321,492,c),
(320,495,o),
(320,499,o),
(322,504,cs),
(323,506,o),
(324,508,o),
(326,507,c),
(328,507,o),
(330,506,o),
(331,504,cs),
(332,501,o),
(332,497,o),
(332,493,cs),
(331,482,o),
(327,472,o),
(323,462,c),
(305,430,l),
(302,426,o),
(299,421,o),
(298,416,cs),
(295,407,o),
(293,399,o),
(297,388,c)
);
},
{
closed = 1;
nodes = (
(381,382,o),
(384,383,o),
(386,385,cs),
(392,392,o),
(395,409,o),
(391,416,cs),
(389,421,o),
(385,424,o),
(381,422,cs),
(375,420,o),
(370,413,o),
(370,405,c),
(374,410,o),
(376,416,o),
(383,417,c),
(389,409,o),
(387,400,o),
(384,392,cs),
(383,388,o),
(380,385,o),
(376,387,c),
(376,396,o),
(376,396,o),
(383,398,c),
(379,402,o),
(378,403,o),
(376,401,cs),
(373,398,o),
(371,393,o),
(370,388,cs),
(370,385,o),
(374,381,o),
(378,381,c)
);
},
{
closed = 1;
nodes = (
(356,466,o),
(356,467,o),
(351,470,c),
(349,472,o),
(348,475,o),
(344,474,c),
(343,469,o),
(345,465,o),
(349,462,c)
);
}
);
width = 472;
}
);
note = zero;
unicode = 48;
},
{
glyphname = one;
lastChange = "2024-09-21 16:40:38 +0000";
layers = (
{
layerId = m01;
shapes = (
{
closed = 1;
nodes = (
(211,-23,o),
(229,-16,o),
(238,2,cs),
(239,4,o),
(239,6,o),
(241,6,c),
(248,1,ls),
(266,-9,o),
(287,-5,o),
(299,12,cs),
(304,18,o),
(307,26,o),
(308,34,c),
(309,37,o),
(308,40,o),
(311,43,c),
(325,32,o),
(333,30,o),
(346,32,cs),
(357,34,o),
(367,38,o),
(376,46,cs),
(385,53,o),
(392,63,o),
(397,73,cs),
(398,76,o),
(399,79,o),
(402,81,c),
(405,77,ls),
(413,68,o),
(422,67,o),
(432,73,cs),
(437,76,o),
(440,80,o),
(443,84,cs),
(445,86,o),
(445,89,o),
(448,90,c),
(461,75,o),
(473,75,o),
(485,91,cs),
(492,100,o),
(496,110,o),
(499,120,c),
(499,124,o),
(499,128,o),
(501,132,c),
(515,134,o),
(526,141,o),
(536,151,cs),
(554,169,o),
(562,191,o),
(561,217,cs),
(560,229,o),
(559,241,o),
(557,252,c),
(557,262,o),
(559,269,o),
(567,275,cs),
(576,283,ls),
(601,307,o),
(601,348,o),
(576,372,cs),
(571,377,o),
(565,379,o),
(558,377,cs),
(552,375,o),
(547,373,o),
(541,370,c),
(540,373,o),
(541,375,o),
(541,378,cs),
(543,393,o),
(538,403,o),
(523,408,cs),
(505,416,o),
(489,413,o),
(474,401,cs),
(460,388,l),
(457,399,o),
(457,409,o),
(449,416,cs),
(441,424,o),
(431,426,o),
(421,428,c),
(420,436,o),
(415,442,o),
(411,448,c),
(414,452,l),
(419,463,o),
(423,475,o),
(425,487,cs),
(427,506,o),
(414,518,o),
(396,514,cs),
(388,513,o),
(382,509,o),
(376,504,cs),
(374,502,o),
(373,499,o),
(370,499,c),
(359,511,o),
(349,514,o),
(336,509,cs),
(327,505,o),
(321,499,o),
(316,491,cs),
(311,481,o),
(308,471,o),
(308,460,cs),
(308,436,l),
(301,439,o),
(295,439,o),
(288,436,cs),
(282,433,o),
(278,428,o),
(272,423,c),
(266,431,ls),
(251,449,o),
(228,449,o),
(213,430,cs),
(210,427,o),
(208,422,o),
(206,418,cs),
(205,416,o),
(205,414,o),
(202,412,c),
(186,422,o),
(175,411,o),
(164,401,c),
(151,410,o),
(142,408,o),
(132,396,cs),
(130,394,l),
(124,381,o),
(112,374,o),
(100,367,cs),
(88,361,o),
(76,353,o),
(66,344,c),
(60,340,o),
(56,334,o),
(53,328,cs),
(43,307,o),
(61,283,o),
(81,285,cs),
(83,285,o),
(86,286,o),
(88,285,c),
(87,277,o),
(84,270,o),
(84,262,cs),
(83,255,o),
(85,247,o),
(89,240,cs),
(93,234,o),
(99,228,o),
(106,225,cs),
(129,214,o),
(145,225,o),
(159,241,c),
(172,229,o),
(176,229,o),
(203,245,c),
(204,236,o),
(203,227,o),
(206,219,cs),
(209,210,o),
(215,204,o),
(223,198,c),
(214,196,o),
(207,195,o),
(199,193,cs),
(186,189,o),
(176,181,o),
(172,168,cs),
(170,160,o),
(165,157,o),
(159,155,cs),
(140,148,o),
(122,138,o),
(108,123,cs),
(99,113,o),
(93,102,o),
(92,89,cs),
(90,75,o),
(94,62,o),
(106,53,cs),
(118,45,o),
(130,47,o),
(142,54,c),
(145,55,o),
(147,57,o),
(150,57,c),
(152,53,o),
(152,49,o),
(152,45,c),
(155,30,o),
(160,15,o),
(169,3,cs),
(175,-5,o),
(183,-11,o),
(192,-15,cs)
);
},
{
closed = 1;
nodes = (
(204,23,o),
(195,23,o),
(190,32,cs),
(187,38,o),
(186,44,o),
(185,50,cs),
(184,62,o),
(184,73,o),
(186,85,cs),
(187,89,o),
(187,93,o),
(186,97,cs),
(185,103,o),
(181,105,o),
(176,102,cs),
(172,100,o),
(169,97,o),
(165,94,cs),
(160,91,o),
(156,88,o),
(150,87,cs),
(141,85,o),
(135,90,o),
(136,99,cs),
(137,108,o),
(141,115,o),
(150,120,cs),
(170,129,ls),
(185,135,o),
(196,147,o),
(203,162,c),
(206,166,o),
(207,169,o),
(212,169,cs),
(217,169,o),
(221,166,o),
(223,162,cs),
(226,157,o),
(227,151,o),
(228,145,cs),
(228,141,o),
(227,138,o),
(224,135,cs),
(216,124,ls),
(208,114,o),
(206,102,o),
(210,90,cs),
(215,75,o),
(216,60,o),
(214,45,cs),
(213,40,o),
(213,36,o),
(210,32,cs)
);
},
{
closed = 1;
nodes = (
(266,34,o),
(255,35,o),
(250,47,cs),
(248,53,o),
(247,60,o),
(247,66,cs),
(247,83,ls),
(247,92,o),
(245,100,o),
(239,107,cs),
(236,110,o),
(235,114,o),
(238,118,cs),
(242,123,o),
(246,125,o),
(252,124,c),
(253,123,o),
(253,124,o),
(255,124,c),
(257,130,o),
(256,135,o),
(256,141,cs),
(256,152,o),
(259,163,o),
(265,173,cs),
(271,183,o),
(280,185,o),
(289,178,cs),
(292,176,o),
(295,174,o),
(297,172,c),
(308,155,o),
(311,136,o),
(306,116,cs),
(305,112,o),
(302,108,o),
(299,106,cs),
(295,103,o),
(292,104,o),
(290,108,cs),
(289,111,o),
(289,114,o),
(289,117,cs),
(289,134,ls),
(289,138,o),
(289,141,o),
(287,144,cs),
(283,150,o),
(277,150,o),
(274,144,cs),
(272,141,o),
(272,137,o),
(272,133,cs),
(271,120,o),
(274,107,o),
(276,93,cs),
(278,83,o),
(280,72,o),
(279,62,cs),
(279,55,o),
(278,49,o),
(274,44,cs)
);
},
{
closed = 1;
nodes = (
(130,250,o),
(122,250,o),
(117,258,cs),
(110,268,o),
(109,279,o),
(111,290,cs),
(115,311,ls),
(116,316,o),
(117,321,o),
(114,326,c),
(109,325,o),
(107,321,o),
(104,319,cs),
(100,315,o),
(96,312,o),
(91,309,c),
(84,307,o),
(79,310,o),
(80,318,cs),
(80,323,o),
(83,328,o),
(87,331,cs),
(101,340,ls),
(114,347,o),
(126,357,o),
(133,371,cs),
(135,376,o),
(140,377,o),
(145,379,c),
(151,376,o),
(151,370,o),
(150,365,cs),
(149,357,o),
(146,350,o),
(142,344,cs),
(136,334,o),
(136,323,o),
(138,312,cs),
(140,300,o),
(142,288,o),
(141,276,cs),
(140,270,o),
(139,263,o),
(135,258,cs)
);
},
{
closed = 1;
nodes = (
(338,68,o),
(331,76,o),
(326,86,cs),
(324,91,o),
(322,97,o),
(321,103,cs),
(318,120,o),
(318,137,o),
(322,154,cs),
(324,162,o),
(327,170,o),
(332,176,cs),
(335,181,o),
(339,185,o),
(345,187,c),
(356,193,o),
(366,189,o),
(370,177,cs),
(372,171,o),
(372,164,o),
(371,158,cs),
(369,150,o),
(367,143,o),
(364,136,cs),
(358,120,ls),
(356,116,o),
(356,112,o),
(360,109,c),
(369,117,o),
(375,130,o),
(389,130,c),
(391,127,o),
(391,126,o),
(390,124,cs),
(386,110,o),
(381,96,o),
(373,84,cs),
(368,74,o),
(361,67,o),
(349,67,cs)
);
},
{
closed = 1;
nodes = (
(344,125,o),
(354,152,o),
(354,154,cs),
(354,160,ls),
(354,164,o),
(352,167,o),
(348,167,cs),
(344,168,o),
(342,165,o),
(341,162,cs),
(335,149,o),
(337,135,o),
(341,121,c)
);
},
{
closed = 1;
nodes = (
(178,271,o),
(174,272,o),
(171,275,cs),
(168,279,o),
(166,283,o),
(166,288,c),
(164,295,o),
(164,302,o),
(165,309,cs),
(165,315,o),
(165,320,o),
(160,323,cs),
(159,324,o),
(158,325,o),
(158,326,c),
(155,331,o),
(154,336,o),
(157,341,cs),
(160,345,o),
(165,345,o),
(170,344,cs),
(172,344,o),
(173,343,o),
(175,344,c),
(177,360,ls),
(179,368,o),
(182,376,o),
(188,383,cs),
(193,389,o),
(198,389,o),
(202,382,cs),
(206,376,o),
(208,369,o),
(210,361,c),
(213,335,ls),
(213,332,o),
(213,328,o),
(212,325,cs),
(211,319,o),
(207,315,o),
(202,315,c),
(198,316,o),
(194,320,o),
(193,326,cs),
(192,330,o),
(193,335,o),
(193,339,cs),
(194,343,o),
(195,346,o),
(194,351,c),
(187,350,o),
(186,345,o),
(185,340,cs),
(184,331,o),
(184,322,o),
(186,313,cs),
(187,306,o),
(189,298,o),
(190,291,cs),
(190,287,o),
(190,283,o),
(189,279,cs),
(188,276,o),
(186,273,o),
(182,272,cs)
);
},
{
closed = 1;
nodes = (
(258,230,o),
(252,231,o),
(249,238,cs),
(247,245,o),
(248,252,o),
(253,258,cs),
(260,268,o),
(271,271,o),
(283,272,c),
(275,261,o),
(270,248,o),
(262,236,cs)
);
},
{
closed = 1;
nodes = (
(238,305,o),
(237,312,o),
(237,320,cs),
(238,334,ls),
(240,345,o),
(239,354,o),
(227,360,c),
(230,368,o),
(237,373,o),
(244,376,cs),
(249,378,o),
(253,376,o),
(255,371,cs),
(258,366,o),
(258,360,o),
(258,355,cs),
(256,336,o),
(252,318,o),
(245,301,c),
(242,296,l)
);
},
{
closed = 1;
nodes = (
(333,225,o),
(324,226,o),
(317,234,cs),
(313,239,o),
(311,245,o),
(311,251,cs),
(310,269,o),
(316,285,o),
(332,294,cs),
(340,299,o),
(348,301,o),
(356,297,c),
(357,295,l),
(351,280,o),
(351,264,o),
(349,248,cs),
(348,242,o),
(346,236,o),
(341,232,cs)
);
},
{
closed = 1;
nodes = (
(333,249,o),
(336,251,o),
(337,254,c),
(340,259,o),
(341,264,o),
(341,269,cs),
(341,273,ls),
(341,277,o),
(339,280,o),
(334,281,cs),
(330,282,o),
(327,280,o),
(325,276,cs),
(321,270,o),
(320,264,o),
(321,257,cs),
(322,253,o),
(325,250,o),
(329,249,cs)
);
},
{
closed = 1;
nodes = (
(424,158,o),
(431,159,o),
(434,167,cs),
(436,172,o),
(437,177,o),
(438,183,cs),
(438,189,o),
(436,193,o),
(431,195,cs),
(426,196,o),
(421,194,o),
(417,189,cs),
(412,182,o),
(413,171,o),
(419,164,cs)
);
},
{
closed = 1;
nodes = (
(411,117,o),
(408,121,o),
(406,125,cs),
(402,134,o),
(401,143,o),
(400,152,cs),
(398,167,o),
(397,182,o),
(400,197,cs),
(405,218,o),
(417,225,o),
(438,219,c),
(443,222,o),
(446,227,o),
(449,231,cs),
(454,237,o),
(460,240,o),
(464,237,cs),
(469,234,o),
(469,228,o),
(467,223,cs),
(464,211,o),
(463,199,o),
(463,187,cs),
(463,177,o),
(466,170,o),
(476,168,cs),
(480,167,o),
(481,164,o),
(482,160,cs),
(483,151,o),
(481,142,o),
(476,134,cs),
(473,130,o),
(470,126,o),
(465,127,cs),
(459,128,o),
(454,131,o),
(453,138,c),
(447,160,l),
(442,160,o),
(442,156,o),
(440,153,c),
(429,126,ls),
(427,122,o),
(425,118,o),
(423,115,cs),
(420,112,o),
(417,112,o),
(414,114,cs)
);
},
{
closed = 1;
nodes = (
(237,381,o),
(234,382,o),
(231,385,cs),
(224,392,o),
(226,408,o),
(234,413,cs),
(238,416,o),
(242,414,o),
(246,412,cs),
(250,410,o),
(252,407,o),
(252,401,cs),
(251,394,o),
(248,388,o),
(241,383,cs)
);
},
{
closed = 1;
nodes = (
(278,338,o),
(275,340,o),
(275,344,c),
(271,362,o),
(271,379,o),
(279,397,cs),
(282,404,o),
(288,408,o),
(296,409,cs),
(302,410,o),
(307,407,o),
(308,403,cs),
(310,397,o),
(307,391,o),
(302,388,c),
(299,387,o),
(296,386,o),
(292,384,c),
(286,367,o),
(287,348,o),
(294,342,c),
(298,343,o),
(298,347,o),
(299,350,cs),
(304,367,ls),
(305,370,o),
(307,374,o),
(309,377,c),
(312,379,o),
(314,382,o),
(318,380,cs),
(322,379,o),
(325,377,o),
(325,372,cs),
(325,359,o),
(323,346,o),
(315,335,cs),
(306,321,o),
(286,324,o),
(279,335,c)
);
},
{
closed = 1;
nodes = (
(382,245,o),
(381,250,o),
(381,255,cs),
(380,263,o),
(381,271,o),
(383,279,cs),
(385,288,o),
(384,297,o),
(376,303,cs),
(371,307,o),
(371,310,o),
(374,315,cs),
(377,319,o),
(380,320,o),
(385,316,cs),
(386,315,o),
(386,313,o),
(387,313,cs),
(393,313,o),
(394,316,o),
(396,319,cs),
(398,324,o),
(401,328,o),
(405,332,cs),
(412,338,o),
(422,337,o),
(428,329,cs),
(436,317,o),
(432,296,o),
(420,289,cs),
(418,288,o),
(416,287,o),
(413,288,c),
(411,293,o),
(412,298,o),
(413,303,cs),
(414,307,o),
(416,312,o),
(411,314,cs),
(408,316,o),
(404,313,o),
(400,308,cs),
(395,300,o),
(396,291,o),
(397,282,cs),
(400,266,ls),
(401,255,o),
(397,246,o),
(387,241,c)
);
},
{
closed = 1;
nodes = (
(506,176,o),
(498,179,o),
(493,188,cs),
(488,196,o),
(488,205,o),
(488,213,cs),
(488,221,ls),
(489,234,o),
(489,245,o),
(485,256,cs),
(482,267,o),
(477,269,o),
(467,263,cs),
(463,261,o),
(459,258,o),
(455,257,c),
(447,253,o),
(441,258,o),
(443,267,cs),
(444,274,o),
(448,279,o),
(453,284,cs),
(462,292,o),
(472,298,o),
(485,300,cs),
(501,303,o),
(515,310,o),
(527,319,cs),
(535,325,o),
(542,330,o),
(550,333,cs),
(559,337,o),
(562,335,o),
(563,326,cs),
(565,314,o),
(561,304,o),
(551,298,cs),
(532,288,ls),
(523,283,o),
(520,276,o),
(522,266,cs),
(527,243,ls),
(530,229,o),
(533,214,o),
(530,199,cs),
(528,191,o),
(524,184,o),
(516,181,cs)
);
},
{
closed = 1;
nodes = (
(356,341,o),
(350,342,o),
(348,350,cs),
(347,354,o),
(347,358,o),
(347,362,cs),
(350,385,o),
(346,407,o),
(340,429,cs),
(337,438,o),
(335,448,o),
(335,457,cs),
(335,461,o),
(335,465,o),
(337,469,cs),
(339,472,o),
(342,474,o),
(346,474,cs),
(351,474,o),
(353,471,o),
(354,468,cs),
(356,463,o),
(357,458,o),
(356,452,c),
(355,450,o),
(353,447,o),
(356,443,c),
(362,451,o),
(366,459,o),
(370,468,cs),
(372,472,o),
(374,476,o),
(378,479,cs),
(384,485,o),
(391,483,o),
(393,474,cs),
(394,468,o),
(393,462,o),
(388,458,cs),
(379,450,ls),
(373,446,o),
(371,440,o),
(370,434,c),
(372,432,o),
(372,433,o),
(373,434,c),
(382,438,o),
(387,436,o),
(390,428,cs),
(393,421,o),
(398,417,o),
(405,414,cs),
(421,406,o),
(429,381,o),
(419,366,cs),
(415,359,o),
(408,353,o),
(399,352,c),
(392,350,o),
(388,354,o),
(384,359,cs),
(379,366,o),
(377,374,o),
(376,382,cs),
(373,400,ls),
(372,408,o),
(370,412,o),
(367,411,c),
(362,408,o),
(363,403,o),
(364,398,cs),
(367,371,ls),
(368,365,o),
(367,360,o),
(366,355,cs),
(365,352,o),
(364,349,o),
(362,347,cs)
);
},
{
closed = 1;
nodes = (
(464,351,o),
(469,361,o),
(477,369,cs),
(481,373,o),
(486,377,o),
(492,379,cs),
(500,381,o),
(504,378,o),
(506,370,cs),
(508,360,o),
(500,346,o),
(490,343,cs),
(480,339,o),
(469,338,o),
(458,341,c)
);
}
);
width = 645;
}
);
note = one;
unicode = 49;
},
{
glyphname = two;
lastChange = "2024-09-21 16:42:17 +0000";
layers = (
{
layerId = m01;
shapes = (
{
closed = 1;
nodes = (
(236,-5,o),
(249,-3,o),
(259,8,cs),
(264,13,o),
(270,17,o),
(276,19,cs),
(301,28,ls),
(327,36,o),
(353,41,o),
(378,49,cs),
(401,57,o),
(424,67,o),
(443,83,cs),
(453,91,o),
(463,101,o),
(469,113,cs),
(476,128,o),
(468,143,o),
(454,145,cs),
(453,145,o),
(452,145,o),
(451,146,c),
(450,154,o),
(454,161,o),
(457,167,cs),
(463,182,o),
(467,196,o),
(469,212,cs),
(472,228,o),
(472,245,o),
(474,261,cs),
(475,279,o),
(478,297,o),
(478,315,cs),
(478,326,o),
(476,337,o),
(469,347,cs),
(462,355,o),
(461,363,o),
(463,373,cs),
(465,379,o),
(466,385,o),
(465,392,cs),
(465,395,o),
(464,398,o),
(462,400,cs),
(454,406,o),
(447,412,o),
(436,411,cs),
(434,411,o),
(431,410,o),
(429,412,c),
(428,415,l),
(418,447,ls),
(416,454,o),
(412,458,o),
(404,457,c),
(402,456,o),
(399,457,o),
(398,459,c),
(392,466,o),
(385,470,o),
(378,475,c),
(378,483,ls),
(378,484,o),
(378,486,o),
(377,487,cs),
(371,491,o),
(358,491,o),
(353,486,cs),
(337,469,l),
(332,472,o),
(327,471,o),
(323,471,c),
(316,480,o),
(309,488,o),
(302,495,cs),
(295,501,o),
(292,501,o),
(285,495,cs),
(269,481,l),
(250,491,o),
(232,486,o),
(214,474,c),
(207,485,ls),
(200,497,o),
(197,498,o),
(184,493,cs),
(174,489,o),
(165,485,o),
(155,480,cs),
(134,468,o),
(136,471,o),
(134,446,c),
(133,443,o),
(135,439,o),
(132,436,c),
(128,438,o),
(127,441,o),
(125,444,cs),
(118,454,o),
(114,456,o),
(102,451,cs),
(88,445,ls),
(72,436,o),
(72,436,o),
(79,420,cs),
(89,398,l),
(75,396,o),
(67,388,o),
(64,375,cs),
(61,363,o),
(62,351,o),
(70,340,c),
(68,335,ls),
(61,317,o),
(58,298,o),
(59,279,cs),
(60,262,o),
(58,245,o),
(53,229,cs),
(50,220,o),
(49,211,o),
(51,202,cs),
(55,174,o),
(67,149,o),
(81,125,cs),
(85,118,o),
(86,116,o),
(81,109,cs),
(74,100,ls),
(67,89,o),
(71,80,o),
(84,78,cs),
(90,77,o),
(96,77,o),
(101,77,cs),
(116,76,o),
(129,71,o),
(141,62,cs),
(149,56,o),
(156,49,o),
(163,41,cs),
(171,32,o),
(180,22,o),
(190,14,cs),
(199,6,o),
(210,0,o),
(222,-2,cs)
);
},
{
closed = 1;
nodes = (
(179,109,o),
(181,108,o),
(184,111,c),
(181,117,o),
(175,119,o),
(170,122,cs),
(144,136,l),
(138,138,o),
(135,142,o),
(135,148,c),
(132,165,ls),
(131,168,o),
(131,171,o),
(127,171,c),
(125,170,o),
(124,168,o),
(124,166,cs),
(124,157,o),
(123,148,o),
(124,139,cs),
(125,134,o),
(128,131,o),
(132,128,cs),
(135,125,o),
(139,123,o),
(144,121,cs),
(176,110,ls)
);
},
{
closed = 1;
nodes = (
(170,192,o),
(169,194,o),
(167,195,c),
(159,202,o),
(153,210,o),
(147,218,cs),
(143,223,o),
(137,225,o),
(131,226,cs),
(126,227,o),
(122,227,o),
(117,227,cs),
(108,227,o),
(107,228,o),
(107,237,cs),
(108,243,ls),
(109,251,o),
(109,259,o),
(108,268,cs),
(108,270,o),
(109,273,o),
(105,274,c),
(104,257,ls),
(103,248,o),
(101,240,o),
(99,231,cs),
(97,221,o),
(101,216,o),
(110,213,cs),
(114,212,o),
(117,211,o),
(121,211,cs),
(130,211,o),
(136,208,o),
(142,202,cs),
(147,196,o),
(153,192,o),
(160,190,c),
(163,188,o),
(166,187,o),
(169,189,c)
);
},
{
closed = 1;
nodes = (
(337,86,ls),
(349,96,o),
(361,106,o),
(375,113,cs),
(379,115,o),
(383,118,o),
(387,121,cs),
(391,123,o),
(394,126,o),
(396,131,c),
(394,131,o),
(393,132,o),
(392,131,c),
(386,130,l),
(367,122,o),
(348,114,o),
(333,100,cs),
(325,93,l),
(320,90,o),
(315,89,o),
(311,93,c),
(295,104,l),
(293,106,o),
(291,107,o),
(289,105,cs),
(287,103,o),
(288,101,o),
(289,99,cs),
(291,94,o),
(295,90,o),
(299,86,cs),
(312,73,o),
(320,73,o),
(335,84,cs)
);
},
{
closed = 1;
nodes = (
(303,170,o),
(317,183,o),
(329,199,cs),
(330,201,o),
(332,203,o),
(331,206,c),
(327,207,o),
(324,204,o),
(322,201,c),
(315,195,o),
(307,188,o),
(299,183,cs),
(279,171,o),
(263,171,o),
(245,185,cs),
(237,191,o),
(230,199,o),
(223,205,cs),
(220,208,o),
(218,211,o),
(213,212,c),
(213,211,o),
(213,210,o),
(213,209,c),
(222,194,o),
(230,179,o),
(245,168,cs),
(257,158,o),
(270,156,o),
(284,163,cs)
);
},
{
closed = 1;
nodes = (
(211,9,o),
(204,14,o),
(197,20,cs),
(187,27,o),
(179,36,o),
(171,45,cs),
(162,55,o),
(154,64,o),
(143,71,cs),
(131,80,o),
(116,85,o),
(100,86,cs),
(89,87,ls),
(85,87,o),
(81,87,o),
(79,91,cs),
(77,96,o),
(81,99,o),
(84,102,cs),
(93,113,l),
(117,100,l),
(139,86,ls),
(142,84,o),
(146,81,o),
(151,81,c),
(151,86,o),
(148,89,o),
(145,92,cs),
(136,102,o),
(126,110,o),
(114,115,cs),
(100,121,o),
(91,131,o),
(85,145,cs),
(77,163,o),
(68,180,o),
(64,200,cs),
(62,208,o),
(62,217,o),
(65,225,cs),
(71,245,o),
(72,264,o),
(70,284,cs),
(68,305,o),
(73,324,o),
(79,344,c),
(79,345,o),
(80,345,o),
(81,347,c),
(96,333,o),
(112,322,o),
(133,316,c),
(130,320,o),
(127,321,o),
(124,323,cs),
(110,331,o),
(96,342,o),
(85,354,cs),
(78,362,o),
(79,370,o),
(82,378,cs),
(84,382,o),
(87,383,o),
(91,381,cs),
(96,379,o),
(99,375,o),
(102,372,cs),
(117,353,o),
(137,343,o),
(161,341,cs),
(174,340,o),
(187,342,o),
(200,344,cs),
(217,347,o),
(233,352,o),
(250,354,cs),
(266,355,o),
(280,352,o),
(293,342,cs),
(306,332,ls),
(321,323,o),
(337,321,o),
(354,326,cs),
(369,330,l),
(361,321,l),
(369,323,o),
(391,339,o),
(407,354,cs),
(421,368,o),
(430,384,o),
(435,402,c),
(439,403,o),
(442,402,o),
(445,401,cs),
(452,398,o),
(454,393,o),
(453,386,cs),
(452,378,o),
(449,370,o),
(445,364,cs),
(431,343,o),
(415,325,o),
(393,313,cs),
(353,293,l),
(343,287,l),
(355,287,o),
(382,298,o),
(405,311,cs),
(424,323,o),
(439,339,o),
(451,358,c),
(463,338,o),
(470,318,o),
(466,294,cs),
(462,271,o),
(461,248,o),
(459,224,cs),
(458,207,o),
(454,190,o),
(447,174,cs),
(442,163,o),
(439,152,o),
(436,140,cs),
(435,136,o),
(433,132,o),
(430,128,cs),
(425,122,o),
(420,115,o),
(417,107,c),
(407,89,o),
(392,79,o),
(372,76,cs),
(348,73,o),
(326,66,o),
(303,58,cs),
(287,52,o),
(270,46,o),
(252,44,cs),
(246,43,o),
(241,43,o),
(236,44,cs),
(224,47,o),
(212,50,o),
(200,55,c),
(201,50,o),
(205,48,o),
(209,46,cs),
(230,33,o),
(252,31,o),
(275,38,cs),
(308,50,ls),
(329,59,o),
(350,65,o),
(373,68,cs),
(396,71,o),
(414,82,o),
(426,104,cs),
(430,112,o),
(436,120,o),
(442,128,c),
(444,132,o),
(448,133,o),
(452,133,cs),
(460,134,o),
(463,129,o),
(459,122,cs),
(448,105,o),
(435,91,o),
(418,80,cs),
(401,70,o),
(382,63,o),
(363,57,cs),
(297,37,ls),
(288,35,o),
(280,32,o),
(271,28,cs),
(265,25,o),
(258,21,o),
(253,16,cs),
(244,6,o),
(233,5,o),
(220,7,cs)
);
},
{
closed = 1;
nodes = (
(236,259,ls),
(240,261,o),
(245,262,o),
(251,267,c),
(228,266,ls),
(212,265,o),
(195,264,o),
(179,272,c),
(179,272,o),
(178,272,o),
(177,271,c),
(182,265,o),
(187,259,o),
(193,254,cs),
(199,249,o),
(206,248,o),
(214,251,cs)
);
},
{
closed = 1;
nodes = (
(112,371,o),
(109,375,o),
(105,379,c),
(109,384,o),
(107,389,o),
(104,394,cs),
(87,427,l),
(84,433,ls),
(83,435,o),
(84,436,o),
(86,437,cs),
(87,438,o),
(89,438,o),
(90,436,cs),
(93,431,l),
(119,378,l),
(122,374,o),
(122,370,o),
(117,368,c)
);
},
{
closed = 1;
nodes = (
(135,390,o),
(136,391,o),
(136,392,c),
(135,394,o),
(134,395,o),
(132,395,c),
(131,394,o),
(130,393,o),
(130,391,c),
(131,390,o),
(132,389,o),
(134,390,c)
);
},
{
closed = 1;
nodes = (
(93,442,l),
(95,445,o),
(98,446,o),
(101,448,cs),
(110,452,o),
(114,451,o),
(119,442,cs),
(130,424,l),
(124,422,o),
(116,424,o),
(116,416,cs),
(116,410,o),
(119,406,o),
(123,405,cs),
(130,404,o),
(132,409,o),
(135,414,c),
(141,407,o),
(144,398,o),
(151,390,c),
(142,385,o),
(134,382,o),
(127,376,c)
);
},
{
closed = 1;
nodes = (
(295,236,o),
(300,237,o),
(306,250,c),
(284,243,l)
);
},
{
closed = 1;
nodes = (
(209,354,o),
(207,355,o),
(204,358,cs),
(193,371,o),
(179,377,o),
(163,374,cs),
(151,373,o),
(141,366,o),
(131,359,c),
(128,359,o),
(126,360,o),
(124,363,c),
(134,374,o),
(146,381,o),
(160,385,cs),
(175,390,o),
(203,382,o),
(213,356,c)
);
},
{
closed = 1;
nodes = (
(299,292,o),
(304,291,o),
(311,295,c),
(308,301,o),
(304,303,o),
(299,305,cs),
(290,309,o),
(282,312,o),
(273,316,cs),
(258,324,o),
(242,325,o),
(225,321,cs),
(206,315,o),
(186,313,o),
(166,308,c),
(163,308,o),
(158,309,o),
(156,304,c),
(164,302,o),
(171,303,o),
(178,304,cs),
(236,313,ls),
(241,314,o),
(245,313,o),
(249,311,cs),
(263,303,o),
(278,298,o),
(294,294,cs)
);
},
{
closed = 1;
nodes = (
(111,429,o),
(112,431,o),
(112,434,c),
(113,437,o),
(111,439,o),
(108,439,cs),
(105,439,o),
(103,437,o),
(103,435,cs),
(103,431,o),
(104,429,o),
(108,429,cs)
);
},
{
closed = 1;
nodes = (
(140,424,o),
(139,429,o),
(136,432,c),
(139,438,o),
(144,440,o),
(149,445,c),
(152,441,o),
(152,438,o),
(153,435,c),
(148,432,o),
(145,428,o),
(144,421,c)
);
},
{
closed = 1;
nodes = (
(169,406,o),
(158,408,o),
(147,407,c),
(147,414,o),
(148,421,o),
(151,428,c),
(171,430,ls),
(175,430,o),
(178,428,o),
(178,424,cs),
(179,416,o),
(180,408,o),
(179,399,c)
);
},
{
closed = 1;
nodes = (
(208,382,o),
(208,379,o),
(193,391,c),
(201,395,o),
(210,398,o),
(219,398,cs),
(226,397,o),
(231,393,o),
(235,387,cs),
(239,379,o),
(243,371,o),
(247,363,c),
(238,360,o),
(230,360,o),
(222,357,c)
);
},
{
closed = 1;
nodes = (
(186,416,l),
(198,430,o),
(212,426,o),
(220,405,c),
(210,405,o),
(200,402,o),
(189,398,c)
);
},
{
closed = 1;
nodes = (
(140,460,ls),
(140,463,o),
(142,465,o),
(145,466,c),
(161,475,o),
(177,483,o),
(195,490,c),
(201,481,o),
(207,475,o),
(209,464,c),
(188,476,o),
(172,471,o),
(156,458,cs),
(138,443,l)
);
},
{
closed = 1;
nodes = (
(190,443,o),
(185,453,o),
(177,461,c),
(193,467,o),
(196,466,o),
(206,454,c),
(204,453,o),
(201,455,o),
(198,451,c),
(196,446,o),
(199,440,o),
(197,432,c)
);
},
{
closed = 1;
nodes = (
(249,401,o),
(243,404,o),
(235,405,c),
(240,398,o),
(246,397,o),
(255,396,c)
);
},
{
closed = 1;
nodes = (
(399,196,ls),
(407,196,o),
(414,200,o),
(417,208,cs),
(423,223,o),
(431,237,o),
(443,250,c),
(448,254,o),
(451,261,o),
(449,268,c),
(444,268,o),
(443,265,o),
(442,263,cs),
(439,259,o),
(437,255,o),
(434,253,cs),
(421,242,o),
(411,229,o),
(405,213,cs),
(404,209,o),
(400,207,o),
(396,206,cs),
(391,205,o),
(386,205,o),
(382,205,cs),
(378,205,o),
(376,204,o),
(376,200,cs),
(376,197,o),
(379,196,o),
(382,196,cs)
);
},
{
closed = 1;
nodes = (
(202,430,o),
(203,435,o),
(204,447,c),
(211,445,o),
(216,442,o),
(222,439,c),
(219,435,o),
(216,432,o),
(213,429,c)
);
},
{
closed = 1;
nodes = (
(245,383,o),
(241,395,o),
(228,402,c),
(245,449,l),
(253,446,o),
(260,442,o),
(268,441,c),
(270,437,o),
(268,434,o),
(267,431,cs),
(265,421,o),
(263,411,o),
(262,401,cs),
(262,398,o),
(261,395,o),
(262,392,cs),
(265,382,o),
(258,376,o),
(251,369,c)
);
},
{
closed = 1;
nodes = (
(249,416,o),
(244,417,o),
(238,414,c),
(242,408,o),
(247,406,o),
(255,408,c)
);
},
{
closed = 1;
nodes = (
(274,361,o),
(265,362,o),
(256,363,c),
(259,368,o),
(294,409,o),
(301,415,c),
(308,412,o),
(314,407,o),
(321,403,c),
(309,387,o),
(297,372,o),
(283,357,c)
);
},
{
closed = 1;
nodes = (
(323,349,o),
(319,349,o),
(310,357,c),
(318,361,o),
(323,360,o),
(331,353,c)
);
},
{
closed = 1;
nodes = (
(255,428,o),
(250,432,o),
(241,429,c),
(246,422,o),
(253,422,o),
(260,423,c)
);
},
{
closed = 1;
nodes = (
(221,417,o),
(219,422,o),
(216,426,c),
(221,431,o),
(227,433,o),
(230,439,c),
(228,446,o),
(220,445,o),
(216,450,c),
(221,456,o),
(227,457,o),
(233,458,c),
(244,458,ls),
(255,458,o),
(259,461,o),
(263,471,c),
(263,472,o),
(263,473,o),
(265,474,c),
(272,467,o),
(271,461,o),
(262,452,c),
(256,452,o),
(250,455,o),
(243,457,c),
(235,444,o),
(232,427,o),
(224,412,c)
);
},
{
closed = 1;
nodes = (
(219,474,o),
(242,482,o),
(260,477,c),
(258,470,o),
(255,465,o),
(247,465,cs),
(235,464,o),
(223,465,o),
(212,458,c)
);
},
{
closed = 1;
nodes = (
(331,365,o),
(325,368,o),
(317,368,c),
(317,372,o),
(319,374,o),
(320,376,cs),
(322,382,o),
(326,384,o),
(332,384,cs),
(341,383,o),
(350,386,o),
(359,388,c),
(362,383,o),
(361,379,o),
(362,374,c),
(352,371,o),
(343,367,o),
(337,359,c)
);
},
{
closed = 1;
nodes = (
(335,347,o),
(340,358,o),
(354,364,cs),
(368,370,o),
(380,371,o),
(390,355,c),
(375,342,o),
(359,332,o),
(339,331,c)
);
},
{
closed = 1;
nodes = (
(273,424,o),
(275,429,o),
(277,434,c),
(279,445,o),
(279,446,o),
(269,450,c),
(273,459,ls),
(275,463,o),
(276,466,o),
(276,471,cs),
(275,478,o),
(275,478,o),
(282,484,c),
(288,479,o),
(293,473,o),
(297,467,c),
(296,464,o),
(294,465,o),
(292,464,cs),
(288,462,o),
(286,458,o),
(285,453,cs),
(284,444,o),
(284,434,o),
(284,425,cs),
(283,418,l),
(273,418,l)
);
},
{
closed = 1;
nodes = (
(330,392,o),
(330,392,o),
(330,393,cs),
(331,397,l),
(334,403,o),
(333,405,o),
(328,408,cs),
(315,416,l),
(319,425,o),
(321,434,o),
(327,442,c),
(320,448,o),
(313,451,o),
(306,455,c),
(303,448,o),
(301,441,o),
(294,437,c),
(300,432,o),
(309,429,o),
(311,419,c),
(302,425,o),
(296,422,o),
(290,415,c),
(290,454,ls),
(290,457,o),
(293,459,o),
(296,460,cs),
(307,463,o),
(318,465,o),
(330,465,c),
(334,441,o),
(334,417,o),
(337,393,c),
(335,391,o),
(333,391,o),
(330,391,c)
);
},
{
closed = 1;
nodes = (
(330,420,o),
(331,421,o),
(331,423,cs),
(331,424,o),
(330,426,o),
(328,426,c),
(326,425,o),
(324,424,o),
(325,422,c),
(325,420,o),
(326,419,o),
(329,419,c)
);
},
{
closed = 1;
nodes = (
(374,390,o),
(377,394,o),
(388,396,c),
(395,396,o),
(397,392,o),
(394,386,cs),
(392,380,o),
(386,377,o),
(376,378,c)
);
},
{
closed = 1;
nodes = (
(324,454,o),
(324,455,o),
(325,456,c),
(325,457,o),
(324,458,o),
(323,458,cs),
(322,458,o),
(321,457,o),
(321,456,cs),
(321,455,o),
(322,454,o),
(323,454,cs)
);
},
{
closed = 1;
nodes = (
(306,466,o),
(304,467,o),
(298,474,cs),
(286,488,l),
(288,491,o),
(290,493,o),
(294,493,c),
(314,470,l)
);
},
{
closed = 1;
nodes = (
(344,417,o),
(343,424,o),
(344,431,c),
(355,434,o),
(365,429,o),
(375,426,cs),
(377,425,o),
(378,423,o),
(377,420,c),
(372,417,o),
(366,416,o),
(361,412,cs),
(357,409,o),
(351,411,o),
(346,410,c)
);
},
{
closed = 1;
nodes = (
(367,403,ls),
(367,410,o),
(369,412,o),
(375,413,cs),
(378,414,o),
(381,414,o),
(384,414,cs),
(393,413,o),
(394,412,o),
(395,402,c),
(385,402,o),
(374,401,o),
(367,389,c)
);
},
{
closed = 1;
nodes = (
(354,445,o),
(353,451,o),
(354,457,c),
(359,458,o),
(363,455,o),
(368,455,c),
(369,453,l),
(357,438,l)
);
},
{
closed = 1;
nodes = (
(339,458,l),
(338,461,o),
(339,463,o),
(341,465,cs),
(354,478,ls),
(360,484,o),
(360,484,o),
(370,480,c),
(370,474,o),
(369,469,o),
(367,463,c),
(363,462,o),
(359,463,o),
(355,463,cs),
(350,464,o),
(348,462,o),
(349,457,cs),
(350,441,l),
(348,439,o),
(345,438,o),
(342,438,c)
);
},
{
closed = 1;
nodes = (
(402,409,o),
(400,420,o),
(385,420,c),
(384,423,o),
(384,425,o),
(384,426,c),
(380,440,o),
(383,439,o),
(393,445,cs),
(398,448,o),
(402,450,o),
(409,451,c),
(416,438,o),
(417,423,o),
(422,408,c),
(404,396,l)
);
},
{
closed = 1;
nodes = (
(370,435,o),
(367,436,o),
(365,438,c),
(367,445,o),
(374,448,o),
(378,454,c),
(379,458,o),
(368,460,o),
(376,466,c),
(382,463,o),
(387,459,o),
(391,453,c),
(384,447,o),
(374,445,o),
(375,434,c)
);
}
);
width = 528;
}
);
note = two;
unicode = 50;
},
{
glyphname = three;
lastChange = "2024-09-21 16:40:38 +0000";
layers = (
{
layerId = m01;
shapes = (
{
closed = 1;
nodes = (
(166,-6,o),
(178,7,o),
(173,22,cs),
(171,30,o),
(168,36,o),
(161,40,cs),
(151,47,o),
(144,55,o),
(138,65,cs),
(135,69,o),
(134,73,o),
(140,76,c),
(143,71,o),
(143,66,o),
(145,61,cs),
(146,57,o),
(148,54,o),
(152,54,cs),
(156,55,o),
(158,58,o),
(160,61,c),
(160,64,l),
(167,86,o),
(177,105,o),
(193,122,cs),
(207,138,ls),
(213,145,o),
(219,153,o),
(224,161,c),
(227,169,o),
(229,176,o),
(227,185,cs),
(226,192,o),
(223,198,o),
(221,205,c),
(243,211,o),
(291,210,o),
(303,204,c),
(300,199,o),
(295,196,o),
(290,192,cs),
(278,183,o),
(265,174,o),
(253,163,cs),
(247,157,o),
(247,157,o),
(251,150,c),
(251,149,o),
(252,148,o),
(252,147,c),
(251,145,o),
(249,144,o),
(247,144,c),
(238,139,o),
(229,134,o),
(221,128,cs),
(212,121,o),
(213,113,o),
(223,108,cs),
(230,104,o),
(236,103,o),
(243,101,cs),
(248,100,o),
(253,99,o),
(256,96,cs),
(268,86,o),
(280,79,o),
(293,70,cs),
(306,61,o),
(321,59,o),
(337,62,cs),
(340,63,o),
(343,64,o),
(344,67,c),
(339,74,o),
(331,70,o),
(325,74,c),
(336,79,o),
(347,82,o),
(356,89,c),
(353,92,ls),
(343,102,o),
(339,103,o),
(326,98,cs),
(321,96,o),
(316,93,o),
(310,92,c),
(291,121,l),
(294,124,o),
(296,127,o),
(296,132,cs),
(296,138,o),
(299,142,o),
(303,147,cs),
(307,151,o),
(312,155,o),
(317,159,cs),
(321,162,o),
(326,165,o),
(326,172,cs),
(326,175,o),
(328,177,o),
(330,179,cs),
(339,187,o),
(348,193,o),
(358,199,cs),
(362,202,o),
(366,204,o),
(370,208,c),
(377,218,o),
(377,222,o),
(368,229,c),
(373,237,o),
(373,239,o),
(364,241,c),
(360,243,l),
(341,248,o),
(322,249,o),
(302,249,cs),
(286,248,o),
(270,249,o),
(254,251,c),
(255,267,o),
(252,272,o),
(237,277,cs),
(227,280,o),
(217,284,o),
(208,290,cs),
(205,292,o),
(202,293,o),
(200,297,c),
(205,298,o),
(211,299,o),
(209,306,c),
(234,312,o),
(257,319,o),
(281,322,c),
(282,320,o),
(281,319,o),
(280,318,cs),
(276,312,o),
(277,308,o),
(285,306,c),
(288,304,o),
(292,304,o),
(296,304,cs),
(298,304,o),
(301,304,o),
(303,302,cs),
(319,289,l),
(317,286,o),
(315,283,o),
(312,282,c),
(310,283,o),
(308,284,o),
(305,285,cs),
(303,286,o),
(301,284,o),
(300,282,cs),
(298,276,o),
(303,267,o),
(309,263,c),
(316,260,o),
(320,260,o),
(325,266,cs),
(332,273,o),
(337,281,o),
(341,289,c),
(340,295,o),
(335,298,o),
(333,303,c),
(349,307,ls),
(350,307,o),
(352,307,o),
(353,305,cs),
(354,304,o),
(353,302,o),
(352,301,cs),
(350,298,o),
(348,295,o),
(346,291,cs),
(344,286,o),
(346,282,o),
(351,281,cs),
(359,278,o),
(365,280,o),
(371,286,c),
(372,288,o),
(373,290,o),
(376,291,cs),
(385,293,o),
(385,293,o),
(384,303,cs),
(384,310,o),
(382,317,o),
(382,324,cs),
(382,335,o),
(381,336,o),
(370,335,cs),
(360,334,o),
(349,332,o),
(338,332,cs),
(329,333,o),
(319,334,o),
(311,341,cs),
(307,344,o),
(303,345,o),
(299,347,c),
(297,347,o),
(294,347,o),
(293,349,c),
(296,357,o),
(301,350,o),
(305,353,c),
(308,358,o),
(306,364,o),
(305,370,c),
(304,372,o),
(303,374,o),
(305,377,c),
(317,389,l),
(320,384,o),
(321,378,o),
(321,371,cs),
(321,366,o),
(320,361,o),
(323,356,cs),
(327,351,o),
(332,351,o),
(335,356,cs),
(339,362,o),
(341,369,o),
(341,376,cs),
(341,380,o),
(340,384,o),
(336,385,cs),
(332,385,o),
(332,388,o),
(331,391,cs),
(330,398,o),
(333,403,o),
(342,407,c),
(363,389,l),
(357,384,o),
(354,390,o),
(350,392,c),
(347,390,o),
(345,386,o),
(345,382,cs),
(344,375,o),
(351,373,o),
(354,368,c),
(352,360,o),
(346,354,o),
(350,346,c),
(355,344,o),
(358,345,o),
(362,348,cs),
(367,353,o),
(372,357,o),
(379,360,cs),
(382,361,o),
(384,363,o),
(387,365,cs),
(392,368,o),
(393,372,o),
(392,377,cs),
(384,412,ls),
(383,416,o),
(382,421,o),
(379,425,c),
(371,425,o),
(363,425,o),
(356,429,c),
(355,430,o),
(353,430,o),
(351,430,cs),
(323,428,ls),
(319,428,o),
(317,426,o),
(315,422,cs),
(305,403,o),
(292,387,o),
(276,373,cs),
(259,357,o),
(240,344,o),
(215,343,c),
(210,342,o),
(205,341,o),
(199,340,cs),
(168,334,o),
(137,326,o),
(106,320,c),
(101,320,o),
(96,318,o),
(91,320,c),
(92,326,o),
(93,331,o),
(97,336,c),
(111,325,o),
(112,325,o),
(128,334,cs),
(138,339,o),
(148,342,o),
(159,336,c),
(162,335,o),
(165,334,o),
(169,337,c),
(166,346,o),
(156,348,o),
(150,353,c),
(155,364,l),
(165,364,o),
(173,361,o),
(177,352,cs),
(178,350,o),
(180,348,o),
(182,347,c),
(186,342,o),
(189,341,o),
(195,344,cs),
(202,347,o),
(208,352,o),
(214,357,cs),
(224,366,l),
(225,364,o),
(224,361,o),
(225,359,cs),
(226,356,o),
(228,354,o),
(232,354,cs),
(236,354,o),
(238,357,o),
(238,361,cs),
(239,366,o),
(236,369,o),
(233,372,cs),
(228,377,o),
(222,380,o),
(218,386,cs),
(216,388,o),
(213,388,o),
(210,387,cs),
(207,386,o),
(207,383,o),
(207,381,c),
(208,378,o),
(206,377,o),
(203,376,c),
(202,383,o),
(203,390,o),
(207,396,c),
(213,392,o),
(215,396,o),
(217,403,c),
(219,399,ls),
(220,396,o),
(223,394,o),
(226,396,c),
(229,397,o),
(229,399,o),
(228,403,cs),
(225,415,o),
(227,418,o),
(239,421,cs),
(245,423,o),
(248,429,o),
(247,434,cs),
(247,439,o),
(244,440,o),
(237,441,cs),
(233,441,o),
(228,440,o),
(223,442,c),
(222,454,o),
(221,465,o),
(228,478,c),
(217,480,o),
(206,477,o),
(196,480,c),
(199,485,o),
(204,485,o),
(208,483,c),
(210,487,ls),
(211,490,o),
(212,493,o),
(209,495,cs),
(207,497,o),
(204,495,o),
(202,494,cs),
(198,492,o),
(196,489,o),
(193,486,c),
(179,491,o),
(170,480,o),
(158,472,c),
(162,479,o),
(167,483,o),
(171,487,cs),
(174,491,o),
(180,493,o),
(183,500,c),
(169,494,o),
(158,488,o),
(151,478,cs),
(145,470,o),
(137,465,o),
(129,457,c),
(130,464,o),
(132,468,o),
(130,473,c),
(121,468,o),
(119,459,o),
(115,451,cs),
(113,447,o),
(113,443,o),
(116,439,cs),
(118,436,o),
(120,433,o),
(119,429,c),
(114,425,o),
(107,427,o),
(102,421,c),
(108,418,o),
(114,423,o),
(120,421,c),
(121,412,o),
(122,402,o),
(117,394,cs),
(111,381,o),
(105,368,o),
(100,354,cs),
(99,352,o),
(99,348,o),
(96,347,cs),
(92,346,o),
(91,342,o),
(90,339,cs),
(83,318,l),
(74,317,o),
(66,319,o),
(58,320,cs),
(52,320,o),
(52,320,o),
(51,314,cs),
(49,302,o),
(50,289,o),
(53,277,cs),
(55,268,o),
(59,263,o),
(69,260,cs),
(92,253,o),
(114,242,o),
(135,230,cs),
(140,227,o),
(143,222,o),
(144,216,cs),
(150,189,ls),
(151,186,o),
(151,183,o),
(154,180,c),
(163,181,o),
(165,191,o),
(172,193,c),
(176,184,o),
(174,176,o),
(169,168,cs),
(165,163,o),
(159,158,o),
(154,154,cs),
(144,147,o),
(134,142,o),
(124,136,cs),
(118,132,o),
(111,129,o),
(103,129,cs),
(99,129,o),
(95,128,o),
(93,126,cs),
(91,123,o),
(95,122,o),
(94,119,c),
(75,109,ls),
(65,104,o),
(64,98,o),
(71,89,cs),
(80,77,ls),
(83,74,o),
(86,70,o),
(89,63,c),
(74,71,ls),
(71,73,o),
(67,75,o),
(63,76,c),
(56,76,o),
(53,73,o),
(54,66,cs),
(55,60,o),
(59,55,o),
(65,52,cs),
(76,48,ls),
(87,44,o),
(96,37,o),
(101,26,cs),
(106,15,ls),
(108,11,o),
(111,8,o),
(115,6,c),
(127,3,o),
(138,-1,o),
(150,-3,cs)
);
},
{
closed = 1;
nodes = (
(135,43,o),
(135,43,o),
(134,43,c),
(113,57,o),
(106,80,o),
(102,104,cs),
(100,114,o),
(102,116,o),
(115,121,c),
(117,110,o),
(114,99,o),
(114,87,c),
(123,86,o),
(129,94,o),
(136,94,c),
(139,88,o),
(139,84,o),
(134,79,cs),
(127,74,o),
(127,70,o),
(130,63,cs),
(133,58,o),
(136,54,o),
(140,49,c),
(139,46,o),
(138,44,o),
(136,42,c)
);
},
{
closed = 1;
nodes = (
(246,133,l),
(249,135,o),
(251,138,o),
(253,136,cs),
(261,129,o),
(272,128,o),
(282,125,c),
(285,123,l),
(283,116,o),
(290,112,o),
(292,106,c),
(289,103,o),
(286,101,o),
(282,104,cs)
);
},
{
closed = 1;
nodes = (
(149,98,o),
(150,101,o),
(149,103,cs),
(147,110,o),
(143,111,o),
(137,108,cs),
(132,105,o),
(128,101,o),
(121,98,c),
(123,124,l),
(124,127,o),
(127,128,o),
(129,130,c),
(156,147,ls),
(162,151,o),
(168,156,o),
(173,162,cs),
(183,173,o),
(186,185,o),
(181,198,cs),
(179,203,o),
(180,205,o),
(182,209,c),
(198,229,o),
(191,227,o),
(218,230,cs),
(223,231,ls),
(229,232,o),
(229,233,o),
(229,239,c),
(228,242,o),
(226,245,o),
(227,248,c),
(228,248,o),
(228,249,o),
(228,248,c),
(255,239,o),
(282,241,o),
(310,239,cs),
(323,239,o),
(336,238,o),
(350,235,c),
(338,227,o),
(335,218,o),
(342,209,c),
(340,205,o),
(336,206,o),
(333,205,cs),
(321,202,ls),
(316,201,o),
(313,198,o),
(311,193,cs),
(309,189,l),
(305,176,o),
(302,177,o),
(316,169,c),
(303,159,o),
(288,151,o),
(285,134,c),
(281,133,o),
(279,135,o),
(276,135,cs),
(270,135,o),
(266,137,o),
(265,144,cs),
(264,148,o),
(261,152,o),
(259,156,c),
(262,160,o),
(265,163,o),
(269,166,cs),
(298,188,ls),
(303,192,o),
(308,196,o),
(311,201,cs),
(316,208,o),
(315,212,o),
(308,215,cs),
(301,218,o),
(293,219,o),
(286,219,cs),
(262,221,o),
(238,220,o),
(214,218,cs),
(211,218,o),
(207,218,o),
(206,214,cs),
(205,211,o),
(208,209,o),
(210,207,cs),
(215,201,o),
(218,193,o),
(221,186,cs),
(224,177,o),
(223,169,o),
(216,162,c),
(207,163,o),
(199,160,o),
(190,158,cs),
(183,157,o),
(181,155,o),
(181,149,cs),
(182,139,o),
(178,133,o),
(171,128,cs),
(161,121,o),
(158,113,o),
(153,96,c)
);
},
{
closed = 1;
nodes = (
(179,234,o),
(178,241,o),
(175,249,cs),
(172,259,o),
(167,266,o),
(154,266,cs),
(113,268,ls),
(104,268,o),
(95,269,o),
(86,271,c),
(76,275,ls),
(66,279,o),
(60,285,o),
(61,297,cs),
(62,301,o),
(60,305,o),
(62,310,c),
(63,310,o),
(64,310,o),
(65,310,cs),
(90,306,o),
(113,312,o),
(137,317,cs),
(169,323,o),
(201,332,o),
(233,336,cs),
(250,338,o),
(267,341,o),
(285,339,cs),
(293,339,o),
(300,337,o),
(307,333,cs),
(323,322,o),
(340,323,o),
(358,326,cs),
(375,330,l),
(372,317,o),
(381,306,o),
(376,295,c),
(371,303,o),
(372,313,o),
(368,321,c),
(363,320,o),
(363,318,o),
(363,315,cs),
(363,310,o),
(365,305,o),
(366,299,cs),
(368,292,o),
(366,289,o),
(359,287,cs),
(356,286,o),
(353,285,o),
(350,287,c),
(351,291,o),
(354,295,o),
(356,297,cs),
(359,300,o),
(360,303,o),
(358,307,cs),
(356,311,o),
(354,314,o),
(349,314,cs),
(334,312,ls),
(330,312,o),
(325,311,o),
(322,315,cs),
(321,317,o),
(319,317,o),
(317,316,c),
(315,314,o),
(315,312,o),
(316,310,cs),
(318,306,o),
(321,303,o),
(323,300,cs),
(335,287,l),
(331,281,o),
(325,275,o),
(319,269,cs),
(317,267,o),
(314,267,o),
(312,269,cs),
(309,271,o),
(308,272,o),
(306,279,c),
(310,279,o),
(311,275,o),
(315,275,c),
(320,278,o),
(323,283,o),
(326,287,c),
(325,291,o),
(322,293,o),
(320,296,cs),
(317,299,o),
(314,301,o),
(312,304,c),
(309,312,o),
(303,315,o),
(295,315,c),
(295,316,o),
(295,317,o),
(295,317,c),
(299,326,o),
(297,331,o),
(286,331,cs),
(276,331,o),
(266,329,o),
(256,326,cs),
(213,315,l),
(211,315,o),
(210,313,o),
(207,315,c),
(213,320,o),
(222,317,o),
(227,324,c),
(224,327,o),
(220,327,o),
(216,327,cs),
(212,327,o),
(207,326,o),
(203,324,cs),
(200,322,o),
(199,320,o),
(199,317,cs),
(200,313,o),
(200,310,o),
(199,306,c),
(195,304,o),
(191,304,o),
(186,304,cs),
(181,304,o),
(177,302,o),
(176,296,c),
(170,283,l),
(158,282,o),
(146,284,o),
(134,286,cs),
(86,293,l),
(81,294,ls),
(79,294,o),
(76,293,o),
(75,290,c),
(75,287,o),
(77,286,o),
(80,286,c),
(94,283,ls),
(118,278,o),
(142,275,o),
(167,274,cs),
(175,273,o),
(176,274,o),
(179,282,cs),
(180,286,o),
(180,291,o),
(183,296,c),
(186,297,o),
(189,297,o),
(192,294,cs),
(204,282,o),
(218,275,o),
(233,270,cs),
(242,267,o),
(247,263,o),
(247,253,c),
(246,251,o),
(244,252,o),
(242,253,cs),
(230,258,ls),
(227,259,o),
(224,261,o),
(221,259,cs),
(218,256,o),
(220,253,o),
(220,249,c),
(222,239,l),
(198,238,ls),
(190,237,o),
(185,231,o),
(179,224,c)
);
},
{
closed = 1;
nodes = (
(316,184,o),
(317,188,o),
(319,193,cs),
(320,195,o),
(322,196,o),
(325,197,cs),
(342,202,ls),
(349,204,o),
(350,206,o),
(346,212,cs),
(344,215,o),
(342,217,o),
(341,221,c),
(346,225,o),
(351,227,o),
(358,224,cs),
(361,222,o),
(366,222,o),
(370,219,c),
(369,212,o),
(365,207,o),
(359,203,cs),
(325,183,l),
(323,181,o),
(321,178,o),
(316,179,c)
);
},
{
closed = 1;
nodes = (
(108,336,o),
(107,336,o),
(105,338,c),
(105,342,o),
(107,346,o),
(108,351,cs),
(113,366,o),
(119,380,o),
(126,394,cs),
(132,405,o),
(133,416,o),
(129,428,cs),
(126,438,o),
(131,446,o),
(136,453,cs),
(139,456,o),
(142,458,o),
(147,458,c),
(154,460,o),
(163,460,o),
(168,468,cs),
(172,474,o),
(178,479,o),
(185,482,c),
(187,479,o),
(184,475,o),
(188,472,c),
(198,473,o),
(209,475,o),
(220,473,c),
(220,466,o),
(218,459,o),
(216,452,c),
(216,449,o),
(215,446,o),
(215,443,cs),
(216,436,o),
(220,433,o),
(226,433,cs),
(231,433,o),
(235,435,o),
(240,434,c),
(240,431,o),
(238,429,o),
(236,429,c),
(226,426,o),
(220,420,o),
(221,410,c),
(205,405,o),
(194,389,o),
(197,374,c),
(197,371,o),
(198,368,o),
(201,367,cs),
(204,366,o),
(206,368,o),
(207,370,c),
(212,376,l),
(214,377,o),
(215,378,o),
(217,376,cs),
(218,375,o),
(218,374,o),
(218,372,c),
(217,371,o),
(217,370,o),
(216,369,cs),
(209,361,o),
(200,354,o),
(191,348,c),
(187,350,o),
(186,353,o),
(184,356,c),
(188,358,o),
(191,355,o),
(194,358,c),
(194,362,o),
(191,363,o),
(188,364,c),
(180,369,o),
(171,371,o),
(162,373,cs),
(159,374,o),
(155,374,o),
(152,377,c),
(151,382,o),
(153,386,o),
(155,390,cs),
(159,402,o),
(158,404,o),
(145,402,cs),
(144,402,o),
(142,401,o),
(140,403,c),
(139,412,o),
(141,421,o),
(145,431,c),
(152,429,o),
(151,420,o),
(158,418,c),
(158,427,o),
(154,432,o),
(148,436,cs),
(145,438,o),
(142,436,o),
(141,433,c),
(136,424,o),
(134,414,o),
(133,403,cs),
(133,397,o),
(135,395,o),
(141,394,cs),
(147,394,l),
(146,385,o),
(139,377,o),
(146,368,c),
(139,355,ls),
(138,353,o),
(137,352,o),
(135,351,cs),
(126,347,o),
(118,342,o),
(109,337,c)
);
},
{
closed = 1;
nodes = (
(230,358,o),
(229,359,o),
(229,361,c),
(228,363,o),
(228,366,o),
(229,369,c),
(233,368,o),
(235,365,o),
(235,361,cs),
(235,360,o),
(234,358,o),
(232,358,cs)
);
},
{
closed = 1;
nodes = (
(187,397,o),
(189,400,o),
(192,403,c),
(193,405,o),
(195,406,o),
(194,410,c),
(194,410,o),
(192,411,o),
(191,411,cs),
(190,411,o),
(189,412,o),
(188,413,c),
(187,422,o),
(186,430,o),
(186,440,c),
(194,437,o),
(197,442,o),
(198,448,c),
(202,439,o),
(196,429,o),
(198,420,c),
(200,420,o),
(201,420,o),
(201,421,c),
(205,430,o),
(206,439,o),
(204,449,cs),
(204,451,o),
(202,453,o),
(200,454,c),
(191,456,o),
(179,448,o),
(179,439,cs),
(179,407,ls),
(179,403,o),
(178,400,o),
(183,398,cs)
);
},
{
closed = 1;
nodes = (
(354,355,o),
(357,360,o),
(359,363,cs),
(360,364,o),
(361,364,o),
(361,364,c),
(370,363,o),
(370,363,o),
(374,371,cs),
(380,380,ls),
(381,382,o),
(382,383,o),
(378,385,c),
(373,381,o),
(371,374,o),
(366,368,c),
(359,371,o),
(353,375,o),
(349,384,c),
(355,383,o),
(358,380,o),
(362,381,cs),
(365,382,o),
(368,383,o),
(370,385,cs),
(374,388,o),
(375,391,o),
(371,395,cs),
(364,401,o),
(356,406,o),
(348,411,cs),
(342,414,o),
(332,409,o),
(329,402,cs),
(326,395,o),
(326,389,o),
(330,382,cs),
(335,373,o),
(336,371,o),
(330,360,c),
(325,363,o),
(326,368,o),
(325,372,c),
(325,377,o),
(325,382,o),
(324,386,cs),
(321,393,o),
(316,396,o),
(311,390,cs),
(308,387,o),
(305,384,o),
(302,382,c),
(298,384,o),
(297,386,o),
(300,389,cs),
(307,398,o),
(314,408,o),
(319,418,cs),
(321,421,o),
(325,421,o),
(328,421,cs),
(344,423,o),
(360,422,o),
(376,417,c),
(386,377,ls),
(387,374,o),
(386,372,o),
(384,371,c),
(380,367,o),
(376,364,o),
(372,361,cs),
(355,349,l)
);
}
);
width = 442;
}
);
note = three;
unicode = 51;
},
{
glyphname = four;
lastChange = "2024-09-21 16:40:38 +0000";
layers = (
{
layerId = m01;
shapes = (
{
closed = 1;
nodes = (
(107,35,o),
(122,35,o),
(136,44,cs),
(149,53,o),
(162,63,o),
(174,73,cs),
(247,132,ls),
(251,136,o),
(255,138,o),
(260,138,cs),
(277,140,o),
(293,145,o),
(306,156,cs),
(350,188,ls),
(356,193,o),
(363,198,o),
(369,204,cs),
(379,215,o),
(384,227,o),
(380,242,cs),
(379,247,o),
(381,250,o),
(385,253,cs),
(397,260,o),
(408,268,o),
(418,277,c),
(419,277,o),
(420,278,o),
(419,279,cs),
(417,281,o),
(416,284,o),
(413,285,c),
(401,276,o),
(390,267,o),
(377,260,c),
(373,273,l),
(379,278,l),
(444,332,l),
(464,350,ls),
(465,351,o),
(467,352,o),
(466,355,c),
(465,355,o),
(464,355,o),
(464,355,c),
(455,350,ls),
(423,329,o),
(392,305,o),
(362,279,cs),
(334,253,l),
(331,249,o),
(327,245,o),
(325,238,c),
(341,244,o),
(350,256,o),
(363,264,c),
(364,260,o),
(367,257,o),
(366,253,c),
(335,229,ls),
(333,227,o),
(331,227,o),
(329,228,c),
(314,230,o),
(301,234,o),
(289,243,cs),
(285,246,o),
(284,250,o),
(289,253,cs),
(297,259,o),
(304,267,o),
(311,274,cs),
(316,279,o),
(319,284,o),
(325,287,c),
(330,285,o),
(333,280,o),
(340,281,c),
(339,288,o),
(333,290,o),
(331,295,c),
(334,298,o),
(337,302,o),
(341,304,c),
(349,300,o),
(353,291,o),
(363,288,c),
(362,293,o),
(364,296,o),
(368,298,cs),
(383,307,o),
(395,318,o),
(407,329,cs),
(409,331,o),
(412,333,o),
(410,336,c),
(405,336,o),
(405,336,o),
(403,334,c),
(390,325,o),
(377,314,o),
(366,302,c),
(364,301,o),
(363,298,o),
(360,299,c),
(357,303,o),
(352,307,o),
(348,311,c),
(350,315,o),
(352,317,o),
(355,319,c),
(380,344,ls),
(382,346,o),
(385,349,o),
(382,352,cs),
(379,356,o),
(376,354,o),
(373,352,cs),
(368,349,o),
(363,344,o),
(358,340,cs),
(334,317,o),
(312,291,o),
(290,266,cs),
(286,261,o),
(284,255,o),
(278,252,cs),
(276,251,o),
(277,248,o),
(278,246,cs),
(279,242,o),
(282,240,o),
(285,238,cs),
(301,226,o),
(319,221,o),
(339,222,cs),
(341,222,o),
(344,222,o),
(345,224,cs),
(350,233,o),
(359,235,o),
(368,241,c),
(369,229,o),
(367,220,o),
(358,214,cs),
(329,195,l),
(328,195,o),
(327,193,o),
(326,193,cs),
(318,194,o),
(313,189,o),
(308,185,cs),
(284,168,ls),
(281,166,o),
(278,163,o),
(275,163,cs),
(256,161,o),
(237,162,o),
(223,176,cs),
(216,183,o),
(214,183,o),
(206,177,cs),
(202,174,ls),
(173,150,o),
(146,125,o),
(119,99,cs),
(114,94,o),
(109,90,o),
(105,84,cs),
(101,76,o),
(93,70,o),
(87,62,c),
(80,66,o),
(75,71,o),
(70,78,cs),
(61,91,o),
(62,118,o),
(71,128,cs),
(103,163,o),
(135,198,o),
(169,231,cs),
(171,233,o),
(172,235,o),
(175,234,c),
(176,232,o),
(179,230,o),
(179,226,c),
(162,211,ls),
(137,189,o),
(114,166,o),
(93,141,cs),
(91,139,o),
(87,137,o),
(88,132,c),
(105,147,l),
(178,216,ls),
(181,219,o),
(184,222,o),
(189,220,c),
(191,226,o),
(189,230,o),
(187,234,cs),
(185,240,o),
(182,246,o),
(181,252,cs),
(180,257,o),
(180,261,o),
(183,265,cs),
(192,276,o),
(200,288,o),
(210,299,c),
(210,299,o),
(211,299,o),
(212,299,c),
(211,262,o),
(226,234,o),
(254,211,c),
(251,206,o),
(244,204,o),
(241,196,c),
(248,199,o),
(252,202,o),
(256,206,cs),
(259,208,o),
(261,209,o),
(264,205,c),
(253,195,ls),
(249,191,o),
(245,188,o),
(245,182,c),
(255,182,o),
(271,193,o),
(274,200,cs),
(275,203,o),
(274,205,o),
(271,206,cs),
(266,208,o),
(263,211,o),
(260,214,cs),
(246,230,o),
(234,247,o),
(226,267,cs),
(220,285,o),
(221,302,o),
(228,319,cs),
(234,333,o),
(252,340,o),
(268,335,c),
(252,315,l),
(250,319,o),
(256,321,o),
(253,324,c),
(250,325,o),
(250,323,o),
(249,322,cs),
(243,314,o),
(240,305,o),
(240,295,cs),
(239,265,o),
(253,242,o),
(275,222,cs),
(287,211,o),
(302,206,o),
(318,203,cs),
(329,201,o),
(339,205,o),
(348,211,cs),
(350,212,o),
(352,214,o),
(352,217,c),
(348,221,o),
(345,219,o),
(341,218,cs),
(334,217,o),
(328,215,o),
(321,216,cs),
(285,222,o),
(252,258,o),
(249,294,cs),
(249,297,o),
(248,299,o),
(251,301,cs),
(258,306,o),
(263,314,o),
(269,320,c),
(282,314,l),
(278,306,o),
(269,302,o),
(268,293,c),
(280,297,o),
(326,343,o),
(329,354,c),
(319,349,o),
(313,341,o),
(305,335,c),
(286,340,l),
(309,370,l),
(308,374,o),
(307,377,o),
(304,379,c),
(275,343,l),
(250,351,o),
(235,347,o),
(219,328,cs),
(213,320,l),
(175,265,ls),
(172,261,o),
(169,256,o),
(171,252,cs),
(173,245,o),
(169,241,o),
(165,237,cs),
(157,230,l),
(156,231,o),
(155,231,o),
(154,232,cs),
(142,242,o),
(130,239,o),
(119,231,cs),
(115,228,o),
(112,225,o),
(109,222,cs),
(100,211,o),
(92,200,o),
(85,188,cs),
(75,173,o),
(75,170,o),
(90,159,c),
(64,128,ls),
(63,127,o),
(62,126,o),
(62,126,c),
(54,122,o),
(51,115,o),
(51,107,c),
(48,85,o),
(55,67,o),
(73,54,cs),
(79,50,o),
(85,45,o),
(91,42,cs)
);
},
{
closed = 1;
nodes = (
(98,93,l),
(181,171,l),
(201,190,ls),
(203,192,o),
(206,194,o),
(204,198,c),
(187,191,o),
(84,90,o),
(77,75,c)
);
},
{
closed = 1;
nodes = (
(120,134,o),
(157,172,o),
(193,211,c),
(195,212,o),
(196,213,o),
(193,216,c),
(182,209,o),
(173,199,o),
(163,189,cs),
(134,160,l),
(105,131,ls),
(96,121,o),
(86,112,o),
(79,100,c)
);
},
{
closed = 1;
nodes = (
(129,216,ls),
(126,222,o),
(129,227,o),
(136,228,cs),
(141,229,o),
(145,227,o),
(150,223,c),
(134,207,l)
);
},
{
closed = 1;
nodes = (
(270,170,o),
(289,186,o),
(291,194,c),
(280,192,o),
(258,173,o),
(256,165,c)
);
},
{
closed = 1;
nodes = (
(278,331,o),
(280,334,o),
(284,337,c),
(287,333,o),
(292,331,o),
(297,328,c),
(290,317,o),
(283,327,o),
(276,326,c)
);
},
{
closed = 1;
nodes = (
(346,418,l),
(344,420,o),
(343,423,o),
(340,424,c),
(323,404,ls),
(318,399,o),
(317,394,o),
(322,387,c)
);
},
{
closed = 1;
nodes = (
(461,311,l),
(453,315,o),
(453,315,o),
(448,311,cs),
(429,297,l),
(431,294,o),
(432,291,o),
(436,291,c)
);
},
{
closed = 1;
nodes = (
(363,439,o),
(367,447,o),
(371,456,c),
(364,452,o),
(358,446,o),
(353,440,cs),
(351,437,o),
(354,434,o),
(356,432,c)
);
},
{
closed = 1;
nodes = (
(364,384,o),
(367,387,o),
(370,390,cs),
(422,442,ls),
(427,447,o),
(431,453,o),
(434,460,c),
(427,459,o),
(423,455,o),
(419,451,cs),
(398,432,o),
(378,413,o),
(358,394,c),
(357,392,o),
(356,391,o),
(355,390,cs),
(354,388,o),
(353,386,o),
(355,385,c),
(356,382,o),
(358,382,o),
(361,383,cs)
);
},
{
closed = 1;
nodes = (
(507,348,ls),
(509,350,o),
(511,351,o),
(513,355,c),
(499,348,o),
(488,340,o),
(477,332,c),
(480,328,o),
(482,327,o),
(486,330,cs)
);
},
{
closed = 1;
nodes = (
(441,402,o),
(452,414,o),
(464,426,c),
(458,426,o),
(458,426,o),
(456,424,cs),
(445,415,o),
(434,405,o),
(427,393,c)
);
},
{
closed = 1;
nodes = (
(478,384,o),
(493,396,o),
(508,410,c),
(496,409,o),
(470,387,o),
(462,374,c)
);
}
);
width = 563;
}
);
note = four;
unicode = 52;
},
{
glyphname = five;
lastChange = "2024-09-21 16:40:38 +0000";
layers = (
{
layerId = m01;
shapes = (
{
closed = 1;
nodes = (
(483,45,o),
(490,54,o),
(494,65,cs),
(499,77,o),
(507,79,o),
(517,78,cs),
(525,77,ls),
(533,77,o),
(540,74,o),
(548,72,c),
(548,78,o),
(546,83,o),
(542,86,cs),
(532,94,o),
(521,92,o),
(508,90,c),
(510,104,o),
(512,116,o),
(513,129,cs),
(515,174,o),
(495,208,o),
(453,225,cs),
(405,246,o),
(359,238,o),
(317,208,cs),
(314,206,o),
(311,203,o),
(308,202,c),
(304,203,o),
(302,205,o),
(299,208,cs),
(289,218,o),
(281,230,o),
(276,244,cs),
(270,259,o),
(268,274,o),
(271,289,cs),
(276,316,o),
(288,339,o),
(309,358,cs),
(317,365,o),
(329,369,o),
(333,381,c),
(333,381,o),
(336,381,o),
(336,383,c),
(330,387,o),
(330,387,o),
(324,387,cs),
(303,385,o),
(283,382,o),
(263,374,cs),
(230,361,o),
(207,338,o),
(196,304,cs),
(192,291,o),
(189,279,o),
(188,266,cs),
(185,236,o),
(188,208,o),
(207,184,cs),
(209,182,o),
(211,180,o),
(211,176,c),
(190,170,l),
(185,184,ls),
(181,196,o),
(175,206,o),
(166,214,cs),
(154,225,o),
(140,230,o),
(124,228,cs),
(109,225,o),
(95,219,o),
(82,210,cs),
(79,208,o),
(76,205,o),
(73,202,cs),
(72,201,o),
(70,199,o),
(72,196,cs),
(74,194,o),
(76,195,o),
(78,196,cs),
(86,200,o),
(96,201,o),
(104,201,cs),
(125,203,o),
(136,196,o),
(143,176,cs),
(150,155,l),
(125,134,o),
(118,124,o),
(119,109,c),
(147,132,o),
(178,145,o),
(215,142,cs),
(253,138,o),
(280,118,o),
(300,86,c),
(305,96,o),
(305,105,o),
(305,114,cs),
(305,123,o),
(301,132,o),
(298,141,c),
(302,145,o),
(306,149,o),
(310,153,cs),
(340,179,o),
(374,194,o),
(415,186,cs),
(426,184,o),
(436,180,o),
(444,173,cs),
(456,163,o),
(464,151,o),
(470,137,cs),
(479,114,o),
(481,90,o),
(479,66,cs),
(474,35,l)
);
},
{
closed = 1;
nodes = (
(57,331,o),
(60,334,o),
(60,337,cs),
(60,340,o),
(58,342,o),
(55,342,cs),
(52,342,o),
(50,339,o),
(50,336,cs),
(50,334,o),
(51,332,o),
(54,331,c)
);
},
{
closed = 1;
nodes = (
(144,274,o),
(146,276,o),
(146,279,c),
(145,282,o),
(144,285,o),
(141,284,c),
(138,284,o),
(136,282,o),
(136,279,cs),
(136,276,o),
(138,274,o),
(141,274,cs)
);
},
{
closed = 1;
nodes = (
(121,361,o),
(116,364,o),
(110,364,c),
(110,369,o),
(112,372,o),
(114,378,c),
(119,372,o),
(124,371,o),
(131,370,c),
(126,359,l)
);
},
{
closed = 1;
nodes = (
(138,312,o),
(139,314,o),
(139,316,cs),
(138,327,l),
(135,350,ls),
(134,360,o),
(138,367,o),
(147,372,cs),
(152,374,o),
(158,376,o),
(163,378,cs),
(166,379,o),
(170,380,o),
(169,384,cs),
(168,389,o),
(164,387,o),
(161,386,cs),
(157,385,l),
(134,381,ls),
(127,380,o),
(123,382,o),
(120,388,cs),
(118,393,o),
(115,399,o),
(116,405,cs),
(116,408,o),
(116,412,o),
(113,413,cs),
(108,414,o),
(108,419,o),
(103,421,c),
(102,414,o),
(104,409,o),
(106,403,c),
(106,399,o),
(109,396,o),
(108,392,cs),
(105,378,o),
(104,362,o),
(89,354,c),
(87,352,o),
(86,350,o),
(87,347,c),
(89,344,o),
(92,345,o),
(94,346,cs),
(98,347,o),
(100,350,o),
(103,352,cs),
(113,359,o),
(120,356,o),
(124,345,c),
(125,339,o),
(126,334,o),
(127,329,cs),
(130,315,l),
(131,313,o),
(132,312,o),
(135,312,cs)
);
},
{
closed = 1;
nodes = (
(262,165,o),
(260,169,o),
(256,173,cs),
(231,197,o),
(211,224,o),
(207,260,cs),
(204,286,o),
(209,312,o),
(223,335,cs),
(227,341,o),
(231,347,o),
(239,349,cs),
(240,349,o),
(241,350,o),
(242,351,cs),
(263,367,o),
(288,372,o),
(314,377,c),
(313,373,o),
(310,372,o),
(308,371,cs),
(279,351,o),
(263,322,o),
(258,287,cs),
(255,265,o),
(260,245,o),
(271,226,cs),
(277,214,o),
(286,203,o),
(297,193,c),
(288,182,o),
(277,174,o),
(269,163,c)
);
},
{
closed = 1;
nodes = (
(95,450,o),
(93,458,o),
(91,460,cs),
(89,462,o),
(88,462,o),
(86,461,c),
(84,461,o),
(83,459,o),
(83,457,c),
(81,451,o),
(85,447,o),
(95,445,c)
);
},
{
closed = 1;
nodes = (
(195,382,o),
(198,384,o),
(198,387,cs),
(199,393,o),
(195,393,o),
(190,394,c),
(189,389,o),
(187,386,o),
(192,383,c)
);
},
{
closed = 1;
nodes = (
(422,307,o),
(425,310,o),
(425,313,c),
(424,316,o),
(422,317,o),
(420,317,cs),
(415,317,o),
(410,313,o),
(411,310,cs),
(412,307,o),
(414,306,o),
(417,307,c)
);
},
{
closed = 1;
nodes = (
(450,233,o),
(451,238,o),
(453,241,cs),
(455,245,ls),
(465,262,o),
(477,277,o),
(499,277,cs),
(501,277,o),
(503,278,o),
(504,280,cs),
(505,283,o),
(504,285,o),
(502,286,c),
(492,294,o),
(491,306,o),
(492,318,cs),
(493,327,o),
(495,337,o),
(499,346,cs),
(500,349,o),
(502,352,o),
(497,357,c),
(489,348,o),
(484,337,o),
(476,328,cs),
(468,319,o),
(459,312,o),
(448,307,c),
(446,307,o),
(445,310,o),
(442,309,c),
(444,303,o),
(448,298,o),
(449,292,cs),
(452,276,o),
(451,260,o),
(444,246,cs),
(442,242,o),
(441,238,o),
(445,235,c)
);
},
{
closed = 1;
nodes = (
(457,279,o),
(456,290,o),
(451,301,c),
(464,303,o),
(472,312,o),
(482,321,c),
(482,309,o),
(483,298,o),
(489,286,c),
(476,284,o),
(467,277,o),
(457,267,c)
);
},
{
closed = 1;
nodes = (
(535,267,o),
(538,271,o),
(537,274,c),
(537,277,o),
(536,279,o),
(533,279,cs),
(529,279,o),
(529,276,o),
(528,273,c),
(528,270,o),
(530,268,o),
(533,268,c)
);
},
{
closed = 1;
nodes = (
(512,368,o),
(517,369,o),
(518,376,cs),
(518,378,o),
(517,381,o),
(515,382,cs),
(512,383,o),
(510,382,o),
(509,380,c),
(507,378,o),
(504,376,o),
(505,372,c)
);
}
);
width = 598;
}
);
note = five;
unicode = 53;
},
{
glyphname = six;
lastChange = "2024-09-21 16:40:38 +0000";
layers = (
{
layerId = m01;
shapes = (
{
closed = 1;
nodes = (
(243,33,o),
(272,34,o),
(301,38,cs),
(326,42,o),
(350,46,o),
(374,55,cs),
(398,64,o),
(417,80,o),
(429,103,cs),
(435,113,o),
(440,123,o),
(443,134,cs),
(456,175,o),
(460,217,o),
(456,259,cs),
(454,283,o),
(449,305,o),
(438,326,cs),
(422,354,o),
(399,372,o),
(367,378,cs),
(351,380,o),
(335,380,o),
(319,378,cs),
(279,370,l),
(274,375,o),
(271,381,o),
(268,387,cs),
(261,406,o),
(259,426,o),
(263,446,cs),
(264,449,o),
(266,453,o),
(262,457,c),
(252,456,o),
(243,461,o),
(232,462,cs),
(222,463,o),
(211,463,o),
(201,459,c),
(202,427,o),
(203,396,o),
(198,364,c),
(188,364,ls),
(161,364,o),
(136,361,o),
(112,350,cs),
(88,340,o),
(71,323,o),
(63,299,cs),
(59,284,ls),
(49,244,o),
(48,203,o),
(54,163,cs),
(58,135,o),
(66,109,o),
(81,84,cs),
(94,63,o),
(112,49,o),
(137,44,cs),
(162,38,o),
(188,36,o),
(214,34,cs)
);
},
{
closed = 1;
nodes = (
(232,49,o),
(205,49,o),
(178,52,c),
(171,79,o),
(169,106,o),
(167,133,c),
(169,134,l),
(190,105,l),
(200,92,ls),
(206,86,o),
(210,86,o),
(215,93,cs),
(238,130,l),
(240,132,o),
(241,135,o),
(245,138,c),
(250,109,o),
(253,79,o),
(259,50,c)
);
},
{
closed = 1;
nodes = (
(140,57,o),
(112,61,o),
(95,89,cs),
(83,108,o),
(76,129,o),
(71,151,cs),
(62,196,o),
(62,240,o),
(74,284,cs),
(81,313,o),
(98,332,o),
(126,341,cs),
(148,348,o),
(169,352,o),
(192,350,c),
(163,342,ls),
(153,339,o),
(144,335,o),
(135,331,cs),
(123,325,o),
(115,316,o),
(111,304,cs),
(104,286,o),
(99,267,o),
(96,248,cs),
(89,211,o),
(84,174,o),
(80,137,cs),
(80,134,o),
(79,131,o),
(80,127,c),
(85,137,o),
(85,147,o),
(87,156,cs),
(94,191,o),
(98,225,o),
(106,259,cs),
(110,274,o),
(114,288,o),
(120,301,cs),
(124,311,o),
(130,318,o),
(139,323,cs),
(163,335,o),
(188,343,o),
(216,346,c),
(211,329,o),
(203,313,o),
(200,296,c),
(192,298,o),
(186,304,o),
(180,308,cs),
(172,312,o),
(171,313,o),
(165,306,cs),
(152,292,o),
(141,275,o),
(133,258,cs),
(128,247,o),
(125,235,o),
(121,223,cs),
(120,219,o),
(119,214,o),
(120,209,c),
(125,206,o),
(129,208,o),
(133,208,c),
(180,218,l),
(182,219,o),
(183,219,o),
(185,218,c),
(187,215,o),
(184,211,o),
(186,207,c),
(190,210,o),
(189,216,o),
(192,221,c),
(210,226,o),
(229,229,o),
(246,239,c),
(249,229,o),
(247,219,o),
(248,210,c),
(231,198,o),
(216,182,o),
(201,167,c),
(198,169,o),
(199,172,o),
(199,174,cs),
(199,181,o),
(197,188,o),
(194,195,cs),
(191,202,o),
(185,204,o),
(178,200,cs),
(172,197,o),
(167,193,o),
(163,188,cs),
(147,172,o),
(134,154,o),
(124,133,cs),
(122,128,o),
(120,122,o),
(117,117,cs),
(115,113,o),
(113,110,o),
(117,105,c),
(133,110,o),
(144,125,o),
(160,134,c),
(161,106,o),
(164,80,o),
(170,53,c)
);
},
{
closed = 1;
nodes = (
(251,147,l),
(254,149,o),
(255,146,o),
(256,145,cs),
(271,129,o),
(286,114,o),
(304,101,cs),
(306,99,o),
(308,97,o),
(310,95,cs),
(315,90,o),
(318,91,o),
(321,97,cs),
(336,124,ls),
(337,126,o),
(337,129,o),
(340,131,c),
(344,121,o),
(345,80,o),
(342,61,c),
(317,54,o),
(290,51,o),
(263,50,c)
);
},
{
closed = 1;
nodes = (
(203,107,o),
(201,110,o),
(198,113,cs),
(183,133,ls),
(178,140,o),
(172,145,o),
(165,148,c),
(186,171,l),
(201,135,l),
(212,141,o),
(219,149,o),
(227,156,cs),
(251,178,l),
(268,163,o),
(284,148,o),
(305,138,c),
(313,149,o),
(315,161,o),
(320,174,c),
(363,142,l),
(356,142,o),
(352,145,o),
(347,146,cs),
(339,148,o),
(339,148,o),
(335,142,cs),
(315,109,l),
(312,108,o),
(311,110,o),
(309,111,c),
(292,124,o),
(277,138,o),
(262,154,c),
(257,158,ls),
(252,162,o),
(249,162,o),
(245,157,cs),
(233,141,l),
(206,104,l)
);
},
{
closed = 1;
nodes = (
(176,277,l),
(222,241,l),
(222,239,l),
(149,226,l)
);
},
{
closed = 1;
nodes = (
(232,265,o),
(219,280,o),
(203,292,c),
(208,310,o),
(216,327,o),
(223,344,cs),
(225,349,o),
(230,351,o),
(237,349,c),
(242,317,o),
(244,284,o),
(246,251,c)
);
},
{
closed = 1;
nodes = (
(350,86,o),
(350,110,o),
(347,135,c),
(366,127,o),
(385,124,o),
(403,117,c),
(406,121,o),
(405,125,o),
(403,128,c),
(400,138,o),
(393,147,o),
(387,155,cs),
(376,171,o),
(363,184,o),
(348,195,cs),
(343,199,o),
(338,203,o),
(332,205,cs),
(324,207,o),
(319,205,o),
(316,198,cs),
(304,167,l),
(301,166,o),
(299,169,o),
(298,171,c),
(269,202,ls),
(265,207,o),
(261,212,o),
(253,213,c),
(253,258,o),
(248,303,o),
(244,348,c),
(264,329,o),
(285,310,o),
(303,290,c),
(285,269,ls),
(281,264,o),
(277,259,o),
(273,254,c),
(268,244,o),
(270,239,o),
(281,239,cs),
(296,238,o),
(311,236,o),
(326,234,cs),
(338,232,o),
(349,230,o),
(361,230,cs),
(365,230,o),
(369,229,o),
(374,232,c),
(349,241,o),
(324,243,o),
(298,248,c),
(308,261,o),
(319,274,o),
(331,286,c),
(348,267,o),
(367,250,o),
(379,227,c),
(381,228,o),
(385,228,o),
(389,226,c),
(382,262,o),
(368,294,o),
(343,321,c),
(341,322,o),
(339,320,o),
(336,318,cs),
(306,292,l),
(290,313,o),
(272,331,o),
(252,351,c),
(271,352,ls),
(297,353,o),
(322,353,o),
(347,346,cs),
(360,342,ls),
(371,338,o),
(378,331,o),
(382,320,cs),
(404,265,o),
(412,208,o),
(409,150,cs),
(409,128,l),
(413,137,o),
(413,146,o),
(414,154,cs),
(419,213,o),
(409,271,o),
(386,326,cs),
(382,337,o),
(375,343,o),
(365,348,cs),
(349,355,o),
(332,358,o),
(314,359,cs),
(306,360,ls),
(305,360,o),
(305,361,o),
(304,362,c),
(311,365,o),
(319,365,o),
(326,366,cs),
(340,368,o),
(353,368,o),
(367,366,cs),
(396,362,o),
(417,345,o),
(430,319,cs),
(439,301,o),
(443,282,o),
(445,262,cs),
(448,221,o),
(445,181,o),
(432,142,cs),
(427,127,o),
(420,113,o),
(412,100,cs),
(398,81,o),
(371,65,o),
(347,63,c)
);
},
{
closed = 1;
nodes = (
(230,372,o),
(234,390,o),
(228,409,c),
(219,394,o),
(222,377,o),
(219,362,c),
(215,360,o),
(212,361,o),
(209,363,c),
(212,387,o),
(212,412,o),
(210,437,c),
(217,436,o),
(220,431,o),
(225,428,cs),
(234,421,o),
(234,421,o),
(242,429,cs),
(250,437,l),
(248,411,o),
(252,387,o),
(266,366,c),
(258,363,l),
(253,363,l),
(252,373,o),
(253,384,o),
(244,394,c),
(240,381,o),
(244,371,o),
(248,361,c),
(229,353,l)
);
},
{
closed = 1;
nodes = (
(227,441,o),
(221,445,o),
(216,452,c),
(227,455,o),
(237,452,o),
(248,451,c),
(245,445,o),
(239,441,o),
(233,437,c)
);
}
);
width = 507;
}
);
note = six;
unicode = 54;
},
{
glyphname = seven;
lastChange = "2024-09-21 16:40:38 +0000";
layers = (
{
layerId = m01;
shapes = (
{
closed = 1;
nodes = (
(402,34,o),
(404,39,o),
(405,45,cs),
(407,54,o),
(407,63,o),
(404,72,cs),
(400,89,o),
(396,107,o),
(393,125,cs),
(387,158,o),
(383,191,o),
(384,225,cs),
(386,250,o),
(393,272,o),
(412,290,c),
(417,296,ls),
(436,317,o),
(457,337,o),
(480,354,cs),
(482,355,o),
(483,357,o),
(487,358,c),
(480,339,o),
(480,321,o),
(488,304,cs),
(497,284,o),
(494,266,o),
(485,248,cs),
(480,240,o),
(475,232,o),
(470,224,cs),
(466,217,o),
(470,210,o),
(478,210,cs),
(483,210,o),
(487,211,o),
(491,213,cs),
(558,239,o),
(589,295,o),
(586,361,cs),
(585,375,o),
(566,394,o),
(551,397,cs),
(537,399,o),
(523,399,o),
(511,388,cs),
(510,387,o),
(508,386,o),
(506,386,c),
(507,391,o),
(502,394,o),
(503,400,cs),
(505,411,o),
(501,416,o),
(489,419,cs),
(477,421,o),
(466,418,o),
(455,412,cs),
(442,406,o),
(431,397,o),
(420,387,cs),
(413,380,l),
(413,380,l),
(412,381,l),
(422,397,ls),
(434,416,o),
(447,435,o),
(455,456,cs),
(462,471,o),
(464,486,o),
(450,501,cs),
(442,508,o),
(434,510,o),
(425,508,cs),
(418,506,o),
(412,503,o),
(406,499,cs),
(389,487,o),
(374,473,o),
(359,459,cs),
(357,457,o),
(355,454,o),
(351,453,c),
(338,465,o),
(322,466,o),
(305,464,cs),
(294,462,o),
(283,459,o),
(274,454,cs),
(249,442,o),
(228,424,o),
(211,402,c),
(210,400,o),
(209,397,o),
(206,396,c),
(205,398,o),
(206,400,o),
(207,401,c),
(211,412,o),
(215,424,o),
(218,436,cs),
(221,447,o),
(222,458,o),
(221,469,cs),
(219,485,o),
(201,506,o),
(182,505,cs),
(171,505,o),
(160,505,o),
(149,502,cs),
(113,491,o),
(87,467,o),
(69,434,cs),
(58,414,o),
(52,391,o),
(51,368,cs),
(47,325,o),
(58,285,o),
(85,251,cs),
(94,239,o),
(105,229,o),
(119,224,c),
(122,222,o),
(124,221,o),
(126,219,cs),
(137,211,o),
(148,205,o),
(161,202,cs),
(170,201,o),
(177,203,o),
(183,210,c),
(185,211,o),
(186,214,o),
(189,214,c),
(190,212,o),
(190,210,o),
(190,208,cs),
(193,188,o),
(199,169,o),
(211,153,c),
(214,147,o),
(219,143,o),
(225,141,cs),
(232,138,o),
(236,139,o),
(241,144,c),
(245,150,o),
(247,156,o),
(249,162,cs),
(250,165,o),
(251,168,o),
(254,170,c),
(254,157,ls),
(254,144,o),
(256,132,o),
(259,121,cs),
(263,106,o),
(272,95,o),
(284,86,cs),
(295,77,o),
(307,81,o),
(312,94,cs),
(314,99,o),
(315,104,o),
(315,109,cs),
(317,129,l),
(320,125,o),
(320,122,o),
(321,119,cs),
(332,87,o),
(347,58,o),
(371,34,cs),
(379,26,o),
(388,24,o),
(396,30,cs)
);
},
{
closed = 1;
nodes = (
(114,306,o),
(114,309,o),
(115,313,cs),
(119,343,o),
(125,372,o),
(141,398,cs),
(145,405,o),
(143,414,o),
(138,420,cs),
(133,425,o),
(126,427,o),
(118,424,cs),
(113,422,o),
(109,418,o),
(105,414,cs),
(100,408,o),
(96,400,o),
(94,393,cs),
(86,364,o),
(91,336,o),
(103,310,cs),
(105,306,o),
(107,303,o),
(112,302,c)
);
},
{
closed = 1;
nodes = (
(143,228,o),
(139,228,o),
(136,230,c),
(119,235,o),
(106,245,o),
(96,258,cs),
(77,281,o),
(67,308,o),
(64,337,cs),
(60,367,o),
(64,397,o),
(77,425,cs),
(92,459,o),
(118,483,o),
(155,495,cs),
(163,497,o),
(172,498,o),
(181,498,cs),
(199,497,o),
(206,488,o),
(203,470,cs),
(201,459,o),
(197,449,o),
(193,438,cs),
(170,379,ls),
(161,355,o),
(153,331,o),
(149,306,cs),
(147,291,ls),
(147,288,o),
(147,285,o),
(151,281,c),
(162,315,o),
(186,338,o),
(213,357,cs),
(218,361,o),
(218,361,o),
(226,361,c),
(228,357,o),
(227,352,o),
(225,347,cs),
(223,340,o),
(218,333,o),
(214,326,cs),
(202,307,o),
(190,288,o),
(179,268,cs),
(166,241,ls),
(162,232,o),
(156,228,o),
(146,228,cs)
);
},
{
closed = 1;
nodes = (
(441,99,o),
(446,101,o),
(447,109,c),
(451,100,o),
(441,95,o),
(436,102,c)
);
},
{
closed = 1;
nodes = (
(453,-13,o),
(459,-11,o),
(463,-5,cs),
(465,-1,o),
(467,3,o),
(467,8,c),
(469,19,l),
(480,15,o),
(490,10,o),
(501,8,c),
(501,7,o),
(501,7,o),
(501,6,c),
(498,2,o),
(496,-2,o),
(500,-5,cs),
(504,-9,o),
(508,-9,o),
(513,-7,cs),
(520,-4,o),
(524,2,o),
(525,9,cs),
(525,18,o),
(529,24,o),
(534,31,cs),
(546,47,ls),
(551,53,o),
(554,60,o),
(557,67,c),
(558,73,o),
(559,78,o),
(558,84,cs),
(556,91,o),
(550,98,o),
(543,98,c),
(544,94,o),
(547,92,o),
(548,89,c),
(551,84,o),
(552,80,o),
(550,74,cs),
(547,61,o),
(539,51,o),
(530,41,c),
(518,62,o),
(501,77,o),
(478,82,c),
(478,88,o),
(481,92,o),
(484,96,cs),
(496,113,ls),
(499,118,o),
(498,124,o),
(495,126,cs),
(491,130,o),
(487,128,o),
(484,125,cs),
(477,119,o),
(469,120,o),
(462,120,c),
(459,122,o),
(460,125,o),
(459,127,cs),
(456,134,o),
(452,137,o),
(447,136,cs),
(442,135,o),
(439,131,o),
(439,124,cs),
(439,121,o),
(441,119,o),
(439,117,cs),
(436,115,o),
(432,113,o),
(428,112,c),
(425,117,o),
(425,123,o),
(420,128,c),
(419,122,o),
(424,117,o),
(422,111,c),
(417,115,o),
(416,122,o),
(409,127,c),
(411,117,o),
(419,111,o),
(421,102,c),
(416,103,o),
(414,108,o),
(410,109,c),
(413,103,o),
(418,101,o),
(420,96,c),
(418,93,o),
(429,87,o),
(433,75,cs),
(437,62,o),
(433,43,o),
(431,31,c),
(426,30,l),
(423,28,o),
(421,26,o),
(421,23,cs),
(421,18,o),
(424,16,o),
(427,15,cs),
(435,13,o),
(441,16,o),
(444,23,cs),
(445,27,o),
(445,32,o),
(449,37,c),
(451,22,ls),
(451,16,o),
(451,9,o),
(444,5,cs),
(440,3,o),
(439,0,o),
(440,-4,cs),
(441,-9,o),
(444,-10,o),
(448,-12,c)
);
},
{
closed = 1;
nodes = (
(456,86,o),
(452,87,o),
(449,92,c),
(456,90,o),
(460,92,o),
(463,99,c),
(465,93,o),
(464,90,o),
(460,88,cs)
);
},
{
closed = 1;
nodes = (
(444,128,l),
(448,128,o),
(450,125,o),
(449,119,c)
);
},
{
closed = 1;
nodes = (
(213,168,o),
(209,178,o),
(205,189,cs),
(200,205,o),
(199,222,o),
(198,239,cs),
(197,247,o),
(197,255,o),
(195,262,cs),
(194,268,o),
(195,272,o),
(198,276,cs),
(225,320,l),
(235,337,l),
(238,344,o),
(240,351,o),
(240,358,cs),
(240,371,o),
(231,378,o),
(218,375,c),
(211,372,l),
(208,374,o),
(210,376,o),
(211,378,cs),
(231,413,o),
(260,438,o),
(299,450,cs),
(309,453,o),
(319,454,o),
(329,451,c),
(344,449,o),
(350,435,o),
(347,424,cs),
(344,415,o),
(340,407,o),
(335,399,cs),
(325,383,o),
(313,368,o),
(301,354,cs),
(287,336,o),
(271,319,o),
(258,300,cs),
(250,289,o),
(243,279,o),
(240,266,cs),
(239,262,o),
(238,259,o),
(242,256,c),
(268,277,o),
(291,302,o),
(325,314,c),
(323,307,o),
(320,303,o),
(316,299,cs),
(287,267,ls),
(259,236,o),
(235,203,o),
(223,162,cs),
(222,158,l)
);
},
{
closed = 1;
nodes = (
(483,116,o),
(485,121,o),
(491,122,c),
(492,121,l),
(487,116,ls),
(485,114,o),
(484,112,o),
(480,110,c)
);
},
{
closed = 1;
nodes = (
(239,300,o),
(239,302,o),
(240,304,cs),
(253,324,o),
(267,343,o),
(283,361,cs),
(289,367,o),
(294,375,o),
(298,383,cs),
(300,387,o),
(302,392,o),
(298,396,cs),
(294,401,o),
(289,400,o),
(284,398,cs),
(277,395,o),
(271,390,o),
(266,385,cs),
(254,371,o),
(245,355,o),
(238,338,cs),
(236,332,o),
(234,325,o),
(233,318,cs),
(232,312,o),
(232,305,o),
(236,300,c)
);
},
{
closed = 1;
nodes = (
(465,172,o),
(472,182,o),
(471,197,cs),
(471,199,o),
(472,203,o),
(469,206,cs),
(459,214,ls),
(452,220,o),
(439,220,o),
(432,213,cs),
(421,204,o),
(418,193,o),
(421,180,cs),
(424,164,o),
(440,156,o),
(454,165,cs)
);
},
{
closed = 1;
nodes = (
(432,190,o),
(431,192,o),
(432,197,cs),
(434,204,o),
(440,211,o),
(449,214,c),
(453,211,l),
(459,204,o),
(459,200,o),
(454,193,cs),
(450,187,o),
(442,185,o),
(436,188,cs)
);
},
{
closed = 1;
nodes = (
(370,53,o),
(368,55,o),
(367,57,cs),
(332,106,o),
(317,161,o),
(328,221,cs),
(329,227,o),
(331,233,o),
(325,237,c),
(320,236,o),
(319,232,o),
(317,228,cs),
(311,214,o),
(307,199,o),
(304,184,cs),
(292,119,ls),
(291,113,o),
(290,106,o),
(285,101,c),
(279,104,o),
(277,109,o),
(275,114,cs),
(267,131,o),
(265,148,o),
(266,166,cs),
(267,191,o),
(272,215,o),
(281,238,cs),
(284,245,o),
(288,252,o),
(293,257,cs),
(323,289,ls),
(327,294,o),
(332,300,o),
(335,306,cs),
(337,311,o),
(339,316,o),
(335,321,cs),
(331,326,o),
(326,326,o),
(320,325,cs),
(310,323,o),
(300,318,o),
(291,312,cs),
(274,301,l),
(276,306,o),
(279,309,o),
(281,312,cs),
(326,367,ls),
(334,376,o),
(341,386,o),
(347,397,cs),
(350,402,o),
(353,408,o),
(355,414,cs),
(359,425,o),
(361,436,o),
(355,447,c),
(374,464,ls),
(387,475,o),
(401,486,o),
(416,494,c),
(421,498,o),
(427,500,o),
(434,500,cs),
(440,499,o),
(442,496,o),
(441,490,cs),
(440,485,o),
(438,481,o),
(435,478,c),
(422,457,ls),
(395,416,o),
(373,372,o),
(357,325,cs),
(351,305,ls),
(350,302,o),
(350,300,o),
(350,297,cs),
(350,294,o),
(351,292,o),
(354,290,c),
(358,289,o),
(360,291,o),
(362,294,cs),
(372,309,ls),
(387,331,o),
(403,352,o),
(421,371,cs),
(430,380,o),
(439,389,o),
(450,396,cs),
(456,401,o),
(463,405,o),
(471,408,cs),
(476,409,o),
(481,410,o),
(486,409,cs),
(490,409,o),
(494,409,o),
(495,406,cs),
(497,402,o),
(494,399,o),
(492,396,cs),
(486,389,o),
(479,383,o),
(472,377,cs),
(450,360,o),
(428,342,o),
(409,321,cs),
(395,308,o),
(383,293,o),
(372,277,cs),
(354,248,o),
(348,218,o),
(355,185,cs),
(360,157,o),
(368,129,o),
(374,101,cs),
(380,68,ls),
(381,64,o),
(381,59,o),
(380,55,cs),
(379,50,o),
(375,48,o),
(371,52,cs)
);
},
{
closed = 1;
nodes = (
(483,236,o),
(486,238,o),
(487,241,c),
(491,247,o),
(495,254,o),
(498,262,cs),
(504,276,o),
(505,290,o),
(501,304,cs),
(496,321,ls),
(491,343,o),
(499,362,o),
(514,379,cs),
(517,382,ls),
(542,404,o),
(569,384,o),
(565,350,cs),
(561,315,o),
(528,263,o),
(487,234,c),
(486,234,o),
(485,232,o),
(483,233,c)
);
}
);
width = 636;
}
);
note = seven;
unicode = 55;
},
{
glyphname = eight;
lastChange = "2024-09-21 16:40:38 +0000";
layers = (
{
layerId = m01;
shapes = (
{
closed = 1;
nodes = (
(233,72,o),
(260,92,o),
(276,128,cs),
(284,148,o),
(287,169,o),
(285,191,cs),
(285,194,o),
(285,198,o),
(286,201,cs),
(291,219,o),
(299,235,o),
(311,248,cs),
(328,266,o),
(348,275,o),
(372,274,cs),
(387,273,ls),
(398,272,o),
(408,272,o),
(418,274,cs),
(439,278,o),
(455,289,o),
(462,310,cs),
(467,324,o),
(463,334,o),
(452,342,cs),
(447,345,o),
(443,348,o),
(438,351,cs),
(422,360,o),
(420,370,o),
(431,384,cs),
(436,390,o),
(441,395,o),
(447,399,cs),
(454,404,o),
(462,409,o),
(471,412,cs),
(496,422,ls),
(501,424,o),
(505,425,o),
(509,429,c),
(499,431,o),
(490,428,o),
(481,427,cs),
(460,425,o),
(439,421,o),
(419,412,cs),
(411,409,o),
(404,405,o),
(398,398,cs),
(388,388,o),
(386,376,o),
(392,364,cs),
(395,356,o),
(400,350,o),
(406,345,cs),
(421,331,ls),
(427,326,o),
(431,320,o),
(433,313,cs),
(436,302,o),
(432,295,o),
(420,293,cs),
(410,290,o),
(401,293,o),
(392,295,cs),
(361,305,ls),
(343,311,o),
(325,310,o),
(308,301,cs),
(291,293,o),
(278,282,o),
(267,267,cs),
(266,265,o),
(265,263,o),
(263,262,c),
(262,263,o),
(261,263,o),
(261,264,c),
(241,292,o),
(213,302,o),
(180,303,cs),
(161,303,o),
(139,299,o),
(125,295,cs),
(90,285,o),
(59,258,o),
(53,228,cs),
(49,206,o),
(49,185,o),
(52,163,cs),
(59,122,o),
(82,93,o),
(121,78,cs),
(145,69,o),
(169,65,o),
(194,68,cs)
);
},
{
closed = 1;
nodes = (
(113,129,o),
(110,132,o),
(107,135,c),
(108,137,o),
(109,138,o),
(110,139,c),
(112,137,o),
(115,135,o),
(117,134,c),
(118,132,o),
(118,129,o),
(116,126,c)
);
},
{
closed = 1;
nodes = (
(99,143,o),
(97,147,o),
(95,151,c),
(96,153,o),
(98,153,o),
(99,154,c),
(101,150,o),
(103,146,o),
(106,143,c),
(105,142,o),
(104,141,o),
(103,141,c)
);
},
{
closed = 1;
nodes = (
(129,121,o),
(126,122,o),
(124,123,cs),
(123,124,o),
(123,127,o),
(124,133,c),
(131,133,o),
(130,127,o),
(131,123,c)
);
},
{
closed = 1;
nodes = (
(89,165,o),
(88,170,o),
(89,176,c),
(92,176,o),
(94,174,o),
(96,173,c),
(96,169,o),
(96,164,o),
(97,160,c),
(95,159,o),
(94,159,o),
(91,159,c)
);
},
{
closed = 1;
nodes = (
(138,127,o),
(132,131,o),
(138,137,c),
(142,134,o),
(146,130,o),
(149,126,c),
(147,122,o),
(144,121,o),
(139,121,c)
);
},
{
closed = 1;
nodes = (
(126,102,o),
(156,107,o),
(162,130,cs),
(164,136,o),
(166,143,o),
(166,150,cs),
(165,168,o),
(160,186,o),
(150,201,cs),
(147,207,o),
(143,211,o),
(138,215,cs),
(122,227,o),
(103,225,o),
(90,209,cs),
(78,194,o),
(75,177,o),
(81,159,cs),
(86,142,o),
(96,128,o),
(109,116,cs)
);
},
{
closed = 1;
nodes = (
(95,182,o),
(93,184,o),
(91,186,c),
(92,193,o),
(94,198,o),
(99,203,c),
(102,199,o),
(103,195,o),
(103,192,c),
(101,189,o),
(99,185,o),
(97,181,c)
);
},
{
closed = 1;
nodes = (
(149,136,o),
(146,140,o),
(143,144,c),
(144,146,o),
(145,148,o),
(145,151,c),
(156,148,l),
(157,143,o),
(156,138,o),
(153,133,c)
);
},
{
closed = 1;
nodes = (
(153,156,o),
(150,156,o),
(146,157,c),
(147,160,o),
(147,164,o),
(146,167,c),
(148,168,o),
(151,169,o),
(153,171,c),
(156,165,o),
(157,160,o),
(156,154,c)
);
},
{
closed = 1;
nodes = (
(107,200,o),
(106,204,o),
(106,209,c),
(111,213,o),
(117,213,o),
(124,211,c),
(124,206,o),
(121,202,o),
(119,198,c),
(117,198,o),
(115,198,o),
(113,198,c),
(111,197,o),
(109,196,o),
(108,196,c)
);
},
{
closed = 1;
nodes = (
(143,178,o),
(141,182,o),
(139,186,c),
(141,188,o),
(142,190,o),
(143,192,c),
(148,187,o),
(149,182,o),
(151,177,c),
(145,174,l)
);
},
{
closed = 1;
nodes = (
(132,193,o),
(129,195,o),
(125,197,c),
(127,200,o),
(130,203,o),
(129,206,c),
(135,206,o),
(137,201,o),
(141,198,c),
(135,191,l)
);
},
{
closed = 1;
nodes = (
(170,79,o),
(148,83,o),
(127,90,cs),
(95,102,o),
(75,124,o),
(67,156,cs),
(60,182,o),
(60,208,o),
(65,234,cs),
(69,252,o),
(79,266,o),
(96,275,cs),
(110,282,o),
(125,287,o),
(142,287,c),
(127,281,ls),
(114,275,o),
(111,271,o),
(113,256,cs),
(113,253,l),
(110,249,o),
(105,250,o),
(100,249,cs),
(89,246,o),
(81,239,o),
(76,229,cs),
(75,227,o),
(74,225,o),
(76,222,c),
(83,227,o),
(85,236,o),
(94,239,c),
(95,233,o),
(89,228,o),
(91,222,c),
(95,223,o),
(96,227,o),
(97,229,cs),
(100,237,o),
(105,243,o),
(114,247,cs),
(119,249,o),
(120,252,o),
(119,258,cs),
(118,270,o),
(119,272,o),
(129,277,cs),
(142,283,o),
(155,289,o),
(169,292,cs),
(187,295,o),
(205,292,o),
(222,284,cs),
(229,281,o),
(236,277,o),
(242,271,c),
(239,269,o),
(237,272,o),
(235,273,cs),
(227,276,o),
(218,279,o),
(209,279,cs),
(199,279,o),
(189,277,o),
(182,269,c),
(178,266,o),
(174,265,o),
(170,265,cs),
(163,266,o),
(158,267,o),
(152,268,cs),
(149,269,o),
(146,270,o),
(143,268,c),
(152,262,o),
(162,261,o),
(172,260,c),
(169,252,o),
(164,249,o),
(157,249,cs),
(144,249,o),
(136,245,o),
(127,235,c),
(136,234,o),
(141,242,o),
(149,240,c),
(150,234,o),
(145,229,o),
(147,222,c),
(154,226,o),
(152,235,o),
(157,240,c),
(159,241,o),
(161,240,o),
(163,240,cs),
(169,239,o),
(173,242,o),
(176,246,cs),
(183,258,ls),
(191,271,o),
(204,275,o),
(219,273,cs),
(232,271,o),
(243,265,o),
(253,256,cs),
(257,252,o),
(259,248,o),
(261,242,c),
(258,241,o),
(255,243,o),
(252,243,cs),
(247,244,o),
(242,244,o),
(239,242,cs),
(233,238,o),
(227,238,o),
(221,237,cs),
(217,237,o),
(213,236,o),
(208,234,c),
(214,231,o),
(219,235,o),
(225,233,c),
(219,224,o),
(212,218,o),
(202,216,cs),
(195,214,o),
(187,214,o),
(181,211,cs),
(177,209,o),
(174,208,o),
(171,205,c),
(180,203,o),
(188,210,o),
(197,207,c),
(194,201,o),
(188,196,o),
(187,187,c),
(192,188,o),
(193,191,o),
(195,194,cs),
(200,202,o),
(207,209,o),
(216,213,c),
(223,218,o),
(228,225,o),
(234,232,cs),
(242,240,o),
(250,242,o),
(261,237,c),
(262,236,o),
(264,236,o),
(265,234,cs),
(268,226,o),
(273,218,o),
(271,209,cs),
(269,200,o),
(263,193,o),
(254,190,cs),
(247,188,o),
(239,187,o),
(232,185,cs),
(224,183,o),
(217,182,o),
(213,173,cs),
(212,171,o),
(209,170,o),
(207,169,c),
(194,168,l),
(191,167,o),
(188,168,o),
(185,165,c),
(193,161,o),
(201,164,o),
(209,164,c),
(207,157,o),
(202,154,o),
(197,152,cs),
(192,150,o),
(186,152,o),
(180,147,c),
(198,144,o),
(210,150,o),
(215,165,cs),
(219,177,o),
(227,179,o),
(239,179,c),
(239,173,o),
(235,167,o),
(238,161,c),
(241,161,o),
(242,163,o),
(242,165,c),
(247,177,ls),
(248,180,o),
(249,183,o),
(253,184,cs),
(261,186,o),
(268,191,o),
(273,199,c),
(276,197,o),
(275,195,o),
(275,193,cs),
(275,171,ls),
(275,161,o),
(272,151,o),
(266,143,cs),
(260,134,o),
(252,128,o),
(241,127,cs),
(230,126,o),
(221,121,o),
(214,114,cs),
(209,109,o),
(204,104,o),
(197,102,c),
(190,108,o),
(181,109,o),
(174,117,c),
(171,110,o),
(177,107,o),
(180,103,c),
(171,102,o),
(163,105,o),
(154,102,c),
(155,99,o),
(157,99,o),
(159,98,c),
(170,96,o),
(180,95,o),
(190,95,cs),
(198,96,o),
(206,99,o),
(212,105,cs),
(221,114,ls),
(226,119,o),
(231,121,o),
(237,122,cs),
(246,123,o),
(254,124,o),
(262,128,c),
(263,126,o),
(261,124,o),
(260,123,c),
(245,97,o),
(222,83,o),
(192,81,cs)
);
}
);
width = 559;
}
);
note = eight;
unicode = 56;
},
{
glyphname = nine;
lastChange = "2024-09-21 16:40:38 +0000";
layers = (
{
layerId = m01;
shapes = (
{
closed = 1;
nodes = (
(154,-30,o),
(161,-23,o),
(162,-13,cs),
(164,3,o),
(169,18,o),
(173,33,cs),
(177,45,o),
(183,55,o),
(192,65,c),
(196,64,o),
(200,63,o),
(204,66,cs),
(210,70,o),
(214,75,o),
(215,82,cs),
(216,92,o),
(217,102,o),
(216,112,cs),
(216,128,o),
(223,142,o),
(234,152,cs),
(243,160,o),
(254,158,o),
(261,148,cs),
(267,139,o),
(272,130,o),
(275,119,c),
(275,116,l),
(272,114,ls),
(270,113,o),
(269,112,o),
(269,110,c),
(278,92,o),
(289,87,o),
(308,92,cs),
(311,93,o),
(314,95,o),
(318,94,c),
(294,79,o),
(284,85,o),
(267,103,c),
(268,92,o),
(271,80,o),
(275,69,cs),
(277,65,o),
(279,63,o),
(282,62,cs),
(288,60,o),
(288,56,o),
(289,52,c),
(289,46,o),
(287,41,o),
(284,37,cs),
(276,25,ls),
(271,18,o),
(272,11,o),
(277,4,cs),
(283,-3,o),
(290,-10,o),
(298,-14,c),
(302,-17,o),
(307,-18,o),
(311,-15,c),
(330,-6,l),
(334,-5,o),
(336,-2,o),
(335,2,cs),
(330,22,o),
(325,42,o),
(318,62,c),
(331,72,o),
(331,86,o),
(330,100,cs),
(329,109,o),
(327,116,o),
(318,119,c),
(316,134,o),
(313,149,o),
(309,164,cs),
(308,167,o),
(309,170,o),
(312,172,c),
(323,183,ls),
(329,190,o),
(329,192,o),
(324,199,cs),
(304,227,ls),
(299,234,o),
(295,242,o),
(294,251,cs),
(292,270,o),
(292,289,o),
(291,308,c),
(291,308,o),
(292,309,o),
(292,310,c),
(307,317,o),
(323,323,o),
(341,325,c),
(341,317,o),
(347,317,o),
(352,317,c),
(350,297,l),
(338,294,o),
(339,294,o),
(337,283,cs),
(335,263,l),
(328,259,ls),
(319,253,o),
(318,249,o),
(324,241,cs),
(331,233,o),
(335,224,o),
(339,215,cs),
(341,208,l),
(345,202,o),
(347,201,o),
(354,202,cs),
(369,206,ls),
(373,207,o),
(376,209,o),
(379,214,c),
(382,205,o),
(387,197,o),
(388,188,cs),
(391,159,o),
(389,130,o),
(382,102,cs),
(379,87,o),
(374,73,o),
(369,59,c),
(390,40,o),
(405,18,o),
(411,-10,c),
(414,-9,o),
(415,-7,o),
(416,-4,c),
(425,13,o),
(431,32,o),
(434,51,cs),
(436,74,o),
(434,96,o),
(432,118,cs),
(427,150,o),
(422,181,o),
(410,210,cs),
(409,213,o),
(407,217,o),
(408,221,c),
(411,222,o),
(413,223,o),
(415,219,cs),
(416,216,l),
(420,209,o),
(425,209,o),
(430,216,cs),
(433,220,o),
(434,225,o),
(434,229,cs),
(435,236,o),
(432,241,o),
(425,242,c),
(420,244,o),
(415,244,o),
(409,243,cs),
(406,243,o),
(403,241,o),
(400,243,c),
(397,248,o),
(399,251,o),
(402,255,cs),
(404,258,o),
(407,261,o),
(407,265,cs),
(407,273,o),
(404,281,o),
(400,288,c),
(398,294,o),
(393,295,o),
(388,296,c),
(388,309,ls),
(388,323,o),
(384,337,o),
(378,350,cs),
(376,355,o),
(373,357,o),
(368,358,cs),
(348,364,o),
(328,362,o),
(307,360,c),
(304,359,o),
(302,358,o),
(301,356,c),
(294,348,o),
(286,344,o),
(276,349,c),
(268,340,l),
(269,334,o),
(272,329,o),
(275,324,cs),
(277,319,o),
(277,315,o),
(273,312,cs),
(269,309,o),
(269,306,o),
(270,302,cs),
(273,292,ls),
(275,282,o),
(278,272,o),
(275,262,cs),
(273,252,o),
(270,242,o),
(267,232,c),
(267,230,o),
(266,228,o),
(263,228,c),
(261,235,o),
(262,243,o),
(265,249,cs),
(272,263,o),
(271,277,o),
(267,291,cs),
(266,297,ls),
(264,305,o),
(264,312,o),
(273,317,c),
(263,336,l),
(237,321,ls),
(227,316,o),
(217,314,o),
(207,315,c),
(201,295,l),
(206,293,o),
(211,297,o),
(216,293,c),
(218,290,o),
(216,287,o),
(214,284,cs),
(209,276,o),
(210,269,o),
(214,261,cs),
(219,252,o),
(222,242,o),
(225,232,cs),
(229,216,o),
(227,200,o),
(222,184,cs),
(221,182,o),
(221,179,o),
(217,179,c),
(215,183,o),
(217,187,o),
(217,191,c),
(220,205,o),
(221,220,o),
(215,234,cs),
(213,240,o),
(211,247,o),
(208,253,cs),
(201,265,o),
(201,277,o),
(211,288,c),
(211,290,l),
(208,291,o),
(205,290,o),
(202,290,cs),
(194,289,o),
(192,291,o),
(195,299,cs),
(197,304,o),
(201,309,o),
(201,316,c),
(189,323,o),
(180,334,o),
(176,348,c),
(191,332,ls),
(200,321,o),
(211,319,o),
(223,323,cs),
(234,327,o),
(245,331,o),
(254,338,cs),
(262,343,o),
(270,348,o),
(276,355,c),
(285,351,o),
(292,354,o),
(298,360,cs),
(304,367,o),
(301,373,o),
(297,379,c),
(303,386,o),
(311,392,o),
(309,402,c),
(314,403,o),
(318,403,o),
(322,403,cs),
(334,401,o),
(341,407,o),
(346,416,cs),
(353,428,o),
(356,441,o),
(358,454,cs),
(358,458,o),
(358,461,o),
(355,464,c),
(347,458,o),
(340,450,o),
(329,447,c),
(317,457,o),
(303,463,o),
(287,465,cs),
(272,466,o),
(257,466,o),
(243,465,cs),
(225,464,o),
(207,462,o),
(189,462,cs),
(184,462,o),
(180,462,o),
(176,464,cs),
(171,466,o),
(168,469,o),
(167,474,c),
(168,493,ls),
(168,495,o),
(169,498,o),
(166,500,c),
(165,499,o),
(164,499,o),
(164,499,c),
(152,483,o),
(141,466,o),
(132,448,c),
(124,453,o),
(116,455,o),
(107,452,c),
(101,460,ls),
(97,465,o),
(93,469,o),
(87,471,cs),
(79,474,o),
(70,470,o),
(67,462,cs),
(66,458,o),
(66,455,o),
(70,452,cs),
(72,450,o),
(74,449,o),
(77,450,cs),
(79,451,o),
(79,453,o),
(80,456,c),
(80,459,o),
(78,462,o),
(80,465,c),
(88,464,o),
(93,461,o),
(98,453,cs),
(102,448,o),
(100,444,o),
(98,439,cs),
(96,435,o),
(95,431,o),
(95,426,cs),
(94,419,o),
(95,412,o),
(95,405,c),
(92,401,o),
(87,400,o),
(84,397,cs),
(82,395,o),
(80,394,o),
(80,392,c),
(82,385,o),
(83,378,o),
(90,374,c),
(94,380,o),
(94,387,o),
(99,390,cs),
(105,394,o),
(110,393,o),
(116,390,c),
(111,381,o),
(106,374,o),
(102,365,cs),
(99,359,o),
(97,353,o),
(97,346,cs),
(97,339,o),
(100,335,o),
(107,333,cs),
(111,331,o),
(115,332,o),
(119,331,c),
(124,331,o),
(129,333,o),
(134,332,c),
(132,328,o),
(129,325,o),
(129,320,cs),
(130,315,o),
(134,313,o),
(137,310,c),
(134,305,o),
(129,304,o),
(127,299,c),
(130,292,o),
(137,288,o),
(141,282,c),
(134,275,o),
(126,271,o),
(118,266,cs),
(112,262,o),
(106,258,o),
(101,253,cs),
(93,246,o),
(93,243,o),
(101,236,cs),
(109,230,o),
(117,226,o),
(126,221,cs),
(147,212,l),
(143,204,o),
(144,198,o),
(151,194,c),
(150,190,o),
(150,187,o),
(148,185,c),
(139,184,o),
(137,183,o),
(136,178,cs),
(134,173,o),
(136,169,o),
(141,166,cs),
(145,163,l),
(151,161,o),
(157,158,o),
(163,155,c),
(168,151,o),
(171,153,o),
(175,158,cs),
(177,161,o),
(179,164,o),
(183,167,c),
(185,158,o),
(180,152,o),
(179,145,c),
(171,146,o),
(164,146,o),
(157,145,cs),
(151,144,o),
(147,142,o),
(145,136,cs),
(140,121,ls),
(139,117,o),
(136,113,o),
(137,109,c),
(141,107,o),
(143,109,o),
(146,110,c),
(173,114,o),
(183,107,o),
(191,86,cs),
(193,82,o),
(196,78,o),
(194,71,c),
(183,93,l),
(180,97,o),
(178,101,o),
(173,102,cs),
(161,106,o),
(150,106,o),
(138,101,c),
(139,96,o),
(141,93,o),
(143,90,cs),
(145,88,o),
(146,86,o),
(145,84,cs),
(141,72,o),
(135,62,o),
(127,51,c),
(123,62,ls),
(121,68,o),
(119,74,o),
(115,79,cs),
(106,90,o),
(93,92,o),
(81,84,c),
(90,82,o),
(98,77,o),
(103,70,cs),
(108,64,o),
(111,57,o),
(113,50,cs),
(123,24,ls),
(124,22,o),
(126,19,o),
(124,16,c),
(121,17,o),
(120,19,o),
(118,21,c),
(114,28,o),
(110,36,o),
(108,44,cs),
(106,52,o),
(103,60,o),
(98,67,cs),
(92,74,o),
(85,78,o),
(75,79,cs),
(70,80,o),
(66,78,o),
(63,75,cs),
(49,61,o),
(46,38,o),
(56,21,cs),
(62,10,o),
(70,2,o),
(81,-3,cs),
(92,-8,o),
(102,-15,o),
(113,-22,cs),
(122,-28,o),
(132,-31,o),
(143,-31,cs)
);
},
{
closed = 1;
nodes = (
(141,-9,o),
(137,-2,o),
(130,4,c),
(124,0,o),
(122,-9,o),
(113,-12,c),
(118,-3,o),
(122,4,o),
(129,10,c),
(138,3,o),
(145,-5,o),
(147,-16,c)
);
},
{
closed = 1;
nodes = (
(151,10,o),
(144,19,o),
(136,28,cs),
(131,33,o),
(130,40,o),
(128,47,c),
(144,60,o),
(150,79,o),
(156,97,c),
(173,94,o),
(177,91,o),
(185,68,c),
(167,49,o),
(159,25,o),
(156,-2,c)
);
},
{
closed = 1;
nodes = (
(298,-2,o),
(292,4,o),
(285,11,cs),
(282,15,o),
(281,20,o),
(284,24,cs),
(287,28,ls),
(293,37,o),
(298,46,o),
(296,58,c),
(313,60,l),
(315,57,o),
(315,55,o),
(314,52,c),
(312,49,o),
(309,48,o),
(307,47,c),
(304,47,o),
(303,51,o),
(300,50,c),
(297,48,o),
(302,46,o),
(301,43,c),
(299,41,o),
(296,41,o),
(296,38,c),
(300,35,o),
(303,39,o),
(306,40,c),
(313,36,l),
(315,39,o),
(310,40,o),
(311,43,cs),
(312,45,o),
(313,46,o),
(316,46,c),
(318,35,l),
(315,32,o),
(312,29,o),
(308,27,c),
(303,27,o),
(301,33,o),
(296,33,c),
(295,27,o),
(302,27,o),
(302,23,cs),
(301,19,o),
(296,19,o),
(296,15,c),
(301,14,o),
(303,19,o),
(307,20,cs),
(311,20,o),
(314,15,o),
(319,16,c),
(318,20,o),
(314,20,o),
(312,24,c),
(314,26,o),
(316,29,o),
(319,29,c),
(322,20,o),
(325,11,o),
(326,1,c),
(307,-7,l)
);
},
{
closed = 1;
nodes = (
(161,164,o),
(154,168,o),
(147,170,cs),
(143,172,o),
(140,173,o),
(142,179,c),
(149,179,o),
(154,174,o),
(162,172,c),
(157,181,o),
(154,187,o),
(160,194,c),
(154,202,o),
(154,210,o),
(159,218,cs),
(164,224,o),
(169,230,o),
(175,236,c),
(196,217,l),
(196,193,o),
(181,177,o),
(166,160,c)
);
},
{
closed = 1;
nodes = (
(165,201,o),
(166,203,o),
(166,205,cs),
(166,208,o),
(164,209,o),
(162,209,cs),
(159,209,o),
(158,208,o),
(158,205,cs),
(158,203,o),
(159,200,o),
(163,201,cs)
);
},
{
closed = 1;
nodes = (
(290,103,o),
(285,106,o),
(284,115,cs),
(282,131,o),
(274,145,o),
(263,157,cs),
(254,168,o),
(240,168,o),
(229,159,cs),
(223,153,o),
(219,147,o),
(215,140,c),
(214,137,o),
(213,133,o),
(210,131,c),
(206,133,o),
(203,136,o),
(199,139,cs),
(195,141,o),
(190,143,o),
(186,144,c),
(187,155,o),
(194,159,o),
(203,160,cs),
(212,161,o),
(219,166,o),
(225,173,cs),
(234,184,o),
(241,195,o),
(243,209,c),
(246,219,l),
(262,202,o),
(284,200,o),
(301,190,c),
(303,186,o),
(303,184,o),
(301,182,c),
(298,176,o),
(299,170,o),
(301,164,c),
(311,113,ls),
(312,105,o),
(305,99,o),
(297,101,cs)
);
},
{
closed = 1;
nodes = (
(184,238,ls),
(180,242,o),
(176,244,o),
(171,241,c),
(168,242,o),
(167,245,o),
(165,247,cs),
(162,251,o),
(162,255,o),
(165,259,cs),
(168,264,o),
(173,269,o),
(179,275,c),
(197,228,l),
(195,227,l)
);
},
{
closed = 1;
nodes = (
(140,316,o),
(138,317,o),
(136,319,cs),
(134,321,o),
(135,324,o),
(137,326,cs),
(140,329,o),
(141,334,o),
(148,332,c),
(147,328,o),
(147,324,o),
(149,320,c),
(147,317,o),
(146,316,o),
(143,316,cs)
);
},
{
closed = 1;
nodes = (
(150,332,o),
(150,333,o),
(160,334,c),
(160,329,o),
(159,325,o),
(154,324,c)
);
},
{
closed = 1;
nodes = (
(167,337,o),
(169,336,o),
(171,336,c),
(171,333,o),
(169,333,o),
(166,332,c)
);
},
{
closed = 1;
nodes = (
(246,255,o),
(243,267,o),
(238,279,c),
(243,276,o),
(242,272,o),
(245,270,c),
(252,270,o),
(249,278,o),
(254,280,c),
(252,267,o),
(251,255,o),
(248,243,c)
);
},
{
closed = 1;
nodes = (
(405,62,o),
(409,81,o),
(410,101,cs),
(411,122,o),
(408,142,o),
(406,162,cs),
(404,182,o),
(398,201,o),
(392,221,c),
(412,200,o),
(420,82,o),
(403,42,c)
);
},
{
closed = 1;
nodes = (
(221,285,o),
(223,297,o),
(220,310,c),
(233,314,o),
(244,320,o),
(256,327,c),
(260,292,l),
(257,292,o),
(257,297,o),
(252,296,c),
(248,293,o),
(249,286,o),
(246,282,c),
(242,284,o),
(242,290,o),
(238,293,c),
(231,288,o),
(229,279,o),
(222,273,c)
);
},
{
closed = 1;
nodes = (
(156,367,o),
(153,374,o),
(149,379,cs),
(145,384,o),
(144,391,o),
(141,398,c),
(138,388,o),
(138,387,o),
(150,367,c),
(139,367,o),
(135,370,o),
(134,380,cs),
(133,385,o),
(134,390,o),
(133,395,cs),
(133,398,o),
(136,400,o),
(138,402,cs),
(144,407,o),
(151,411,o),
(159,416,cs),
(162,418,o),
(166,415,o),
(170,416,c),
(175,405,l),
(175,404,o),
(175,402,o),
(174,401,cs),
(172,400,o),
(171,400,o),
(169,401,c),
(163,406,ls),
(161,408,o),
(159,409,o),
(157,407,c),
(157,401,o),
(163,400,o),
(166,396,c),
(164,393,o),
(161,392,o),
(159,391,c),
(154,393,o),
(155,401,o),
(148,404,c),
(150,389,o),
(161,378,o),
(164,364,c)
);
},
{
closed = 1;
nodes = (
(116,405,o),
(110,407,o),
(102,407,c),
(100,419,o),
(100,432,o),
(106,443,cs),
(109,449,o),
(115,450,o),
(122,448,cs),
(126,446,o),
(131,444,o),
(134,440,cs),
(140,433,o),
(146,426,o),
(155,420,c),
(140,415,o),
(131,404,o),
(118,395,c)
);
},
{
closed = 1;
nodes = (
(126,414,o),
(127,416,o),
(127,419,cs),
(126,428,l),
(131,427,o),
(131,421,o),
(135,419,c),
(136,422,o),
(135,425,o),
(133,428,cs),
(131,432,o),
(127,434,o),
(122,433,cs),
(119,433,o),
(116,430,o),
(115,427,cs),
(113,422,o),
(114,419,o),
(117,415,cs),
(119,413,o),
(120,412,o),
(123,413,cs)
);
},
{
closed = 1;
nodes = (
(228,355,o),
(230,354,o),
(231,358,c),
(216,363,o),
(203,372,o),
(198,389,c),
(184,387,o),
(180,383,o),
(184,376,c),
(187,376,o),
(189,381,o),
(193,380,c),
(199,372,ls),
(205,362,o),
(214,357,o),
(226,355,cs)
);
},
{
closed = 1;
nodes = (
(348,210,o),
(347,210,o),
(345,215,cs),
(341,227,o),
(335,239,o),
(327,248,c),
(328,251,l),
(342,258,o),
(356,266,o),
(372,267,cs),
(377,267,o),
(381,266,o),
(382,260,cs),
(384,254,o),
(388,248,o),
(392,242,c),
(386,239,o),
(381,239,o),
(376,239,cs),
(366,238,o),
(366,237,o),
(368,228,cs),
(369,225,o),
(370,222,o),
(370,218,c),
(367,215,o),
(364,215,o),
(360,215,c),
(355,223,o),
(355,234,o),
(347,242,c),
(345,230,o),
(352,223,o),
(354,214,c)
);
},
{
closed = 1;
nodes = (
(214,393,o),
(218,398,o),
(217,403,cs),
(217,405,o),
(217,407,o),
(216,409,c),
(216,412,o),
(215,415,o),
(211,416,cs),
(207,416,o),
(205,414,o),
(203,411,cs),
(201,409,o),
(200,406,o),
(200,403,cs),
(201,397,o),
(205,393,o),
(210,393,cs)
);
},
{
closed = 1;
nodes = (
(219,341,o),
(220,347,o),
(215,348,cs),
(211,349,o),
(208,350,o),
(204,346,c),
(188,357,o),
(179,372,o),
(169,388,c),
(170,389,o),
(170,390,o),
(171,390,c),
(180,394,o),
(181,400,o),
(178,409,cs),
(174,423,o),
(178,427,o),
(191,432,cs),
(195,434,o),
(197,434,o),
(200,431,cs),
(205,425,o),
(211,421,o),
(217,418,cs),
(223,415,o),
(225,411,o),
(225,405,cs),
(226,397,o),
(229,389,o),
(233,382,cs),
(235,379,o),
(238,377,o),
(242,377,cs),
(260,378,o),
(267,383,o),
(272,400,c),
(272,402,o),
(273,404,o),
(273,406,cs),
(273,413,o),
(276,416,o),
(282,417,c),
(285,413,o),
(285,407,o),
(286,402,c),
(290,400,o),
(295,403,o),
(299,401,cs),
(302,400,o),
(305,398,o),
(301,395,c),
(299,388,o),
(293,383,o),
(286,379,cs),
(281,376,o),
(280,372,o),
(283,367,c),
(283,365,o),
(285,364,o),
(287,364,cs),
(289,364,o),
(290,366,o),
(290,368,c),
(291,370,o),
(289,373,o),
(292,375,c),
(295,372,o),
(295,368,o),
(294,364,cs),
(293,361,o),
(290,358,o),
(286,358,cs),
(282,358,o),
(279,360,o),
(277,364,cs),
(273,371,o),
(275,377,o),
(282,381,c),
(283,382,o),
(284,382,o),
(283,384,c),
(278,385,o),
(275,382,o),
(273,377,cs),
(271,374,o),
(270,370,o),
(271,366,cs),
(272,360,o),
(269,357,o),
(265,356,c),
(251,350,o),
(237,344,o),
(223,340,c)
);
},
{
closed = 1;
nodes = (
(422,217,o),
(421,218,o),
(421,219,c),
(417,229,o),
(417,228,o),
(406,228,cs),
(396,228,o),
(387,225,o),
(376,223,c),
(375,232,l),
(376,233,o),
(377,233,o),
(378,233,cs),
(388,232,o),
(398,235,o),
(408,236,cs),
(412,237,o),
(416,237,o),
(421,236,cs),
(427,234,o),
(429,233,o),
(428,226,cs),
(428,222,o),
(428,221,o),
(423,217,c)
);
},
{
closed = 1;
nodes = (
(394,260,o),
(393,262,o),
(393,263,c),
(387,273,o),
(385,275,o),
(374,273,cs),
(366,272,o),
(359,270,o),
(352,268,cs),
(349,267,o),
(346,265,o),
(341,266,c),
(341,274,o),
(343,281,o),
(345,289,c),
(360,291,o),
(375,291,o),
(389,291,c),
(397,278,o),
(399,265,o),
(396,259,c)
);
},
{
closed = 1;
nodes = (
(248,416,o),
(245,416,o),
(242,416,cs),
(231,414,o),
(224,418,o),
(217,425,cs),
(213,428,o),
(208,431,o),
(205,436,c),
(231,439,o),
(254,435,o),
(277,422,c),
(268,416,o),
(261,412,o),
(251,415,cs)
);
},
{
closed = 1;
nodes = (
(387,278,o),
(389,281,o),
(389,284,cs),
(389,287,o),
(387,289,o),
(383,289,cs),
(379,288,o),
(378,286,o),
(378,282,cs),
(378,279,o),
(380,277,o),
(384,277,c)
);
},
{
closed = 1;
nodes = (
(291,390,o),
(296,393,o),
(301,395,c),
(296,399,o),
(290,399,o),
(285,393,c)
);
},
{
closed = 1;
nodes = (
(321,476,o),
(323,484,o),
(315,493,cs),
(303,507,o),
(287,517,o),
(271,527,cs),
(270,528,o),
(268,528,o),
(266,527,c),
(264,525,o),
(264,523,o),
(265,521,c),
(268,509,ls),
(269,500,o),
(264,495,o),
(256,495,cs),
(243,494,o),
(235,502,o),
(237,515,cs),
(238,519,o),
(240,522,o),
(238,526,c),
(218,518,o),
(201,507,o),
(185,492,cs),
(178,484,ls),
(176,481,o),
(174,478,o),
(176,474,cs),
(178,471,o),
(181,470,o),
(185,470,cs),
(193,469,o),
(201,470,o),
(210,471,cs),
(244,473,o),
(277,479,o),
(310,467,c)
);
}
);
width = 485;
}
);
note = nine;
unicode = 57;
},
{
glyphname = at;
lastChange = "2024-09-21 16:40:38 +0000";
layers = (
{
layerId = m01;
shapes = (
{
closed = 1;
nodes = (
(236,-8,o),
(249,-6,o),
(259,5,c),
(264,9,o),
(270,13,o),
(276,15,cs),
(301,24,ls),
(327,32,o),
(353,37,o),
(378,46,cs),
(401,53,o),
(424,63,o),
(443,79,cs),
(453,88,o),
(463,97,o),
(469,110,cs),
(476,124,o),
(468,139,o),
(454,141,cs),
(453,141,o),
(452,141,o),
(451,143,c),
(450,150,o),
(454,157,o),
(457,164,cs),
(463,178,o),
(467,193,o),
(469,208,cs),
(472,224,o),
(472,241,o),
(474,258,cs),
(476,276,o),
(478,293,o),
(478,311,cs),
(478,323,o),
(476,334,o),
(469,343,cs),
(462,351,o),
(461,359,o),
(463,369,cs),
(465,375,o),
(466,382,o),
(465,388,cs),
(465,391,o),
(464,394,o),
(462,396,cs),
(454,402,o),
(447,408,o),
(436,407,cs),
(434,407,o),
(431,406,o),
(429,408,c),
(428,412,l),
(418,444,ls),
(416,450,o),
(412,454,o),
(404,453,cs),
(402,453,o),
(399,453,o),
(398,456,c),
(392,462,o),
(385,467,o),
(378,471,c),
(379,479,ls),
(379,481,o),
(378,482,o),
(377,483,cs),
(371,488,o),
(358,487,o),
(353,482,cs),
(337,465,l),
(332,468,o),
(327,467,o),
(323,467,c),
(316,476,o),
(309,484,o),
(302,491,cs),
(295,497,o),
(292,497,o),
(285,492,c),
(270,478,l),
(250,488,o),
(232,482,o),
(214,470,c),
(207,481,ls),
(200,493,o),
(197,494,o),
(184,489,cs),
(174,485,o),
(165,481,o),
(155,476,cs),
(134,465,o),
(136,467,o),
(134,442,c),
(133,439,o),
(135,435,o),
(132,432,c),
(128,434,o),
(127,438,o),
(125,441,cs),
(119,450,o),
(114,452,o),
(102,448,c),
(88,441,ls),
(72,433,o),
(72,432,o),
(79,416,cs),
(89,394,l),
(76,392,o),
(67,384,o),
(64,372,cs),
(61,359,o),
(62,347,o),
(70,336,c),
(68,331,ls),
(61,313,o),
(58,295,o),
(59,275,cs),
(60,258,o),
(58,242,o),
(53,225,cs),
(50,217,o),
(49,208,o),
(51,199,cs),
(55,171,o),
(67,146,o),
(81,121,cs),
(85,114,o),
(86,112,o),
(81,105,cs),
(74,97,l),
(67,86,o),
(71,76,o),
(84,74,cs),
(90,73,o),
(96,73,o),
(101,73,cs),
(116,73,o),
(129,67,o),
(141,58,cs),
(149,52,o),
(156,45,o),
(163,38,cs),
(171,28,o),
(180,18,o),
(190,10,cs),
(199,2,o),
(210,-4,o),
(222,-6,cs)
);
}
);
width = 528;
}
);
note = at;
unicode = 64;
},
{
glyphname = A;
lastChange = "2024-09-21 16:40:38 +0000";
layers = (
{
layerId = m01;
shapes = (
{
closed = 1;
nodes = (
(86,56,o),
(89,57,o),
(91,60,cs),
(96,67,o),
(103,73,o),
(108,81,cs),
(130,112,o),
(154,143,o),
(178,173,c),
(179,175,o),
(180,178,o),
(184,179,c),
(193,171,o),
(205,168,o),
(216,164,cs),
(228,160,o),
(238,161,o),
(249,166,cs),
(260,172,l),
(331,212,ls),
(357,227,o),
(373,249,o),
(379,278,cs),
(382,297,ls),
(384,320,o),
(376,339,o),
(357,353,cs),
(350,359,o),
(341,363,o),
(332,368,cs),
(324,372,o),
(316,376,o),
(309,382,c),
(327,400,o),
(333,417,o),
(330,433,c),
(326,436,o),
(321,435,o),
(316,437,c),
(310,438,o),
(308,437,o),
(308,431,cs),
(307,426,o),
(307,421,o),
(305,417,cs),
(300,409,o),
(293,402,o),
(287,396,c),
(281,398,o),
(278,401,o),
(275,404,c),
(265,410,o),
(256,417,o),
(247,422,cs),
(233,430,o),
(218,432,o),
(204,429,cs),
(165,421,o),
(137,401,o),
(121,364,cs),
(114,347,o),
(112,330,o),
(111,312,cs),
(109,286,o),
(111,260,o),
(121,235,cs),
(126,223,o),
(133,215,o),
(146,214,cs),
(147,214,o),
(147,213,o),
(147,212,c),
(145,209,ls),
(127,182,o),
(109,156,o),
(88,132,cs),
(54,92,ls),
(49,86,o),
(49,76,o),
(54,70,cs),
(61,62,o),
(71,57,o),
(82,56,cs)
);
}
);
width = 432;
}
);
note = A;
unicode = (65,192,193,194,195,196,197);
},
{
glyphname = B;
lastChange = "2024-09-21 16:40:38 +0000";
layers = (
{
layerId = m01;
shapes = (
{
closed = 1;
nodes = (
(296,11,o),
(307,28,o),
(301,50,cs),
(300,53,o),
(299,56,o),
(299,60,c),
(301,61,o),
(303,60,o),
(304,59,c),
(317,57,o),
(329,56,o),
(341,59,cs),
(369,64,o),
(392,90,o),
(382,124,c),
(382,126,o),
(380,128,o),
(382,132,c),
(394,128,o),
(406,126,o),
(418,125,cs),
(434,124,o),
(449,127,o),
(462,135,cs),
(473,142,o),
(477,151,o),
(476,164,c),
(474,173,l),
(478,175,o),
(481,173,o),
(484,173,cs),
(496,172,o),
(508,172,o),
(520,176,cs),
(538,182,o),
(552,209,o),
(531,229,cs),
(526,234,o),
(519,238,o),
(513,242,cs),
(509,244,o),
(504,245,o),
(500,248,c),
(505,254,o),
(510,259,o),
(513,265,cs),
(516,272,o),
(519,279,o),
(521,286,cs),
(530,319,o),
(530,351,o),
(521,384,cs),
(512,418,o),
(491,443,o),
(457,455,cs),
(447,459,ls),
(430,465,o),
(413,470,o),
(395,474,cs),
(391,475,o),
(387,476,o),
(384,478,cs),
(371,486,o),
(357,489,o),
(342,487,cs),
(325,486,o),
(312,480,o),
(304,465,cs),
(300,457,o),
(298,448,o),
(297,439,cs),
(295,429,o),
(294,419,o),
(296,408,c),
(290,408,ls),
(266,406,o),
(248,393,o),
(242,372,cs),
(238,361,o),
(235,349,o),
(238,337,cs),
(238,336,o),
(238,335,o),
(238,333,c),
(235,333,o),
(233,335,o),
(232,336,cs),
(213,348,o),
(195,347,o),
(178,332,cs),
(169,325,o),
(163,315,o),
(159,304,cs),
(151,281,l),
(148,281,o),
(145,283,o),
(142,284,cs),
(122,293,o),
(106,290,o),
(91,275,cs),
(76,260,o),
(64,243,o),
(57,223,cs),
(52,208,o),
(49,193,o),
(50,177,cs),
(52,157,o),
(62,142,o),
(87,142,cs),
(91,142,ls),
(98,142,o),
(102,139,o),
(106,135,cs),
(110,131,o),
(112,127,o),
(115,123,cs),
(120,114,o),
(123,105,o),
(127,95,cs),
(134,80,o),
(140,65,o),
(149,51,cs),
(156,40,o),
(163,30,o),
(174,22,cs),
(182,16,o),
(191,11,o),
(202,11,cs),
(207,11,o),
(211,10,o),
(215,10,c),
(234,7,o),
(253,4,o),
(273,7,cs)
);
}
);
width = 591;
}
);
note = B;
unicode = 66;
},
{
glyphname = C;
lastChange = "2024-09-21 16:40:38 +0000";
layers = (
{
layerId = m01;
shapes = (
{
closed = 1;
nodes = (
(164,-2,o),
(167,-1,o),
(171,-1,c),
(189,2,o),
(202,10,o),
(206,29,cs),
(208,35,ls),
(212,52,o),
(212,69,o),
(211,86,cs),
(204,167,ls),
(204,170,o),
(203,174,o),
(204,177,cs),
(208,190,o),
(212,203,o),
(219,215,cs),
(224,224,o),
(231,232,o),
(241,238,cs),
(252,244,o),
(256,242,o),
(258,229,cs),
(264,188,o),
(263,147,o),
(259,106,cs),
(259,99,o),
(256,92,o),
(252,85,cs),
(247,77,o),
(240,70,o),
(236,61,cs),
(229,48,o),
(232,42,o),
(246,38,c),
(247,38,o),
(247,38,o),
(248,37,c),
(249,29,o),
(253,22,o),
(261,20,cs),
(275,15,o),
(291,15,o),
(304,29,cs),
(314,41,o),
(320,53,o),
(323,68,cs),
(337,124,o),
(339,182,o),
(334,240,cs),
(332,267,o),
(329,295,o),
(313,319,c),
(331,307,ls),
(338,302,o),
(344,298,o),
(352,296,cs),
(365,291,o),
(376,294,o),
(386,304,cs),
(401,322,o),
(403,345,o),
(392,368,cs),
(387,378,o),
(380,387,o),
(374,396,cs),
(368,404,o),
(363,413,o),
(359,423,cs),
(355,431,o),
(353,439,o),
(353,447,cs),
(352,457,o),
(355,460,o),
(365,460,cs),
(375,460,o),
(384,457,o),
(393,453,cs),
(406,447,o),
(419,444,o),
(432,444,cs),
(437,444,o),
(441,444,o),
(444,446,cs),
(456,452,o),
(463,465,o),
(448,476,cs),
(427,491,o),
(404,497,o),
(378,495,cs),
(361,494,o),
(345,489,o),
(332,477,cs),
(324,471,o),
(319,462,o),
(318,452,cs),
(317,444,o),
(317,435,o),
(319,427,cs),
(321,415,o),
(327,403,o),
(332,392,cs),
(337,381,o),
(342,371,o),
(345,359,cs),
(346,355,o),
(348,351,o),
(343,348,c),
(338,350,o),
(335,354,o),
(332,358,cs),
(326,365,o),
(320,372,o),
(312,377,cs),
(302,385,o),
(295,384,o),
(287,375,cs),
(280,368,o),
(277,358,o),
(273,347,c),
(272,355,o),
(274,364,o),
(278,374,c),
(279,375,o),
(279,376,o),
(280,378,c),
(259,378,o),
(237,357,o),
(240,341,cs),
(239,348,o),
(239,364,o),
(242,378,c),
(244,380,o),
(245,381,o),
(243,383,c),
(231,374,o),
(221,363,o),
(216,353,c),
(213,362,o),
(216,369,o),
(217,381,c),
(217,381,o),
(216,380,o),
(215,380,c),
(204,374,o),
(193,362,o),
(188,349,c),
(185,357,o),
(185,371,o),
(185,371,c),
(181,371,o),
(179,368,o),
(176,366,c),
(170,359,o),
(165,352,o),
(162,343,cs),
(158,334,o),
(156,324,o),
(154,315,cs),
(151,304,l),
(146,313,ls),
(142,320,o),
(136,327,o),
(128,331,cs),
(123,334,o),
(120,332,o),
(119,326,cs),
(119,319,ls),
(118,312,o),
(119,304,o),
(116,296,c),
(104,293,o),
(92,289,o),
(80,282,c),
(76,290,o),
(73,298,o),
(67,303,cs),
(65,305,o),
(64,308,o),
(61,307,cs),
(57,306,o),
(57,303,o),
(57,300,cs),
(55,282,ls),
(53,263,o),
(50,245,o),
(50,226,cs),
(50,212,o),
(55,199,o),
(63,188,cs),
(75,173,o),
(90,168,o),
(109,172,cs),
(113,173,o),
(116,175,o),
(121,174,c),
(132,146,o),
(138,117,o),
(133,86,c),
(132,83,o),
(131,81,o),
(127,79,cs),
(121,76,o),
(115,72,o),
(110,66,cs),
(103,57,o),
(106,49,o),
(117,47,cs),
(125,45,o),
(132,47,o),
(139,49,cs),
(142,50,o),
(145,52,o),
(149,51,c),
(148,49,o),
(147,48,o),
(146,47,cs),
(142,42,o),
(138,37,o),
(136,32,cs),
(128,13,o),
(139,-3,o),
(160,-2,cs)
);
}
);
width = 507;
}
);
note = C;
unicode = (67,199);
},
{
glyphname = D;
lastChange = "2024-09-21 16:40:38 +0000";
layers = (
{
layerId = m01;
shapes = (
{
closed = 1;
nodes = (
(221,-12,o),
(227,-12,o),
(233,-10,cs),
(242,-6,o),
(244,1,o),
(240,10,cs),
(237,15,o),
(234,20,o),
(229,24,cs),
(218,32,ls),
(215,35,o),
(215,39,o),
(217,42,c),
(218,46,o),
(221,48,o),
(224,50,cs),
(229,55,o),
(233,60,o),
(238,65,cs),
(246,75,o),
(251,86,o),
(249,99,c),
(249,106,o),
(249,112,o),
(249,119,c),
(253,116,o),
(253,112,o),
(254,109,cs),
(263,88,o),
(272,68,o),
(286,50,cs),
(292,42,o),
(298,34,o),
(306,28,cs),
(340,5,o),
(376,25,o),
(387,57,cs),
(390,66,o),
(386,70,o),
(377,71,cs),
(370,72,o),
(363,70,o),
(356,68,cs),
(346,65,o),
(336,61,o),
(326,58,c),
(303,113,o),
(288,170,o),
(290,233,c),
(307,216,o),
(325,211,o),
(346,221,c),
(346,219,o),
(347,218,o),
(346,217,c),
(338,155,ls),
(337,148,o),
(337,142,o),
(337,135,cs),
(337,129,o),
(343,125,o),
(350,124,cs),
(355,124,o),
(357,126,o),
(358,134,cs),
(358,138,ls),
(360,166,o),
(362,195,o),
(362,223,cs),
(362,226,o),
(362,228,o),
(364,231,c),
(369,232,o),
(374,233,o),
(378,238,cs),
(385,246,o),
(388,256,o),
(387,267,cs),
(386,276,o),
(382,282,o),
(373,284,c),
(371,285,o),
(368,284,o),
(366,287,c),
(371,346,l),
(384,349,o),
(395,354,o),
(406,360,cs),
(411,362,o),
(414,366,o),
(413,372,cs),
(411,391,l),
(409,409,l),
(410,411,o),
(412,411,o),
(414,411,c),
(420,413,o),
(422,415,o),
(418,420,cs),
(399,443,l),
(398,433,o),
(400,425,o),
(402,417,cs),
(404,403,o),
(406,390,o),
(406,376,c),
(407,372,o),
(406,369,o),
(403,367,cs),
(393,362,o),
(383,357,o),
(372,354,c),
(372,364,o),
(373,373,o),
(374,381,c),
(384,384,o),
(385,385,o),
(383,394,cs),
(376,433,ls),
(376,435,o),
(377,437,o),
(374,439,c),
(370,433,o),
(367,428,o),
(365,421,cs),
(359,403,ls),
(357,398,o),
(352,392,o),
(353,386,c),
(356,383,o),
(360,386,o),
(363,382,c),
(363,375,o),
(361,367,o),
(360,360,c),
(354,358,o),
(349,361,o),
(344,363,cs),
(329,371,o),
(324,382,o),
(330,398,cs),
(344,441,ls),
(345,443,o),
(346,445,o),
(344,448,c),
(334,443,o),
(326,435,o),
(318,427,cs),
(314,424,o),
(315,421,o),
(320,419,c),
(322,417,o),
(326,417,o),
(328,414,c),
(325,407,ls),
(321,398,o),
(319,389,o),
(317,379,cs),
(315,372,o),
(317,366,o),
(324,362,cs),
(328,359,o),
(332,356,o),
(337,354,cs),
(359,345,l),
(355,302,l),
(340,294,o),
(338,292,o),
(335,277,cs),
(334,273,o),
(335,268,o),
(329,267,cs),
(324,266,o),
(320,269,o),
(317,272,c),
(314,277,o),
(311,281,o),
(308,286,cs),
(295,307,ls),
(290,315,o),
(285,321,o),
(278,327,c),
(276,328,o),
(274,328,o),
(274,331,c),
(290,343,o),
(295,363,o),
(286,380,cs),
(283,387,ls),
(281,392,o),
(280,398,o),
(281,404,cs),
(282,411,o),
(283,419,o),
(284,427,c),
(287,430,l),
(301,440,o),
(307,455,o),
(307,471,cs),
(307,474,o),
(306,476,o),
(306,478,c),
(305,481,o),
(301,482,o),
(299,479,cs),
(298,477,o),
(297,475,o),
(295,473,c),
(290,465,o),
(285,459,o),
(277,455,c),
(250,480,o),
(221,475,o),
(192,463,c),
(189,475,o),
(191,484,o),
(197,495,c),
(199,497,o),
(202,500,o),
(200,505,c),
(184,500,o),
(175,488,o),
(167,475,cs),
(160,461,o),
(160,447,o),
(169,434,c),
(165,427,o),
(162,421,o),
(159,414,cs),
(157,407,o),
(156,399,o),
(155,392,cs),
(154,381,o),
(156,370,o),
(160,360,cs),
(163,354,o),
(167,349,o),
(173,345,c),
(171,344,o),
(170,343,o),
(169,343,c),
(142,335,o),
(127,316,o),
(121,290,cs),
(116,266,o),
(124,248,o),
(144,236,cs),
(157,228,l),
(150,206,o),
(151,203,o),
(169,187,c),
(172,175,o),
(167,166,o),
(160,157,cs),
(154,150,o),
(147,145,o),
(139,141,cs),
(128,136,o),
(122,137,o),
(115,148,cs),
(107,161,o),
(105,175,o),
(106,189,c),
(115,192,o),
(117,194,o),
(120,201,cs),
(122,205,o),
(122,209,o),
(122,214,cs),
(122,227,o),
(118,238,o),
(111,248,cs),
(104,259,o),
(98,270,o),
(85,275,cs),
(76,278,o),
(75,278,o),
(75,269,cs),
(75,257,o),
(72,246,o),
(67,235,cs),
(54,208,ls),
(51,202,o),
(50,196,o),
(50,189,cs),
(50,172,o),
(63,164,o),
(79,171,cs),
(81,172,o),
(84,174,o),
(87,174,c),
(88,171,o),
(88,168,o),
(89,165,cs),
(92,151,o),
(97,137,o),
(105,126,cs),
(117,111,o),
(132,108,o),
(149,118,cs),
(159,124,o),
(168,132,o),
(174,142,cs),
(175,144,o),
(176,147,o),
(179,148,c),
(185,137,o),
(193,127,o),
(199,118,c),
(192,101,o),
(181,88,o),
(171,75,cs),
(166,69,o),
(161,63,o),
(157,57,cs),
(152,49,o),
(152,42,o),
(156,35,cs),
(162,27,o),
(167,19,o),
(173,12,cs),
(184,0,o),
(198,-8,o),
(215,-11,cs)
);
}
);
width = 470;
}
);
note = D;
unicode = 68;
},
{
glyphname = E;
lastChange = "2024-09-21 16:40:38 +0000";
layers = (
{
layerId = m01;
shapes = (
{
closed = 1;
nodes = (
(220,-8,o),
(222,-6,o),
(224,-4,cs),
(239,15,ls),
(242,18,o),
(246,22,o),
(251,23,cs),
(259,26,o),
(264,32,o),
(264,42,cs),
(263,49,o),
(265,55,o),
(269,60,c),
(277,59,o),
(285,59,o),
(293,60,c),
(296,53,o),
(299,47,o),
(305,41,c),
(327,41,ls),
(340,41,o),
(349,48,o),
(352,61,cs),
(354,68,o),
(355,74,o),
(354,80,cs),
(352,102,o),
(342,110,o),
(321,106,cs),
(309,104,o),
(298,101,o),
(295,86,c),
(280,85,l),
(287,105,ls),
(288,108,o),
(290,111,o),
(293,114,cs),
(316,139,o),
(337,165,o),
(357,192,cs),
(362,198,o),
(364,207,o),
(369,212,cs),
(374,217,o),
(382,219,o),
(389,222,cs),
(394,224,o),
(397,228,o),
(398,233,cs),
(400,241,o),
(402,248,o),
(404,255,cs),
(410,271,o),
(411,287,o),
(413,304,cs),
(414,311,o),
(412,314,o),
(405,316,cs),
(393,321,ls),
(388,323,o),
(382,323,o),
(377,326,c),
(380,352,o),
(382,379,o),
(385,405,cs),
(389,430,o),
(396,456,o),
(404,480,c),
(399,484,o),
(395,485,o),
(391,487,c),
(378,491,o),
(364,495,o),
(350,497,cs),
(306,504,o),
(263,504,o),
(219,502,cs),
(192,501,o),
(165,498,o),
(138,493,cs),
(116,490,o),
(94,484,o),
(71,482,cs),
(66,481,o),
(61,480,o),
(56,476,c),
(76,431,o),
(83,382,o),
(95,333,c),
(82,326,ls),
(72,320,o),
(64,314,o),
(57,306,c),
(52,302,o),
(50,297,o),
(50,291,cs),
(50,273,o),
(51,254,o),
(52,236,cs),
(53,227,o),
(56,225,o),
(65,224,cs),
(94,222,l),
(96,212,l),
(100,174,ls),
(100,169,o),
(102,165,o),
(106,161,cs),
(117,151,l),
(144,128,l),
(146,125,o),
(149,124,o),
(149,120,cs),
(151,108,o),
(154,97,o),
(158,85,c),
(153,84,o),
(149,83,o),
(144,84,c),
(141,88,ls),
(133,99,o),
(123,102,o),
(110,99,cs),
(107,98,o),
(105,97,o),
(103,94,c),
(97,79,o),
(96,63,o),
(100,47,cs),
(101,43,o),
(104,41,o),
(108,41,cs),
(113,40,o),
(118,40,o),
(123,39,cs),
(131,36,o),
(136,40,o),
(140,46,cs),
(145,54,l),
(166,54,l),
(169,51,o),
(169,47,o),
(169,43,cs),
(168,37,o),
(168,34,o),
(174,35,cs),
(181,35,o),
(184,31,o),
(187,25,cs),
(190,20,ls),
(195,11,o),
(204,3,o),
(209,-7,cs),
(210,-10,o),
(213,-11,o),
(216,-10,cs)
);
}
);
width = 463;
}
);
note = E;
unicode = (69,200,201,202,203);
},
{
glyphname = F;
lastChange = "2024-09-21 16:40:38 +0000";
layers = (
{
layerId = m01;
shapes = (
{
closed = 1;
nodes = (
(344,-23,l),
(348,-23,ls),
(350,-23,o),
(351,-22,o),
(351,-20,c),
(352,-17,o),
(350,-16,o),
(348,-16,cs),
(339,-16,ls),
(335,-16,o),
(331,-17,o),
(328,-15,c),
(326,-7,l),
(416,-4,l),
(420,1,o),
(422,6,o),
(423,11,cs),
(431,43,l),
(447,118,l),
(458,123,o),
(470,118,o),
(481,120,c),
(481,122,l),
(466,159,o),
(452,195,o),
(438,232,cs),
(436,237,o),
(433,239,o),
(428,238,c),
(346,233,ls),
(345,233,o),
(343,232,o),
(340,235,c),
(351,358,l),
(362,360,o),
(373,354,o),
(382,358,c),
(382,364,o),
(379,368,o),
(376,371,cs),
(346,403,o),
(321,438,o),
(294,471,cs),
(290,476,o),
(286,482,o),
(281,486,cs),
(275,491,o),
(275,496,o),
(277,502,c),
(282,505,o),
(287,509,o),
(293,507,cs),
(295,506,o),
(297,507,o),
(298,509,cs),
(299,511,o),
(299,512,o),
(297,514,cs),
(296,515,o),
(294,514,o),
(292,514,c),
(287,512,o),
(282,509,o),
(277,509,c),
(275,512,o),
(277,515,o),
(274,517,c),
(272,517,o),
(271,515,o),
(271,514,cs),
(272,506,o),
(266,503,o),
(260,500,cs),
(257,499,o),
(253,499,o),
(253,495,c),
(259,494,o),
(263,499,o),
(270,499,c),
(270,493,o),
(273,488,o),
(268,482,cs),
(224,428,l),
(216,419,l),
(215,427,o),
(217,434,o),
(218,440,cs),
(220,447,o),
(217,450,o),
(210,449,c),
(189,443,l),
(182,440,o),
(181,439,o),
(182,431,cs),
(186,389,l),
(187,385,o),
(186,382,o),
(183,379,cs),
(165,357,l),
(164,355,o),
(162,353,o),
(161,351,cs),
(158,347,o),
(161,342,o),
(167,342,c),
(169,341,o),
(172,342,o),
(174,343,c),
(182,345,o),
(191,348,o),
(200,349,c),
(207,227,l),
(193,225,o),
(179,225,o),
(165,224,cs),
(149,223,o),
(134,223,o),
(118,221,cs),
(113,220,o),
(109,219,o),
(107,214,cs),
(93,181,o),
(76,151,o),
(61,119,cs),
(57,112,o),
(54,105,o),
(51,97,cs),
(50,95,o),
(49,93,o),
(51,91,c),
(68,92,o),
(85,95,o),
(103,95,c),
(106,82,ls),
(113,58,o),
(120,33,o),
(129,9,cs),
(130,7,o),
(130,3,o),
(134,3,c),
(139,-13,l),
(227,-10,l),
(224,-17,l),
(221,-20,o),
(215,-18,o),
(214,-24,c),
(218,-28,o),
(222,-27,o),
(227,-27,cs)
);
},
{
closed = 1;
nodes = (
(191,456,o),
(191,459,o),
(191,462,cs),
(191,465,o),
(190,469,o),
(192,472,c),
(198,475,o),
(204,478,o),
(209,484,cs),
(214,491,o),
(212,497,o),
(204,498,c),
(178,484,l),
(180,500,o),
(187,512,o),
(201,518,c),
(198,522,o),
(194,520,o),
(191,518,cs),
(181,510,o),
(174,500,o),
(173,487,c),
(172,484,o),
(172,480,o),
(174,478,cs),
(177,474,o),
(178,469,o),
(179,464,c),
(181,460,ls),
(183,457,o),
(184,455,o),
(188,456,cs)
);
}
);
width = 531;
}
);
note = F;
unicode = 70;
},
{
glyphname = G;
lastChange = "2024-09-21 16:40:38 +0000";
layers = (
{
layerId = m01;
shapes = (
{
closed = 1;
nodes = (
(124,25,o),
(134,27,o),
(145,31,cs),
(156,36,o),
(167,43,o),
(177,49,cs),
(195,58,o),
(213,66,o),
(233,70,cs),
(242,72,o),
(251,72,o),
(259,66,cs),
(275,54,o),
(293,47,o),
(311,39,cs),
(328,31,o),
(345,28,o),
(363,33,cs),
(373,35,o),
(381,40,o),
(390,44,cs),
(408,53,o),
(418,67,o),
(422,86,cs),
(426,103,o),
(422,116,o),
(408,126,cs),
(398,133,ls),
(395,135,o),
(393,135,o),
(391,139,c),
(393,141,o),
(397,142,o),
(399,143,cs),
(427,161,o),
(441,186,o),
(439,219,cs),
(438,241,o),
(421,252,o),
(400,247,cs),
(392,245,o),
(385,241,o),
(378,237,cs),
(372,233,o),
(365,230,o),
(357,228,cs),
(350,227,o),
(347,229,o),
(349,236,cs),
(351,242,o),
(354,246,o),
(357,251,cs),
(364,262,o),
(372,271,o),
(381,281,cs),
(406,310,ls),
(414,320,o),
(420,332,o),
(423,345,cs),
(429,373,o),
(415,393,o),
(387,398,cs),
(365,402,o),
(344,399,o),
(324,393,cs),
(281,381,o),
(247,356,o),
(218,322,cs),
(205,306,o),
(193,290,o),
(181,273,cs),
(173,262,o),
(165,251,o),
(156,241,cs),
(149,232,o),
(141,225,o),
(131,220,cs),
(122,214,o),
(112,213,o),
(102,217,cs),
(89,221,o),
(78,228,o),
(68,237,c),
(66,238,o),
(65,240,o),
(63,241,cs),
(59,244,o),
(56,243,o),
(54,238,cs),
(52,233,o),
(50,228,o),
(50,223,cs),
(48,197,o),
(61,174,o),
(86,163,cs),
(92,160,o),
(99,158,o),
(105,155,cs),
(114,151,o),
(116,146,o),
(113,137,cs),
(112,134,o),
(111,131,o),
(109,128,cs),
(97,105,ls),
(91,92,o),
(87,80,o),
(86,66,cs),
(85,48,o),
(95,35,o),
(112,29,cs)
);
},
{
closed = 1;
nodes = (
(129,280,o),
(137,282,o),
(144,292,cs),
(149,299,o),
(152,306,o),
(153,313,cs),
(155,323,o),
(154,333,o),
(148,341,cs),
(141,351,o),
(128,353,o),
(118,345,c),
(116,344,o),
(115,341,o),
(111,340,c),
(105,353,o),
(97,356,o),
(85,349,cs),
(80,346,ls),
(75,343,o),
(74,340,o),
(77,335,cs),
(92,310,ls),
(96,304,o),
(100,298,o),
(105,293,cs),
(108,289,o),
(112,286,o),
(117,284,cs)
);
},
{
closed = 1;
nodes = (
(92,329,l),
(83,339,l),
(83,340,o),
(83,340,o),
(84,340,c),
(88,343,o),
(93,346,o),
(99,344,c),
(104,341,o),
(103,335,o),
(103,329,cs),
(103,326,o),
(103,322,o),
(101,317,c)
);
},
{
closed = 1;
nodes = (
(116,296,o),
(110,304,o),
(113,313,cs),
(114,319,o),
(116,326,o),
(120,331,c),
(122,335,o),
(126,339,o),
(132,339,cs),
(138,338,o),
(140,332,o),
(142,327,c),
(142,325,o),
(142,322,o),
(142,321,cs),
(142,314,o),
(140,308,o),
(138,302,cs),
(136,296,o),
(131,294,o),
(125,294,c)
);
},
{
closed = 1;
nodes = (
(168,333,o),
(180,333,o),
(189,342,cs),
(193,347,o),
(196,352,o),
(197,358,cs),
(203,383,o),
(188,404,o),
(169,405,cs),
(162,406,o),
(157,404,o),
(154,399,cs),
(148,391,o),
(146,383,o),
(146,371,cs),
(147,362,o),
(150,351,o),
(159,342,cs)
);
},
{
closed = 1;
nodes = (
(177,345,o),
(170,346,o),
(165,352,cs),
(155,364,o),
(154,383,o),
(162,398,c),
(174,398,o),
(181,392,o),
(186,382,cs),
(190,371,o),
(189,361,o),
(182,352,cs)
);
},
{
closed = 1;
nodes = (
(229,382,o),
(240,388,o),
(245,398,c),
(248,402,o),
(249,407,o),
(249,414,cs),
(249,420,o),
(247,428,o),
(239,432,cs),
(223,440,o),
(207,432,o),
(203,414,c),
(203,411,ls),
(202,399,o),
(209,388,o),
(219,385,cs)
);
},
{
closed = 1;
nodes = (
(226,394,o),
(219,395,o),
(215,402,cs),
(212,409,o),
(213,416,o),
(215,422,cs),
(216,426,o),
(219,426,o),
(223,426,cs),
(225,426,o),
(229,425,o),
(232,424,cs),
(236,423,o),
(238,420,o),
(239,416,c),
(239,409,o),
(237,403,o),
(232,399,cs)
);
},
{
closed = 1;
nodes = (
(279,411,o),
(287,415,o),
(292,422,cs),
(298,433,o),
(293,448,o),
(280,452,c),
(279,452,o),
(277,452,o),
(277,453,c),
(272,457,o),
(268,454,o),
(265,450,cs),
(261,445,o),
(260,439,o),
(260,433,cs),
(259,422,o),
(264,415,o),
(272,413,cs)
);
},
{
closed = 1;
nodes = (
(272,424,o),
(271,427,o),
(270,430,cs),
(269,436,o),
(270,442,o),
(274,449,c),
(278,446,o),
(281,444,o),
(283,440,cs),
(284,436,o),
(284,433,o),
(283,429,c),
(281,426,o),
(279,424,o),
(276,424,cs)
);
},
{
closed = 1;
nodes = (
(328,425,o),
(337,426,o),
(343,433,cs),
(346,438,o),
(347,443,o),
(347,449,cs),
(347,457,o),
(344,461,o),
(335,463,c),
(334,464,o),
(332,464,o),
(331,465,cs),
(328,468,o),
(325,466,o),
(323,464,cs),
(315,456,o),
(315,440,o),
(321,433,cs)
);
},
{
closed = 1;
nodes = (
(326,443,o),
(327,449,o),
(328,456,c),
(332,457,o),
(336,457,o),
(337,452,c),
(339,449,o),
(337,444,o),
(332,439,c)
);
},
{
closed = 1;
nodes = (
(381,439,o),
(385,443,o),
(385,448,cs),
(385,452,o),
(383,456,o),
(379,456,cs),
(374,456,o),
(371,452,o),
(371,446,cs),
(371,442,o),
(373,439,o),
(377,439,cs)
);
},
{
closed = 1;
nodes = (
(429,407,o),
(430,409,o),
(431,412,c),
(431,415,o),
(430,417,o),
(427,417,cs),
(424,417,o),
(422,415,o),
(422,412,cs),
(422,410,o),
(423,408,o),
(426,408,c)
);
},
{
closed = 1;
nodes = (
(412,429,o),
(414,431,o),
(414,434,cs),
(414,438,o),
(412,440,o),
(409,440,c),
(406,441,o),
(404,438,o),
(403,435,c),
(404,432,o),
(405,430,o),
(408,429,c)
);
}
);
width = 489;
}
);
note = G;
unicode = 71;
},
{
glyphname = H;
lastChange = "2024-09-21 16:40:38 +0000";
layers = (
{
layerId = m01;
shapes = (
{
closed = 1;
nodes = (
(123,-16,o),
(136,-5,o),
(148,6,cs),
(151,9,o),
(151,14,o),
(149,18,cs),
(146,26,o),
(142,33,o),
(136,40,cs),
(134,43,o),
(130,46,o),
(128,51,c),
(198,125,l),
(202,123,o),
(203,120,o),
(205,117,cs),
(225,90,ls),
(229,85,o),
(234,82,o),
(240,81,cs),
(245,80,o),
(251,80,o),
(255,77,cs),
(261,71,o),
(265,74,o),
(270,77,cs),
(283,86,o),
(295,95,o),
(306,106,cs),
(334,132,o),
(362,158,o),
(391,183,cs),
(407,197,o),
(423,211,o),
(438,227,cs),
(459,248,o),
(476,271,o),
(490,296,cs),
(510,332,o),
(517,370,o),
(513,410,cs),
(513,415,o),
(512,419,o),
(513,424,c),
(515,424,l),
(520,419,o),
(523,412,o),
(530,408,c),
(529,415,o),
(526,421,o),
(523,426,c),
(522,431,l),
(530,430,l),
(541,423,o),
(551,415,o),
(565,412,c),
(557,421,o),
(548,427,o),
(538,433,c),
(533,450,l),
(548,459,l),
(560,459,o),
(571,461,o),
(582,464,c),
(571,465,o),
(558,465,o),
(548,463,c),
(536,469,l),
(539,476,l),
(544,481,o),
(549,486,o),
(554,491,c),
(555,493,o),
(557,495,o),
(556,498,c),
(555,499,o),
(553,498,o),
(552,497,c),
(544,493,o),
(537,487,o),
(530,481,c),
(522,479,l),
(520,489,l),
(526,505,l),
(526,507,o),
(527,509,o),
(525,512,c),
(517,504,o),
(516,494,o),
(509,486,c),
(509,498,l),
(508,501,o),
(508,505,o),
(503,508,c),
(501,498,o),
(500,489,o),
(502,480,c),
(485,488,l),
(479,496,o),
(472,503,o),
(467,505,c),
(467,500,o),
(472,493,o),
(479,486,c),
(479,471,l),
(477,472,o),
(475,473,o),
(472,472,c),
(470,469,o),
(474,468,o),
(474,466,c),
(467,463,o),
(459,464,o),
(452,462,cs),
(444,461,o),
(437,462,o),
(431,457,c),
(445,456,o),
(459,457,o),
(474,461,c),
(486,455,l),
(445,438,ls),
(432,433,o),
(421,426,o),
(410,418,cs),
(400,410,o),
(390,401,o),
(381,392,cs),
(307,318,ls),
(264,275,o),
(222,230,o),
(178,188,cs),
(176,186,o),
(174,185,o),
(175,182,cs),
(176,178,o),
(173,176,o),
(171,173,cs),
(161,158,o),
(148,145,o),
(135,132,cs),
(89,88,ls),
(80,80,o),
(72,71,o),
(65,61,cs),
(59,53,o),
(54,45,o),
(52,35,cs),
(47,19,o),
(51,7,o),
(64,-3,cs),
(70,-8,ls),
(80,-17,o),
(93,-20,o),
(106,-18,cs)
);
}
);
width = 632;
}
);
note = H;
unicode = 72;
},
{
glyphname = I;
lastChange = "2024-09-21 16:40:38 +0000";
layers = (
{
layerId = m01;
shapes = (
{
closed = 1;
nodes = (
(159,0,o),
(163,1,o),
(166,7,cs),
(181,41,l),
(183,44,o),
(183,47,o),
(187,49,c),
(189,42,o),
(190,35,o),
(194,29,cs),
(198,23,o),
(204,23,o),
(208,29,cs),
(212,36,o),
(215,44,o),
(218,52,cs),
(220,57,o),
(221,62,o),
(225,68,c),
(228,64,o),
(232,63,o),
(234,59,c),
(225,41,ls),
(222,33,o),
(220,27,o),
(222,22,c),
(225,24,o),
(228,27,o),
(230,30,cs),
(239,47,l),
(242,51,ls),
(243,53,o),
(244,55,o),
(247,54,cs),
(250,53,o),
(249,51,o),
(248,48,cs),
(242,26,ls),
(241,22,o),
(239,18,o),
(243,13,c),
(253,23,o),
(255,37,o),
(260,49,c),
(263,50,o),
(266,49,o),
(269,47,c),
(268,36,o),
(264,25,o),
(268,13,c),
(277,23,o),
(276,36,o),
(280,47,c),
(290,46,o),
(300,47,o),
(310,47,c),
(315,29,ls),
(317,24,o),
(317,18,o),
(324,16,c),
(330,27,o),
(323,38,o),
(324,50,c),
(328,50,o),
(331,52,o),
(334,52,c),
(340,42,o),
(341,30,o),
(349,20,c),
(350,33,o),
(344,44,o),
(343,55,c),
(346,56,o),
(348,58,o),
(353,59,c),
(360,42,ls),
(363,36,o),
(364,29,o),
(373,26,c),
(375,42,o),
(366,54,o),
(364,68,c),
(367,70,o),
(369,74,o),
(374,76,c),
(376,73,o),
(377,70,o),
(378,67,cs),
(382,59,o),
(386,50,o),
(393,43,cs),
(396,39,o),
(398,33,o),
(404,34,cs),
(411,36,o),
(410,43,o),
(411,48,cs),
(412,57,o),
(412,66,o),
(412,76,c),
(416,74,o),
(418,71,o),
(419,69,c),
(428,59,o),
(437,50,o),
(447,42,cs),
(451,39,o),
(456,35,o),
(462,34,cs),
(468,32,o),
(471,35,o),
(470,42,cs),
(470,44,o),
(469,47,o),
(468,49,cs),
(456,84,ls),
(455,86,o),
(453,88,o),
(456,91,c),
(464,85,ls),
(478,77,o),
(490,69,o),
(504,62,cs),
(507,60,o),
(510,57,o),
(514,60,cs),
(518,63,o),
(516,67,o),
(516,70,cs),
(516,72,o),
(515,73,o),
(515,74,cs),
(512,89,o),
(506,104,o),
(501,119,cs),
(500,121,o),
(498,123,o),
(500,126,c),
(530,108,ls),
(538,103,o),
(547,102,o),
(556,101,cs),
(562,100,o),
(565,103,o),
(563,109,cs),
(561,116,o),
(559,124,o),
(557,130,cs),
(544,163,o),
(524,190,o),
(501,215,cs),
(482,236,o),
(459,250,o),
(431,255,cs),
(417,257,l),
(419,261,ls),
(423,268,o),
(424,276,o),
(422,284,cs),
(419,303,o),
(414,321,o),
(407,339,cs),
(402,352,o),
(394,365,o),
(387,378,cs),
(384,382,o),
(381,385,o),
(374,382,c),
(367,349,ls),
(366,343,o),
(361,340,o),
(356,339,cs),
(353,339,o),
(351,339,o),
(348,340,c),
(329,343,ls),
(308,345,o),
(287,343,o),
(266,337,c),
(259,334,o),
(258,335,o),
(256,342,cs),
(252,358,l),
(248,380,ls),
(247,386,o),
(242,387,o),
(238,382,cs),
(230,373,ls),
(215,355,o),
(202,336,o),
(193,314,cs),
(184,295,o),
(184,276,o),
(192,256,c),
(192,255,o),
(194,253,o),
(193,250,c),
(187,249,o),
(180,247,o),
(174,245,cs),
(122,227,o),
(84,193,o),
(60,143,cs),
(56,135,o),
(54,127,o),
(52,119,c),
(50,115,o),
(50,111,o),
(50,106,cs),
(50,100,o),
(54,96,o),
(59,94,cs),
(64,91,o),
(67,95,o),
(70,98,cs),
(77,107,o),
(85,114,o),
(93,122,cs),
(94,123,o),
(96,125,o),
(99,125,c),
(95,108,o),
(93,92,o),
(92,76,cs),
(91,61,o),
(91,46,o),
(93,31,cs),
(94,26,o),
(96,21,o),
(97,17,cs),
(98,14,o),
(100,11,o),
(104,11,cs),
(108,11,o),
(109,13,o),
(110,17,cs),
(111,20,ls),
(116,35,o),
(124,49,o),
(131,63,cs),
(132,65,o),
(133,67,o),
(136,68,c),
(137,55,ls),
(139,42,o),
(142,29,o),
(147,17,c),
(148,12,o),
(151,8,o),
(154,5,cs)
);
},
{
closed = 1;
nodes = (
(87,234,o),
(99,237,o),
(104,248,cs),
(106,253,o),
(107,257,o),
(107,262,cs),
(107,268,o),
(106,274,o),
(105,279,cs),
(103,295,l),
(114,274,l),
(117,270,o),
(120,266,o),
(124,263,cs),
(132,258,o),
(140,261,o),
(144,270,c),
(145,275,o),
(145,281,o),
(144,286,cs),
(137,317,ls),
(133,334,o),
(134,351,o),
(140,367,cs),
(147,387,ls),
(148,391,o),
(150,394,o),
(147,399,c),
(141,395,o),
(140,395,o),
(138,391,cs),
(121,365,o),
(116,337,o),
(125,306,cs),
(127,297,o),
(128,289,o),
(130,280,c),
(127,280,o),
(126,282,o),
(124,284,cs),
(118,292,o),
(115,301,o),
(112,311,cs),
(110,316,o),
(108,322,o),
(103,325,c),
(99,329,o),
(96,328,o),
(95,323,cs),
(93,317,o),
(93,311,o),
(94,305,cs),
(95,295,o),
(95,285,o),
(95,275,cs),
(95,270,o),
(94,265,o),
(92,260,cs),
(89,255,o),
(87,255,o),
(82,258,cs),
(78,261,o),
(75,266,o),
(74,271,cs),
(73,279,o),
(72,287,o),
(73,295,cs),
(73,299,o),
(74,303,o),
(73,307,c),
(70,307,o),
(69,305,o),
(68,303,cs),
(61,289,o),
(60,275,o),
(65,260,cs),
(67,253,o),
(71,247,o),
(77,242,cs)
);
},
{
closed = 1;
nodes = (
(176,312,o),
(175,325,o),
(171,338,c),
(171,341,o),
(170,345,o),
(171,348,c),
(196,397,l),
(200,389,o),
(199,382,o),
(201,375,cs),
(204,362,o),
(204,361,o),
(209,357,c),
(211,361,o),
(211,365,o),
(210,368,c),
(208,388,o),
(208,407,o),
(208,426,cs),
(207,437,o),
(207,447,o),
(205,458,cs),
(205,460,o),
(205,464,o),
(201,465,c),
(197,462,o),
(197,458,o),
(197,454,cs),
(197,421,ls),
(197,417,o),
(196,413,o),
(194,410,cs),
(186,397,o),
(179,384,o),
(173,371,cs),
(172,369,o),
(172,367,o),
(168,366,c),
(167,368,o),
(168,371,o),
(168,373,cs),
(168,402,ls),
(168,412,o),
(166,421,o),
(162,429,cs),
(158,440,o),
(147,443,o),
(138,435,cs),
(134,432,o),
(130,428,o),
(127,424,c),
(125,419,o),
(122,415,o),
(125,408,c),
(127,415,o),
(129,420,o),
(133,423,cs),
(137,426,o),
(142,430,o),
(147,429,cs),
(153,427,o),
(152,420,o),
(153,415,cs),
(153,413,l),
(157,354,ls),
(158,340,o),
(160,325,o),
(166,312,cs),
(168,306,o),
(171,301,o),
(178,298,c)
);
},
{
closed = 1;
nodes = (
(266,399,o),
(269,407,o),
(268,416,cs),
(267,427,o),
(270,438,o),
(273,449,cs),
(278,472,l),
(277,480,o),
(275,487,o),
(269,490,cs),
(263,493,o),
(256,491,o),
(251,488,cs),
(245,484,o),
(242,480,o),
(237,475,cs),
(220,456,o),
(219,424,o),
(236,404,cs),
(242,397,o),
(251,393,o),
(257,396,cs)
);
},
{
closed = 1;
nodes = (
(252,409,o),
(251,411,o),
(249,413,c),
(240,427,o),
(236,442,o),
(240,459,cs),
(241,463,ls),
(246,475,o),
(250,477,o),
(263,475,c),
(265,471,o),
(264,468,o),
(264,464,c),
(262,453,o),
(262,441,o),
(261,430,cs),
(261,423,o),
(262,414,o),
(256,409,c)
);
},
{
closed = 1;
nodes = (
(295,376,o),
(304,376,o),
(310,386,cs),
(313,391,l),
(324,416,o),
(336,442,o),
(348,467,cs),
(349,470,ls),
(354,482,o),
(350,488,o),
(337,488,cs),
(332,488,ls),
(313,486,o),
(299,477,o),
(291,459,cs),
(285,445,o),
(282,430,o),
(281,415,cs),
(281,405,o),
(283,394,o),
(288,386,cs)
);
},
{
closed = 1;
nodes = (
(302,408,o),
(302,413,o),
(301,418,cs),
(298,427,o),
(298,437,o),
(299,447,cs),
(299,452,o),
(300,457,o),
(303,462,cs),
(307,471,o),
(318,477,o),
(328,475,cs),
(335,474,o),
(338,469,o),
(337,463,cs),
(336,460,o),
(335,457,o),
(334,455,cs),
(327,439,o),
(318,424,o),
(309,408,c),
(308,407,o),
(308,405,o),
(305,404,c)
);
},
{
closed = 1;
nodes = (
(518,239,o),
(520,240,o),
(520,244,cs),
(521,248,o),
(518,251,o),
(514,250,cs),
(511,250,o),
(509,247,o),
(509,244,cs),
(509,240,o),
(511,238,o),
(514,238,cs)
);
},
{
closed = 1;
nodes = (
(509,265,o),
(514,269,o),
(514,273,cs),
(514,277,o),
(511,280,o),
(508,280,cs),
(503,280,o),
(498,275,o),
(498,271,cs),
(499,267,o),
(501,265,o),
(505,265,cs)
);
},
{
closed = 1;
nodes = (
(487,297,ls),
(502,302,o),
(513,313,o),
(523,325,cs),
(525,327,o),
(527,330,o),
(525,333,cs),
(523,336,o),
(519,337,o),
(516,337,cs),
(500,335,o),
(486,330,o),
(477,316,c),
(475,314,o),
(473,310,o),
(472,307,cs),
(470,299,o),
(474,294,o),
(483,295,c)
);
},
{
closed = 1;
nodes = (
(493,321,o),
(495,323,o),
(505,327,c),
(507,319,o),
(504,313,o),
(494,312,c)
);
},
{
closed = 1;
nodes = (
(384,405,o),
(390,412,o),
(392,422,c),
(394,427,o),
(396,432,o),
(399,436,cs),
(409,451,ls),
(413,456,o),
(415,462,o),
(415,468,cs),
(414,481,o),
(404,491,o),
(391,488,cs),
(375,485,o),
(363,477,o),
(357,461,cs),
(352,446,o),
(351,430,o),
(353,414,cs),
(354,409,o),
(355,404,o),
(358,401,cs),
(364,394,o),
(372,393,o),
(377,398,cs)
);
},
{
closed = 1;
nodes = (
(367,431,o),
(364,444,o),
(366,458,cs),
(367,466,o),
(381,476,o),
(388,475,cs),
(394,475,o),
(402,466,o),
(400,461,cs),
(395,445,o),
(388,431,o),
(375,417,c)
);
},
{
closed = 1;
nodes = (
(465,337,ls),
(475,340,o),
(484,346,o),
(492,352,cs),
(498,358,o),
(504,364,o),
(507,372,cs),
(511,380,o),
(507,388,o),
(499,387,cs),
(491,385,o),
(481,385,o),
(474,380,cs),
(463,373,o),
(455,363,o),
(448,352,cs),
(443,344,o),
(449,336,o),
(459,336,c)
);
},
{
closed = 1;
nodes = (
(434,371,o),
(444,377,o),
(452,386,cs),
(459,395,o),
(464,405,o),
(470,415,cs),
(473,421,o),
(475,427,o),
(476,433,c),
(476,445,o),
(470,451,o),
(459,449,cs),
(449,446,o),
(438,442,o),
(429,435,cs),
(415,423,o),
(405,407,o),
(400,389,cs),
(396,374,o),
(407,363,o),
(422,368,cs)
);
},
{
closed = 1;
nodes = (
(470,353,o),
(468,355,o),
(469,361,cs),
(471,370,o),
(478,376,o),
(490,377,c),
(496,372,o),
(492,367,o),
(489,362,cs),
(486,357,o),
(481,354,o),
(475,354,cs)
);
},
{
closed = 1;
nodes = (
(422,384,o),
(418,387,o),
(418,394,cs),
(419,411,o),
(426,425,o),
(442,432,c),
(446,435,o),
(452,437,o),
(457,437,c),
(462,433,o),
(462,429,o),
(461,424,cs),
(460,420,o),
(459,416,o),
(459,412,cs),
(459,410,o),
(459,408,o),
(458,407,cs),
(452,398,o),
(446,391,o),
(437,386,c),
(434,385,o),
(431,385,o),
(428,384,c)
);
}
);
width = 614;
}
);
note = I;
unicode = (73,204,205,206,207);
},
{
glyphname = J;
lastChange = "2024-09-21 16:40:38 +0000";
layers = (
{
layerId = m01;
shapes = (
{
closed = 1;
nodes = (
(185,-5,o),
(193,3,o),
(195,13,cs),
(197,21,o),
(196,28,o),
(194,35,cs),
(191,44,o),
(194,50,o),
(199,56,cs),
(204,61,o),
(208,65,o),
(213,68,cs),
(224,76,ls),
(230,80,o),
(233,87,o),
(233,94,cs),
(232,103,o),
(225,110,o),
(216,109,cs),
(213,109,o),
(210,107,o),
(206,109,c),
(204,112,o),
(202,117,o),
(202,122,cs),
(200,142,o),
(201,161,o),
(206,181,cs),
(208,192,o),
(215,197,o),
(223,202,cs),
(235,209,o),
(247,211,o),
(260,207,cs),
(272,204,o),
(283,205,o),
(294,210,cs),
(297,212,o),
(301,214,o),
(306,213,c),
(306,208,o),
(303,205,o),
(299,203,cs),
(295,200,o),
(290,198,o),
(285,196,cs),
(278,194,o),
(271,192,o),
(264,188,cs),
(254,182,o),
(247,174,o),
(244,163,cs),
(240,152,o),
(241,149,o),
(251,144,c),
(251,143,o),
(252,143,o),
(252,142,c),
(248,135,o),
(243,129,o),
(242,120,cs),
(241,114,o),
(243,108,o),
(249,105,cs),
(255,101,o),
(261,102,o),
(267,106,cs),
(270,108,o),
(273,111,o),
(275,114,cs),
(276,115,o),
(277,118,o),
(280,117,c),
(282,115,o),
(282,113,o),
(283,110,cs),
(288,92,ls),
(290,85,o),
(294,78,o),
(301,75,c),
(311,68,o),
(322,75,o),
(322,87,cs),
(322,93,o),
(320,99,o),
(317,104,c),
(316,107,o),
(313,110,o),
(314,114,c),
(319,116,o),
(321,113,o),
(323,111,c),
(327,109,o),
(330,106,o),
(334,105,cs),
(339,104,o),
(344,103,o),
(349,107,cs),
(353,111,o),
(352,116,o),
(351,121,cs),
(350,126,o),
(347,129,o),
(345,133,c),
(349,137,o),
(353,139,o),
(356,143,c),
(362,148,o),
(362,155,o),
(359,161,cs),
(356,168,o),
(349,171,o),
(341,169,c),
(337,169,o),
(333,166,o),
(329,164,c),
(313,151,l),
(299,156,o),
(298,162,o),
(308,172,c),
(311,174,o),
(314,176,o),
(317,178,cs),
(329,187,ls),
(346,201,o),
(351,221,o),
(342,241,cs),
(333,262,o),
(320,268,o),
(297,260,cs),
(289,257,l),
(283,256,ls),
(274,254,o),
(271,256,o),
(271,265,cs),
(271,268,ls),
(275,293,o),
(283,316,o),
(298,336,cs),
(310,351,o),
(326,352,o),
(340,339,cs),
(347,333,o),
(346,327,o),
(339,322,cs),
(335,318,ls),
(323,309,o),
(321,300,o),
(327,287,cs),
(329,283,o),
(331,281,o),
(336,281,cs),
(340,281,o),
(343,283,o),
(345,287,cs),
(347,290,o),
(348,294,o),
(347,298,cs),
(346,305,o),
(351,309,o),
(356,312,c),
(360,306,o),
(359,301,o),
(356,297,cs),
(353,292,o),
(350,287,o),
(348,281,cs),
(346,277,o),
(346,273,o),
(347,269,cs),
(350,261,o),
(358,260,o),
(364,266,c),
(366,269,o),
(367,272,o),
(368,275,cs),
(374,288,ls),
(376,291,o),
(377,294,o),
(382,294,c),
(385,290,o),
(382,287,o),
(381,284,cs),
(379,279,o),
(377,273,o),
(377,267,cs),
(377,260,o),
(379,255,o),
(384,250,c),
(390,246,o),
(395,246,o),
(401,251,cs),
(406,256,o),
(408,262,o),
(407,270,cs),
(405,283,ls),
(404,286,o),
(403,290,o),
(407,293,c),
(411,290,o),
(412,285,o),
(414,281,cs),
(416,277,o),
(420,273,o),
(425,274,cs),
(431,274,o),
(434,278,o),
(436,283,cs),
(441,297,o),
(439,305,o),
(429,311,cs),
(420,317,o),
(417,326,o),
(417,336,cs),
(418,355,o),
(407,371,o),
(390,377,cs),
(378,380,ls),
(372,381,o),
(368,384,o),
(365,391,cs),
(362,401,o),
(353,407,o),
(342,410,cs),
(330,413,o),
(318,411,o),
(307,405,cs),
(304,403,o),
(302,400,o),
(298,401,c),
(298,403,o),
(298,405,o),
(298,408,c),
(295,417,o),
(296,426,o),
(299,436,cs),
(302,443,o),
(302,450,o),
(301,457,cs),
(299,465,o),
(294,469,o),
(287,470,cs),
(275,470,ls),
(261,469,o),
(260,470,o),
(256,483,cs),
(255,487,l),
(250,498,o),
(244,502,o),
(233,501,cs),
(228,500,o),
(223,499,o),
(219,496,cs),
(208,490,o),
(199,482,o),
(194,470,cs),
(192,464,o),
(188,459,o),
(182,456,cs),
(175,451,ls),
(168,447,o),
(165,441,o),
(163,433,c),
(162,422,o),
(165,413,o),
(170,404,cs),
(172,399,o),
(176,394,o),
(176,387,c),
(158,387,ls),
(134,385,o),
(109,374,o),
(111,337,cs),
(112,328,o),
(108,323,o),
(100,319,cs),
(79,308,ls),
(68,301,o),
(59,292,o),
(53,280,cs),
(50,274,o),
(49,268,o),
(52,262,cs),
(55,255,o),
(56,248,o),
(56,241,cs),
(56,234,o),
(60,230,o),
(66,230,cs),
(72,229,o),
(77,233,o),
(78,240,c),
(80,245,o),
(79,251,o),
(78,257,cs),
(77,261,o),
(77,264,o),
(77,268,cs),
(77,271,o),
(78,275,o),
(82,276,c),
(85,273,o),
(84,271,o),
(83,268,cs),
(81,258,ls),
(80,252,o),
(82,248,o),
(87,246,cs),
(91,245,o),
(95,246,o),
(99,252,cs),
(101,254,o),
(101,259,o),
(106,260,c),
(106,253,o),
(102,248,o),
(99,243,cs),
(96,237,o),
(93,232,o),
(92,225,cs),
(90,217,o),
(93,211,o),
(100,209,cs),
(105,207,o),
(111,210,o),
(115,218,cs),
(119,228,ls),
(121,232,o),
(123,235,o),
(128,233,cs),
(134,230,o),
(139,234,o),
(142,238,cs),
(150,249,o),
(146,263,o),
(133,268,cs),
(122,272,ls),
(119,273,o),
(117,275,o),
(117,279,cs),
(118,285,o),
(119,290,o),
(124,293,cs),
(141,306,ls),
(148,311,o),
(155,313,o),
(164,312,cs),
(174,311,o),
(184,299,o),
(183,289,cs),
(183,280,o),
(179,274,o),
(174,268,cs),
(163,257,o),
(157,244,o),
(156,229,cs),
(156,211,o),
(158,194,o),
(166,177,cs),
(174,158,o),
(175,138,o),
(162,120,cs),
(161,119,o),
(160,117,o),
(159,116,cs),
(155,111,o),
(156,107,o),
(158,102,cs),
(161,94,o),
(159,89,o),
(150,87,c),
(148,86,o),
(145,86,o),
(142,86,cs),
(132,86,o),
(124,83,o),
(116,77,cs),
(109,72,o),
(105,65,o),
(104,57,cs),
(104,52,o),
(104,47,o),
(108,43,cs),
(111,40,o),
(115,42,o),
(120,43,c),
(115,32,ls),
(113,27,o),
(113,22,o),
(113,17,cs),
(114,11,o),
(117,8,o),
(124,9,cs),
(128,10,o),
(131,12,o),
(134,15,cs),
(140,21,l),
(142,20,o),
(142,18,o),
(141,17,c),
(141,15,o),
(141,14,o),
(141,12,cs),
(142,6,o),
(146,3,o),
(152,6,cs),
(156,9,o),
(158,13,o),
(160,17,cs),
(163,21,o),
(164,27,o),
(169,31,c),
(169,26,o),
(167,23,o),
(166,20,cs),
(164,16,o),
(162,11,o),
(161,7,cs),
(159,-3,o),
(165,-9,o),
(174,-7,cs)
);
}
);
width = 489;
}
);
note = J;
unicode = 74;
},
{
glyphname = K;
lastChange = "2024-09-21 16:40:38 +0000";
layers = (
{
layerId = m01;
shapes = (
{
closed = 1;
nodes = (
(492,12,o),
(493,15,o),
(495,18,cs),
(500,29,o),
(504,40,o),
(506,52,cs),
(511,81,o),
(500,101,o),
(472,111,cs),
(469,112,o),
(466,112,o),
(464,115,c),
(464,121,o),
(464,127,o),
(465,134,cs),
(474,186,o),
(509,221,o),
(562,229,cs),
(568,230,o),
(575,231,o),
(581,233,cs),
(583,234,o),
(585,234,o),
(585,238,c),
(559,244,o),
(534,239,o),
(512,226,cs),
(471,201,o),
(453,163,o),
(452,117,c),
(426,117,l),
(425,121,o),
(425,124,o),
(424,127,cs),
(420,135,o),
(421,142,o),
(423,150,cs),
(427,165,o),
(427,180,o),
(424,196,cs),
(412,256,o),
(355,300,o),
(294,295,cs),
(269,293,o),
(247,285,o),
(225,274,c),
(204,260,l),
(197,263,o),
(182,265,o),
(179,266,cs),
(160,271,l),
(134,281,o),
(118,301,o),
(116,329,cs),
(113,365,o),
(123,397,o),
(149,422,cs),
(151,424,o),
(153,425,o),
(153,428,c),
(151,430,o),
(149,431,o),
(147,430,cs),
(143,429,o),
(139,428,o),
(135,427,c),
(87,406,o),
(56,371,o),
(51,318,cs),
(49,292,o),
(52,267,o),
(64,244,cs),
(75,222,o),
(93,209,o),
(117,204,cs),
(127,202,o),
(136,202,o),
(147,201,c),
(141,190,o),
(137,178,o),
(136,166,c),
(132,167,ls),
(101,174,o),
(68,154,o),
(55,128,cs),
(52,122,o),
(50,115,o),
(50,108,cs),
(50,107,o),
(49,104,o),
(52,104,c),
(54,107,l),
(62,134,o),
(81,149,o),
(107,155,cs),
(119,158,o),
(130,155,o),
(140,148,cs),
(150,142,o),
(157,133,o),
(164,124,c),
(163,124,o),
(163,123,o),
(163,123,c),
(159,125,ls),
(147,130,o),
(134,132,o),
(120,131,cs),
(109,130,o),
(98,126,o),
(89,118,cs),
(85,115,o),
(82,111,o),
(82,105,c),
(84,104,o),
(85,105,o),
(86,106,cs),
(100,119,o),
(117,122,o),
(136,119,cs),
(158,116,o),
(169,105,o),
(174,82,cs),
(176,74,o),
(178,65,o),
(178,57,cs),
(178,51,o),
(178,45,o),
(182,41,c),
(185,40,o),
(186,42,o),
(188,42,c),
(207,50,o),
(219,47,o),
(230,29,cs),
(232,26,o),
(233,23,o),
(236,20,cs),
(242,13,o),
(246,13,o),
(251,20,cs),
(258,32,o),
(268,41,o),
(279,47,cs),
(291,54,o),
(303,54,o),
(315,47,cs),
(327,40,o),
(338,31,o),
(347,19,cs),
(349,16,o),
(351,12,o),
(355,10,c),
(372,22,o),
(392,27,o),
(412,29,cs),
(433,30,o),
(452,25,o),
(469,11,c),
(475,26,o),
(473,39,o),
(471,53,cs),
(469,63,o),
(466,71,o),
(458,78,cs),
(451,85,o),
(443,90,o),
(433,91,cs),
(430,91,o),
(428,91,o),
(426,93,c),
(425,97,o),
(425,100,o),
(427,104,c),
(430,105,o),
(433,105,o),
(436,105,cs),
(445,104,o),
(453,103,o),
(462,101,cs),
(486,96,o),
(500,77,o),
(496,54,cs),
(494,42,o),
(490,30,o),
(488,18,cs),
(488,15,o),
(487,13,o),
(489,10,c)
);
},
{
closed = 1;
nodes = (
(412,284,o),
(416,284,o),
(418,288,c),
(413,293,o),
(413,293,o),
(407,295,cs),
(396,297,o),
(387,301,o),
(380,311,c),
(383,314,o),
(387,314,o),
(390,315,cs),
(394,316,o),
(397,315,o),
(399,312,cs),
(408,302,o),
(420,298,o),
(432,295,c),
(435,295,o),
(438,294,o),
(440,298,c),
(434,306,o),
(422,306,o),
(413,315,c),
(448,313,ls),
(450,313,o),
(452,311,o),
(453,310,cs),
(467,292,o),
(485,288,o),
(506,294,cs),
(517,297,o),
(527,303,o),
(536,310,cs),
(542,315,o),
(546,322,o),
(554,325,c),
(555,326,o),
(556,327,o),
(555,329,c),
(555,330,o),
(554,331,o),
(552,331,cs),
(531,333,ls),
(529,333,o),
(526,332,o),
(525,335,c),
(531,341,o),
(540,343,o),
(543,352,c),
(539,353,o),
(537,353,o),
(534,353,cs),
(521,352,o),
(508,352,o),
(495,354,cs),
(491,354,o),
(486,354,o),
(482,354,cs),
(470,354,o),
(460,349,o),
(453,339,cs),
(445,326,l),
(437,324,o),
(429,328,o),
(421,327,c),
(421,331,o),
(425,331,o),
(424,335,c),
(385,371,o),
(345,406,o),
(294,429,c),
(310,447,o),
(326,461,o),
(347,470,cs),
(356,474,l),
(358,474,o),
(359,476,o),
(359,478,c),
(358,480,o),
(357,481,o),
(355,481,cs),
(342,483,o),
(328,484,o),
(315,483,cs),
(292,481,o),
(272,473,o),
(255,456,cs),
(250,450,o),
(248,444,o),
(250,437,cs),
(253,421,o),
(261,409,o),
(280,408,c),
(279,394,o),
(275,381,o),
(271,369,cs),
(267,357,o),
(263,346,o),
(256,337,cs),
(253,333,o),
(250,332,o),
(246,332,cs),
(222,331,ls),
(216,331,o),
(209,330,o),
(202,328,cs),
(199,327,o),
(195,326,o),
(196,321,c),
(200,319,o),
(205,320,o),
(209,320,cs),
(251,323,o),
(292,320,o),
(334,318,cs),
(338,318,o),
(342,318,o),
(344,314,cs),
(348,308,o),
(353,307,o),
(359,308,cs),
(362,308,o),
(365,309,o),
(368,308,c),
(378,296,ls),
(386,287,o),
(396,284,o),
(408,284,cs)
);
}
);
width = 635;
}
);
note = K;
unicode = 75;
},
{
glyphname = L;
lastChange = "2024-09-21 16:40:38 +0000";
layers = (
{
layerId = m01;
shapes = (
{
closed = 1;
nodes = (
(287,-28,ls),
(291,-28,o),
(294,-26,o),
(296,-23,cs),
(301,-16,o),
(305,-10,o),
(308,-3,cs),
(309,0,o),
(310,2,o),
(312,4,c),
(330,15,l),
(340,8,ls),
(343,6,o),
(345,6,o),
(348,8,c),
(355,17,o),
(365,23,o),
(360,37,cs),
(359,40,o),
(360,45,o),
(359,48,c),
(358,57,o),
(362,63,o),
(365,71,c),
(374,63,l),
(371,60,ls),
(358,43,o),
(369,22,o),
(384,16,cs),
(400,9,o),
(415,19,o),
(416,35,cs),
(416,40,o),
(415,44,o),
(415,49,c),
(430,44,ls),
(433,43,o),
(437,42,o),
(440,46,c),
(447,52,o),
(454,57,o),
(461,65,c),
(440,78,o),
(417,88,o),
(400,106,c),
(401,110,o),
(402,114,o),
(404,117,c),
(408,116,o),
(409,114,o),
(412,112,cs),
(425,101,o),
(440,91,o),
(456,83,cs),
(470,76,ls),
(472,75,o),
(474,75,o),
(475,78,c),
(472,82,o),
(467,85,o),
(462,87,c),
(444,98,o),
(427,111,o),
(410,125,cs),
(407,128,o),
(403,131,o),
(403,137,cs),
(403,138,l),
(408,144,o),
(422,151,o),
(425,156,cs),
(433,168,o),
(433,176,o),
(422,182,c),
(422,182,o),
(422,183,o),
(421,184,c),
(422,186,o),
(424,186,o),
(425,187,cs),
(441,198,o),
(445,212,o),
(437,230,cs),
(426,250,ls),
(423,255,o),
(421,260,o),
(420,266,c),
(422,267,o),
(423,266,o),
(424,266,cs),
(430,265,o),
(433,266,o),
(435,272,cs),
(436,275,o),
(435,278,o),
(434,281,cs),
(430,289,o),
(430,289,o),
(436,295,cs),
(440,298,o),
(442,301,o),
(440,306,cs),
(438,310,o),
(440,313,o),
(441,316,cs),
(451,353,o),
(463,391,o),
(477,427,cs),
(482,442,l),
(487,442,o),
(492,442,o),
(496,443,cs),
(508,445,o),
(513,459,o),
(503,468,cs),
(496,475,o),
(487,480,o),
(476,480,cs),
(469,481,o),
(464,479,o),
(461,472,cs),
(458,466,o),
(459,460,o),
(463,455,c),
(471,448,l),
(457,434,o),
(403,394,o),
(395,392,c),
(389,420,o),
(385,448,o),
(380,476,c),
(385,477,o),
(389,478,o),
(393,480,cs),
(405,485,o),
(406,498,o),
(397,506,cs),
(390,513,o),
(381,514,o),
(372,513,cs),
(365,512,o),
(358,508,o),
(357,501,cs),
(355,494,o),
(357,487,o),
(362,482,cs),
(364,480,o),
(367,479,o),
(369,476,c),
(343,448,o),
(315,421,o),
(285,394,c),
(267,421,o),
(250,447,o),
(234,473,c),
(236,477,o),
(239,478,o),
(241,480,cs),
(252,489,o),
(253,509,o),
(236,515,c),
(234,515,o),
(232,516,o),
(231,518,cs),
(229,522,o),
(226,521,o),
(222,520,cs),
(218,520,o),
(214,518,o),
(211,515,c),
(203,510,o),
(198,503,o),
(200,493,cs),
(202,484,o),
(208,478,o),
(217,475,cs),
(219,474,o),
(222,475,o),
(224,471,c),
(203,434,o),
(180,399,o),
(150,368,c),
(132,383,o),
(113,395,o),
(95,408,c),
(96,412,ls),
(99,423,o),
(97,431,o),
(89,437,cs),
(77,444,o),
(72,443,o),
(62,437,cs),
(52,429,o),
(48,418,o),
(51,409,c),
(56,400,o),
(67,395,o),
(79,398,c),
(82,398,o),
(85,401,o),
(88,399,c),
(91,395,ls),
(109,364,o),
(122,331,o),
(130,296,cs),
(131,293,o),
(130,290,o),
(129,287,c),
(126,283,o),
(125,279,o),
(128,275,c),
(134,270,o),
(133,264,o),
(129,258,cs),
(126,253,o),
(128,250,o),
(131,245,cs),
(133,240,o),
(137,242,o),
(140,243,c),
(138,235,o),
(133,231,o),
(128,228,cs),
(123,225,o),
(118,223,o),
(113,220,cs),
(101,211,o),
(99,199,o),
(108,187,c),
(108,186,o),
(109,185,o),
(108,183,c),
(98,174,o),
(92,163,o),
(98,148,cs),
(103,135,o),
(111,125,o),
(124,120,c),
(116,102,o),
(105,94,o),
(85,92,cs),
(81,91,o),
(76,91,o),
(72,87,c),
(74,86,o),
(75,85,o),
(76,85,cs),
(92,82,o),
(106,84,o),
(118,95,cs),
(127,103,o),
(133,112,o),
(136,123,cs),
(138,129,o),
(138,129,o),
(143,131,c),
(138,112,o),
(138,110,o),
(147,96,c),
(133,73,o),
(115,57,o),
(88,55,cs),
(70,53,ls),
(61,53,o),
(61,53,o),
(58,43,c),
(63,40,o),
(67,35,o),
(74,34,cs),
(79,33,o),
(85,31,o),
(90,29,cs),
(100,26,o),
(109,23,o),
(119,27,c),
(119,27,o),
(120,27,o),
(121,27,c),
(124,22,ls),
(135,5,o),
(152,4,o),
(166,18,cs),
(178,30,o),
(183,44,o),
(174,61,c),
(185,73,l),
(187,69,o),
(187,67,o),
(189,64,cs),
(195,53,o),
(196,41,o),
(192,29,cs),
(189,20,o),
(193,13,o),
(201,8,cs),
(207,4,ls),
(211,1,o),
(214,1,o),
(218,5,cs),
(220,8,o),
(221,11,o),
(225,13,c),
(230,9,o),
(236,5,o),
(242,3,cs),
(249,0,o),
(253,-4,o),
(256,-11,cs),
(264,-28,o),
(265,-28,o),
(284,-28,cs)
);
}
);
width = 558;
}
);
note = L;
unicode = 76;
},
{
glyphname = M;
lastChange = "2024-09-21 16:40:38 +0000";
layers = (
{
layerId = m01;
shapes = (
{
closed = 1;
nodes = (
(162,40,o),
(161,49,o),
(161,58,cs),
(160,67,o),
(160,76,o),
(163,85,c),
(167,85,o),
(170,83,o),
(174,81,cs),
(178,80,o),
(182,77,o),
(186,76,cs),
(192,74,o),
(198,74,o),
(202,79,cs),
(206,86,o),
(211,93,o),
(217,98,c),
(213,102,o),
(207,100,o),
(206,107,c),
(221,101,l),
(224,103,o),
(227,105,o),
(228,108,c),
(217,112,o),
(211,117,o),
(211,122,c),
(216,114,o),
(225,114,o),
(232,111,c),
(238,114,o),
(241,120,o),
(243,125,c),
(255,127,o),
(266,127,o),
(276,128,cs),
(317,129,o),
(358,129,o),
(399,124,cs),
(459,115,ls),
(464,114,o),
(470,113,o),
(476,117,c),
(457,127,o),
(436,130,o),
(416,135,c),
(424,179,l),
(449,296,l),
(456,336,ls),
(457,340,o),
(456,343,o),
(451,346,cs),
(430,358,ls),
(419,363,o),
(414,370,o),
(412,381,cs),
(408,402,o),
(396,418,o),
(378,430,cs),
(326,462,ls),
(315,470,o),
(302,472,o),
(288,473,cs),
(242,476,o),
(188,436,o),
(177,396,cs),
(173,383,o),
(169,370,o),
(162,358,cs),
(155,347,o),
(147,337,o),
(134,335,cs),
(130,334,o),
(129,331,o),
(129,328,cs),
(129,321,l),
(140,214,ls),
(140,211,o),
(141,208,o),
(140,205,c),
(136,203,o),
(132,203,o),
(130,200,cs),
(127,194,o),
(132,189,o),
(130,183,c),
(125,187,o),
(127,193,o),
(124,198,c),
(119,197,o),
(119,194,o),
(119,190,cs),
(120,186,o),
(122,183,o),
(124,180,cs),
(125,178,o),
(128,176,o),
(127,173,c),
(123,174,o),
(122,179,o),
(118,180,c),
(116,174,o),
(119,167,o),
(117,160,c),
(104,167,l),
(101,159,o),
(102,153,o),
(108,147,cs),
(112,143,o),
(117,139,o),
(119,133,c),
(112,137,o),
(107,143,o),
(102,149,cs),
(100,152,o),
(99,156,o),
(99,159,cs),
(100,172,o),
(103,185,o),
(109,197,cs),
(110,200,o),
(113,203,o),
(113,207,c),
(112,210,o),
(107,212,o),
(109,217,cs),
(110,221,o),
(108,224,o),
(104,226,cs),
(100,227,o),
(97,225,o),
(95,222,cs),
(92,217,o),
(88,215,o),
(83,213,c),
(83,202,o),
(82,192,o),
(80,182,c),
(76,185,o),
(75,189,o),
(74,192,cs),
(71,198,o),
(67,204,o),
(60,206,cs),
(55,208,o),
(52,208,o),
(51,203,cs),
(49,198,o),
(50,193,o),
(52,189,cs),
(58,176,o),
(64,162,o),
(72,150,c),
(74,148,o),
(75,145,o),
(75,142,c),
(73,136,o),
(77,134,o),
(80,131,c),
(87,132,o),
(89,139,o),
(95,141,c),
(93,134,o),
(89,132,o),
(85,128,c),
(93,123,o),
(104,124,o),
(106,113,c),
(91,102,o),
(71,100,o),
(57,87,c),
(72,88,o),
(86,96,o),
(102,99,c),
(101,84,o),
(114,88,o),
(121,82,c),
(121,75,o),
(121,68,o),
(119,60,c),
(111,59,o),
(103,61,o),
(97,57,c),
(96,52,o),
(99,51,o),
(102,51,cs),
(105,51,o),
(109,51,o),
(112,52,cs),
(119,53,o),
(126,52,o),
(129,44,cs),
(130,41,o),
(132,38,o),
(134,36,c),
(135,33,o),
(137,32,o),
(140,31,c),
(147,31,o),
(155,30,o),
(163,31,c)
);
},
{
closed = 1;
nodes = (
(204,19,o),
(207,20,o),
(210,25,c),
(213,33,ls),
(215,38,o),
(218,41,o),
(223,42,cs),
(245,49,ls),
(247,50,o),
(249,50,o),
(250,52,cs),
(252,59,o),
(257,59,o),
(263,58,c),
(274,58,o),
(284,60,o),
(294,65,cs),
(303,70,o),
(311,73,o),
(321,76,cs),
(329,78,o),
(336,77,o),
(343,72,c),
(344,69,o),
(343,67,o),
(343,65,cs),
(342,58,o),
(345,54,o),
(352,52,c),
(357,52,ls),
(365,51,o),
(371,49,o),
(375,41,cs),
(380,33,o),
(388,30,o),
(397,29,cs),
(414,28,o),
(431,28,o),
(447,26,cs),
(451,25,o),
(454,26,o),
(455,30,cs),
(456,34,o),
(453,36,o),
(449,37,cs),
(435,39,ls),
(424,41,o),
(413,40,o),
(403,45,c),
(401,48,o),
(402,51,o),
(402,54,cs),
(401,61,o),
(398,66,o),
(392,69,cs),
(385,72,o),
(379,75,o),
(372,76,cs),
(337,84,ls),
(332,85,o),
(326,85,o),
(320,84,cs),
(309,82,o),
(298,77,o),
(288,72,cs),
(284,70,o),
(280,70,o),
(275,71,cs),
(264,74,o),
(253,75,o),
(242,77,cs),
(230,78,o),
(218,75,o),
(208,69,cs),
(204,66,o),
(199,63,o),
(195,60,cs),
(189,54,o),
(183,53,o),
(175,54,c),
(173,55,o),
(171,56,o),
(168,54,c),
(169,46,o),
(169,38,o),
(171,30,c),
(181,28,o),
(190,25,o),
(198,21,cs)
);
}
);
width = 526;
}
);
note = M;
unicode = 77;
},
{
glyphname = N;
lastChange = "2024-09-21 16:40:38 +0000";
layers = (
{
layerId = m01;
shapes = (
{
closed = 1;
nodes = (
(200,2,o),
(213,15,o),
(225,30,cs),
(227,33,o),
(229,36,o),
(230,40,c),
(230,48,o),
(234,54,o),
(238,60,cs),
(251,81,o),
(268,99,o),
(287,115,cs),
(291,119,o),
(294,122,o),
(299,124,c),
(325,107,o),
(347,86,o),
(364,60,cs),
(375,41,o),
(392,32,o),
(414,31,cs),
(424,30,o),
(435,31,o),
(445,34,cs),
(449,35,o),
(453,37,o),
(456,40,cs),
(464,46,o),
(465,51,o),
(461,61,c),
(473,68,o),
(477,78,o),
(473,91,cs),
(471,96,o),
(471,101,o),
(473,107,cs),
(475,113,o),
(474,120,o),
(472,127,cs),
(471,133,o),
(467,137,o),
(461,138,c),
(457,140,o),
(453,140,o),
(450,140,cs),
(435,140,o),
(421,138,o),
(407,135,cs),
(402,134,o),
(398,135,o),
(394,137,cs),
(348,162,ls),
(346,163,o),
(344,164,o),
(343,168,c),
(370,188,o),
(397,207,o),
(427,223,cs),
(430,225,o),
(434,225,o),
(438,225,cs),
(453,224,o),
(468,224,o),
(483,227,cs),
(494,228,o),
(506,230,o),
(517,234,cs),
(532,240,o),
(538,251,o),
(535,266,c),
(541,268,o),
(546,272,o),
(550,278,cs),
(555,285,o),
(555,288,o),
(549,294,cs),
(536,305,o),
(527,319,o),
(516,332,c),
(518,338,ls),
(521,347,o),
(519,352,o),
(511,355,cs),
(504,359,o),
(497,360,o),
(490,360,cs),
(483,360,o),
(477,357,o),
(474,351,cs),
(472,347,o),
(470,342,o),
(469,338,cs),
(464,314,ls),
(463,308,o),
(460,304,o),
(456,300,cs),
(430,275,o),
(401,255,o),
(372,234,c),
(371,234,o),
(371,234,o),
(370,234,c),
(382,246,o),
(390,261,o),
(397,276,cs),
(412,306,ls),
(414,310,o),
(416,313,o),
(420,316,c),
(432,329,o),
(443,343,o),
(454,358,cs),
(464,372,o),
(471,387,o),
(474,403,cs),
(482,443,o),
(467,486,o),
(415,500,cs),
(404,503,o),
(392,504,o),
(380,505,cs),
(356,508,o),
(331,507,o),
(306,505,cs),
(256,502,o),
(218,477,o),
(190,436,cs),
(182,424,o),
(179,410,o),
(179,395,cs),
(179,364,o),
(191,338,o),
(217,319,cs),
(224,314,o),
(232,308,o),
(239,302,cs),
(242,299,o),
(244,295,o),
(243,290,c),
(242,255,ls),
(242,252,o),
(242,248,o),
(240,245,c),
(239,246,o),
(238,246,o),
(238,246,c),
(202,275,o),
(172,309,o),
(143,345,cs),
(141,348,o),
(140,351,o),
(141,355,cs),
(145,368,ls),
(148,376,o),
(150,384,o),
(150,393,cs),
(150,403,o),
(143,412,o),
(132,412,cs),
(118,412,o),
(105,407,o),
(95,399,cs),
(89,394,o),
(87,388,o),
(90,380,cs),
(91,378,o),
(93,375,o),
(93,371,c),
(88,369,o),
(84,365,o),
(82,360,cs),
(79,354,o),
(82,349,o),
(84,343,c),
(75,339,l),
(59,329,o),
(50,316,o),
(54,296,c),
(54,293,o),
(54,290,o),
(52,286,cs),
(50,281,o),
(50,276,o),
(50,270,c),
(52,257,o),
(58,252,o),
(71,254,cs),
(78,255,o),
(84,256,o),
(90,258,cs),
(94,259,o),
(97,258,o),
(100,258,cs),
(111,256,o),
(118,250,o),
(126,243,cs),
(156,219,o),
(186,196,o),
(220,176,cs),
(247,160,l),
(246,157,o),
(243,157,o),
(242,156,cs),
(194,125,ls),
(183,117,o),
(171,113,o),
(157,117,cs),
(151,119,o),
(144,119,o),
(138,117,cs),
(127,112,o),
(119,105,o),
(117,93,cs),
(114,81,o),
(121,74,o),
(130,69,cs),
(137,64,o),
(138,61,o),
(133,54,cs),
(128,47,ls),
(120,38,o),
(119,33,o),
(125,23,cs),
(131,11,o),
(140,2,o),
(151,-7,cs),
(162,-16,o),
(172,-16,o),
(183,-9,cs)
);
}
);
width = 603;
}
);
note = N;
unicode = (78,209);
},
